<svg width="24" height="25" viewBox="0 0 24 25" fill="none" xmlns="http://www.w3.org/2000/svg">
<g id="Icon / star-filled">
<circle id="Ellipse 1" cx="12" cy="12.5" r="8" fill="white"/>
<path id="stars" d="M16.225 18.5095L15.0982 13.6738L18.8541 10.4344L13.9245 10.0118L11.9996 5.5048L10.0748 10.0588L5.14517 10.4344L8.90104 13.6738L7.77428 18.5095L11.9996 15.9743L16.225 18.5095ZM4.91043 5.45785C6.88226 3.48602 9.24533 2.50011 11.9996 2.50011C14.7539 2.50011 17.1014 3.48602 19.0419 5.45785C21.0137 7.39839 21.9996 9.7458 21.9996 12.5001C21.9996 15.2544 21.0137 17.6175 19.0419 19.5893C17.1014 21.5298 14.7539 22.5001 11.9996 22.5001C9.24533 22.5001 6.88226 21.5298 4.91043 19.5893C2.9699 17.6175 1.99963 15.2544 1.99963 12.5001C1.99963 9.7458 2.9699 7.39839 4.91043 5.45785Z" fill="#21B8F9"/>
</g>
</svg>
