<svg width="78" height="84" viewBox="0 0 78 84" fill="none" xmlns="http://www.w3.org/2000/svg">
<g id="undraw_edit_photo_2m6o 1" clip-path="url(#clip0_1_3020)">
<path id="Vector" d="M60.4969 24.4464L19.2178 58.1079L19.4317 58.3677L60.7109 24.7062L60.4969 24.4464Z" fill="#E6E6E6"/>
<path id="Vector_2" d="M19.4375 24.4405L19.2229 24.6997L60.4914 58.5421L60.706 58.2829L19.4375 24.4405Z" fill="#E6E6E6"/>
<path id="Vector_3" d="M48.6865 35.9019H52.3992V32.2072H48.6865V35.9019Z" fill="#3F3D56"/>
<path id="Vector_4" d="M0 82.673V5.92502C0.000366496 5.59108 0.133832 5.27093 0.371114 5.0348C0.608395 4.79866 0.930113 4.66585 1.26568 4.66548H71.9749C72.3105 4.66585 72.6322 4.79866 72.8695 5.0348C73.1068 5.27093 73.2402 5.59108 73.2406 5.92502V82.673C73.2402 83.0069 73.1068 83.3271 72.8695 83.5632C72.6322 83.7993 72.3105 83.9322 71.9749 83.9325H1.26568C0.930113 83.9322 0.608395 83.7993 0.371114 83.5632C0.133832 83.3271 0.000366496 83.0069 0 82.673ZM1.26568 5.1693C1.06434 5.16952 0.871309 5.24921 0.72894 5.39089C0.586572 5.53256 0.506491 5.72466 0.506271 5.92502V82.673C0.506491 82.8733 0.586572 83.0654 0.72894 83.2071C0.871309 83.3488 1.06434 83.4285 1.26568 83.4287H71.9749C72.1763 83.4285 72.3693 83.3488 72.5117 83.2071C72.654 83.0654 72.7341 82.8733 72.7343 82.673V5.92502C72.7341 5.72466 72.654 5.53256 72.5117 5.39089C72.3693 5.24921 72.1763 5.16952 71.9749 5.1693H1.26568Z" fill="#E6E6E6"/>
<path id="Vector_5" d="M22.6396 70.4717C21.685 70.4717 20.7696 70.849 20.0947 71.5207C19.4197 72.1924 19.0406 73.1034 19.0406 74.0532C19.0406 75.0031 19.4197 75.9141 20.0947 76.5858C20.7696 77.2575 21.685 77.6348 22.6396 77.6348H50.6011C51.5556 77.6348 52.471 77.2575 53.146 76.5858C53.8209 75.9141 54.2001 75.0031 54.2001 74.0532C54.2001 73.1034 53.8209 72.1924 53.146 71.5207C52.471 70.849 51.5556 70.4717 50.6011 70.4717H22.6396Z" fill="#E6E6E6"/>
<path id="Vector_6" d="M18.6476 57.566V25.1539C18.648 24.8422 18.7726 24.5434 18.994 24.323C19.2155 24.1026 19.5158 23.9787 19.8289 23.9783H59.9932C60.3063 23.9787 60.6066 24.1026 60.8281 24.323C61.0495 24.5434 61.1741 24.8422 61.1745 25.1539V57.566C61.1741 57.8777 61.0495 58.1765 60.8281 58.3969C60.6066 58.6173 60.3063 58.7412 59.9932 58.7416H19.8289C19.5158 58.7412 19.2155 58.6172 18.9941 58.3969C18.7726 58.1765 18.648 57.8777 18.6476 57.566ZM19.8289 24.3142C19.6052 24.3144 19.3908 24.403 19.2326 24.5604C19.0744 24.7178 18.9854 24.9312 18.9852 25.1539V57.566C18.9854 57.7886 19.0744 58.0021 19.2326 58.1595C19.3908 58.3169 19.6052 58.4055 19.8289 58.4057H59.9932C60.2169 58.4055 60.4313 58.3169 60.5895 58.1595C60.7477 58.0021 60.8367 57.7886 60.8369 57.566V25.1539C60.8367 24.9313 60.7477 24.7178 60.5895 24.5604C60.4313 24.403 60.2169 24.3144 59.9932 24.3142L19.8289 24.3142Z" fill="#3F3D56"/>
<path id="Vector_7" d="M12.0661 63.4439V31.0317C12.0665 30.7201 12.1911 30.4213 12.4125 30.2009C12.634 29.9805 12.9342 29.8565 13.2474 29.8562H53.4116C53.7248 29.8565 54.0251 29.9805 54.2465 30.2009C54.468 30.4213 54.5926 30.7201 54.5929 31.0317V63.4439C54.5926 63.7556 54.468 64.0544 54.2465 64.2747C54.0251 64.4951 53.7248 64.6191 53.4116 64.6195H13.2474C12.9342 64.6191 12.634 64.4951 12.4125 64.2747C12.1911 64.0544 12.0665 63.7556 12.0661 63.4439Z" fill="#21B8F9"/>
<path id="Vector_8" d="M28.7473 56.6425H49.2522C49.2779 56.6428 49.3035 56.6408 49.3288 56.6364L39.6309 39.9198C39.5718 39.8157 39.4859 39.7291 39.382 39.6688C39.2782 39.6086 39.1601 39.5768 39.0399 39.5768C38.9197 39.5768 38.8017 39.6086 38.6979 39.6688C38.594 39.7291 38.5081 39.8157 38.449 39.9198L31.9405 51.1379L31.6287 51.6747L28.7473 56.6425Z" fill="white"/>
<path id="Vector_9" opacity="0.2" d="M28.7473 56.6423H35.7481L32.3113 51.6747L32.064 51.3167L31.9404 51.1378L31.6286 51.6747L28.7473 56.6423Z" fill="#103B66"/>
<path id="Vector_10" d="M17.3303 56.6423H35.0653L31.6286 51.6746L31.3813 51.3167L26.903 44.8428C26.6094 44.4185 25.903 44.3921 25.5579 44.7628C25.5347 44.7881 25.5131 44.8148 25.4934 44.8428L17.3303 56.6423Z" fill="white"/>
<path id="Vector_11" d="M30.6969 43.879C32.3746 43.879 33.7346 42.5256 33.7346 40.8561C33.7346 39.1866 32.3746 37.8332 30.6969 37.8332C29.0193 37.8332 27.6593 39.1866 27.6593 40.8561C27.6593 42.5256 29.0193 43.879 30.6969 43.879Z" fill="white"/>
<path id="Path 40" d="M49.1946 12.4742C49.4579 12.4785 49.7089 12.5856 49.8936 12.7724C50.0782 12.9592 50.1817 13.2107 50.1817 13.4728C50.1817 13.7348 50.0782 13.9864 49.8936 14.1732C49.7089 14.36 49.4579 14.467 49.1946 14.4713H24.0353C23.7692 14.4757 23.5122 14.3747 23.321 14.1905C23.1297 14.0063 23.0198 13.754 23.0154 13.4892C23.0111 13.2243 23.1126 12.9686 23.2977 12.7783C23.4828 12.5879 23.7363 12.4786 24.0024 12.4742C24.0134 12.474 24.0244 12.474 24.0353 12.4742H49.1946Z" fill="#3F3D56"/>
<path id="Vector_12" d="M54.9107 12.1962C54.8924 12.2145 54.8778 12.2361 54.8679 12.26C54.858 12.2838 54.8529 12.3093 54.8529 12.3352C54.8529 12.361 54.858 12.3865 54.8679 12.4104C54.8778 12.4342 54.8924 12.4559 54.9107 12.4741L55.7583 13.3176H53.6682C53.6422 13.3176 53.6164 13.3226 53.5924 13.3324C53.5684 13.3423 53.5466 13.3567 53.5282 13.375C53.5098 13.3932 53.4952 13.4149 53.4852 13.4388C53.4753 13.4627 53.4702 13.4883 53.4702 13.5141C53.4702 13.54 53.4753 13.5656 53.4852 13.5895C53.4952 13.6133 53.5098 13.635 53.5282 13.6533C53.5466 13.6715 53.5684 13.686 53.5924 13.6958C53.6164 13.7057 53.6422 13.7107 53.6682 13.7106H55.7583L54.9107 14.5542C54.8923 14.5724 54.8778 14.5941 54.8678 14.6179C54.8579 14.6418 54.8527 14.6673 54.8527 14.6932C54.8527 14.719 54.8578 14.7446 54.8677 14.7684C54.8776 14.7923 54.8922 14.814 54.9105 14.8322C54.9289 14.8505 54.9507 14.865 54.9747 14.8748C54.9986 14.8847 55.0243 14.8898 55.0503 14.8898C55.0762 14.8898 55.1019 14.8846 55.1259 14.8747C55.1499 14.8648 55.1716 14.8503 55.1899 14.8321L56.3747 13.6531C56.4117 13.6162 56.4325 13.5662 56.4325 13.5141C56.4325 13.462 56.4117 13.412 56.3747 13.3752L55.1899 12.1962C55.1716 12.178 55.1499 12.1635 55.1259 12.1536C55.1019 12.1437 55.0763 12.1387 55.0503 12.1387C55.0244 12.1387 54.9987 12.1437 54.9748 12.1536C54.9508 12.1635 54.929 12.178 54.9107 12.1962Z" fill="#E6E6E6"/>
<path id="Vector_13" d="M18.3298 12.1962C18.3481 12.2145 18.3627 12.2361 18.3726 12.26C18.3825 12.2838 18.3876 12.3093 18.3876 12.3352C18.3876 12.361 18.3825 12.3865 18.3726 12.4104C18.3627 12.4342 18.3481 12.4559 18.3298 12.4741L17.4821 13.3176H19.5723C19.5983 13.3176 19.6241 13.3226 19.6481 13.3324C19.6721 13.3423 19.6939 13.3567 19.7123 13.375C19.7307 13.3932 19.7453 13.4149 19.7553 13.4388C19.7652 13.4627 19.7703 13.4883 19.7703 13.5141C19.7703 13.54 19.7652 13.5656 19.7553 13.5895C19.7453 13.6133 19.7307 13.635 19.7123 13.6533C19.6939 13.6715 19.6721 13.686 19.6481 13.6958C19.6241 13.7057 19.5983 13.7107 19.5723 13.7106H17.4821L18.3298 14.5542C18.3482 14.5724 18.3627 14.5941 18.3727 14.6179C18.3826 14.6418 18.3878 14.6673 18.3878 14.6932C18.3878 14.719 18.3827 14.7446 18.3728 14.7684C18.3628 14.7923 18.3483 14.814 18.3299 14.8322C18.3116 14.8505 18.2898 14.865 18.2658 14.8748C18.2419 14.8847 18.2162 14.8898 18.1902 14.8898C18.1643 14.8898 18.1386 14.8846 18.1146 14.8747C18.0906 14.8648 18.0689 14.8503 18.0505 14.8321L16.8658 13.6531C16.8288 13.6162 16.808 13.5662 16.808 13.5141C16.808 13.462 16.8288 13.412 16.8658 13.3752L18.0505 12.1962C18.0689 12.178 18.0906 12.1635 18.1146 12.1536C18.1386 12.1437 18.1642 12.1387 18.1902 12.1387C18.2161 12.1387 18.2418 12.1437 18.2657 12.1536C18.2897 12.1635 18.3114 12.178 18.3298 12.1962Z" fill="#E6E6E6"/>
<path id="Vector_14" d="M66.3014 5.75565C66.3014 4.61728 66.6406 3.50448 67.2761 2.55796C67.9117 1.61145 68.8149 0.873729 69.8718 0.438096C70.9286 0.00246261 72.0915 -0.111518 73.2135 0.110566C74.3354 0.33265 75.366 0.880824 76.1748 1.68577C76.9837 2.49072 77.5345 3.51628 77.7577 4.63277C77.9809 5.74926 77.8663 6.90654 77.4286 7.95825C76.9908 9.00996 76.2495 9.90887 75.2984 10.5413C74.3473 11.1738 73.229 11.5113 72.0851 11.5113C70.5517 11.5096 69.0816 10.9026 67.9973 9.82362C66.913 8.74459 66.3031 7.28162 66.3014 5.75565Z" fill="#21B8F9"/>
<path id="Vector_15" d="M69.803 5.18796H71.5146V3.48468C71.5145 3.41004 71.5292 3.33611 71.5578 3.26712C71.5864 3.19813 71.6284 3.13543 71.6814 3.08261C71.7344 3.02979 71.7973 2.98788 71.8666 2.95929C71.9359 2.9307 72.0101 2.91599 72.0851 2.91599C72.1601 2.91599 72.2344 2.9307 72.3037 2.95929C72.373 2.98788 72.4359 3.02979 72.4889 3.08261C72.5419 3.13543 72.5839 3.19813 72.6125 3.26712C72.6411 3.33611 72.6558 3.41004 72.6557 3.48468V5.18796H74.3673C74.5184 5.18831 74.6631 5.24827 74.7698 5.35471C74.8766 5.46115 74.9365 5.60536 74.9365 5.75572C74.9365 5.90607 74.8766 6.05029 74.7698 6.15672C74.6631 6.26316 74.5184 6.32313 74.3673 6.32348H72.6557V8.02677C72.6554 8.17719 72.5952 8.32136 72.4882 8.42764C72.3813 8.53392 72.2363 8.59361 72.0851 8.59361C71.934 8.59361 71.789 8.53392 71.682 8.42764C71.5751 8.32136 71.5149 8.17719 71.5146 8.02677V6.32349H69.803C69.728 6.32366 69.6537 6.3091 69.5843 6.28064C69.5149 6.25219 69.4519 6.21039 69.3988 6.15766C69.3456 6.10492 69.3035 6.04227 69.2748 5.9733C69.246 5.90433 69.2312 5.8304 69.2312 5.75573C69.2312 5.68106 69.246 5.60712 69.2748 5.53815C69.3035 5.46919 69.3456 5.40654 69.3988 5.3538C69.4519 5.30106 69.5149 5.25927 69.5843 5.23081C69.6537 5.20235 69.728 5.1878 69.803 5.18797V5.18796Z" fill="white"/>
</g>
<defs>
<clipPath id="clip0_1_3020">
<rect width="78" height="84" fill="white"/>
</clipPath>
</defs>
</svg>
