<svg width="115" height="84" viewBox="0 0 115 84" fill="none" xmlns="http://www.w3.org/2000/svg">
<g id="undraw_Credit_card_3ed6 (1) 1" clip-path="url(#clip0_1_2842)">
<path id="Vector" d="M82.9951 0.15414L2.90862 24.8723C1.10295 25.4296 0.0939996 27.3353 0.655073 29.1289L15.0626 75.1847C15.6237 76.9782 17.5423 77.9804 19.348 77.4231L99.4344 52.705C101.24 52.1477 102.249 50.2419 101.688 48.4484L87.2804 2.39256C86.7194 0.599007 84.8007 -0.403167 82.9951 0.15414Z" fill="url(#paint0_linear_1_2842)"/>
<path id="Vector_2" d="M82.5804 0.881276L4.2614 25.0539C2.45573 25.6112 1.44678 27.5169 2.00786 29.3105L15.8336 73.5064C16.3946 75.3 18.3133 76.3021 20.1189 75.7448L98.438 51.5722C100.244 51.0149 101.253 49.1092 100.692 47.3156L86.8658 3.1197C86.3047 1.32614 84.3861 0.323969 82.5804 0.881276Z" fill="white"/>
<path id="Vector_3" d="M42.1852 58.593L20.6245 65.2476L21.6079 68.3912L43.1686 61.7366L42.1852 58.593Z" fill="#BDBDBD"/>
<path id="Vector_4" d="M56.3501 48.4043L18.9651 59.9429L19.9485 63.0865L57.3335 51.5479L56.3501 48.4043Z" fill="#E0E0E0"/>
<path id="Vector_5" d="M87.9395 6.55236L3.08154 32.7432L5.35569 40.0128L90.2136 13.822L87.9395 6.55236Z" fill="#21B8F9"/>
<path id="Vector_6" d="M111.076 28.9165H26.7012C24.8104 28.9165 23.2776 30.439 23.2776 32.3172V80.5994C23.2776 82.4775 24.8104 84.0001 26.7012 84.0001H111.076C112.967 84.0001 114.5 82.4775 114.5 80.5994V32.3172C114.5 30.439 112.967 28.9165 111.076 28.9165Z" fill="url(#paint1_linear_1_2842)"/>
<path id="Vector_7" d="M109.75 29.478H27.7369C25.8461 29.478 24.3132 31.0006 24.3132 32.8787V79.1591C24.3132 81.0372 25.8461 82.5598 27.7369 82.5598H109.75C111.641 82.5598 113.173 81.0372 113.173 79.1591V32.8787C113.173 31.0006 111.641 29.478 109.75 29.478Z" fill="white"/>
<path id="Vector_8" opacity="0.1" d="M99.4359 70.9612H89.9742V80.3595H99.4359V70.9612Z" fill="#21B8F9"/>
<path id="Vector_9" opacity="0.1" d="M104.167 70.9612H94.705V80.3595H104.167V70.9612Z" fill="#21B8F9"/>
<path id="Vector_10" d="M91.9463 55.247H89.3571V62.5509H91.9463V55.247Z" fill="#E0E0E0"/>
<path id="Vector_11" d="M88.6321 55.247H86.0429V62.5509H88.6321V55.247Z" fill="#E0E0E0"/>
<path id="Vector_12" d="M85.318 55.247H82.7288V62.5509H85.318V55.247Z" fill="#E0E0E0"/>
<path id="Vector_13" d="M79.5182 55.247H76.9291V62.5509H79.5182V55.247Z" fill="#E0E0E0"/>
<path id="Vector_14" d="M76.2042 55.247H73.6151V62.5509H76.2042V55.247Z" fill="#E0E0E0"/>
<path id="Vector_15" d="M72.8899 55.247H70.3008V62.5509H72.8899V55.247Z" fill="#E0E0E0"/>
<path id="Vector_16" d="M67.0902 55.247H64.501V62.5509H67.0902V55.247Z" fill="#E0E0E0"/>
<path id="Vector_17" d="M63.7762 55.247H61.187V62.5509H63.7762V55.247Z" fill="#E0E0E0"/>
<path id="Vector_18" d="M60.462 55.247H57.8729V62.5509H60.462V55.247Z" fill="#E0E0E0"/>
<path id="Vector_19" d="M54.6623 55.247H52.0732V62.5509H54.6623V55.247Z" fill="#E0E0E0"/>
<path id="Vector_20" d="M51.3481 55.247H48.7589V62.5509H51.3481V55.247Z" fill="#E0E0E0"/>
<path id="Vector_21" d="M48.034 55.247H45.4449V62.5509H48.034V55.247Z" fill="#E0E0E0"/>
<path id="Vector_22" d="M45.4044 43.3848H29.9668V51.7938H45.4044V43.3848Z" fill="#21B8F9"/>
</g>
<defs>
<linearGradient id="paint0_linear_1_2842" x1="51.342" y1="77.7213" x2="51.6821" y2="-0.141247" gradientUnits="userSpaceOnUse">
<stop stop-color="#808080" stop-opacity="0.25"/>
<stop offset="0.53514" stop-color="#808080" stop-opacity="0.12"/>
<stop offset="1" stop-color="#808080" stop-opacity="0.1"/>
</linearGradient>
<linearGradient id="paint1_linear_1_2842" x1="50133.8" y1="37445.9" x2="50133.8" y2="12909.4" gradientUnits="userSpaceOnUse">
<stop stop-color="#808080" stop-opacity="0.25"/>
<stop offset="0.53514" stop-color="#808080" stop-opacity="0.12"/>
<stop offset="1" stop-color="#808080" stop-opacity="0.1"/>
</linearGradient>
<clipPath id="clip0_1_2842">
<rect width="114" height="84" fill="white" transform="translate(0.5)"/>
</clipPath>
</defs>
</svg>
