<svg width="91" height="84" viewBox="0 0 91 84" fill="none" xmlns="http://www.w3.org/2000/svg">
<g id="undraw_social_girl_562b 1" clip-path="url(#clip0_1_2985)">
<path id="Vector" d="M84.5175 49.8689C86.3174 45.2356 87.0519 40.2423 86.6643 35.2736C86.2767 30.3048 84.7774 25.4932 82.2819 21.2092L31.3187 28.4142L80.1577 18.0216C77.1863 14.0717 73.3646 10.8731 68.9883 8.67317C64.6121 6.47327 59.7987 5.33116 54.9208 5.33525C37.3338 5.33525 23.0766 19.8925 23.0766 37.8498C23.077 39.334 23.176 40.8163 23.373 42.2868L84.5175 49.8689Z" fill="#F2F2F2"/>
<path id="Vector_2" d="M25.2052 49.5564C29.808 61.7289 41.376 70.3644 54.9209 70.3644C67.6308 70.3644 78.6001 62.7606 83.7073 51.766L25.2052 49.5564Z" fill="#F2F2F2"/>
<path id="Vector_3" d="M82.9203 60.8649C82.9203 73.6425 64.4694 84 41.7101 84C29.4832 84 18.5001 81.0112 10.9536 76.2628C6.02965 73.1656 2.56801 69.3187 1.17934 65.0676C0.73117 63.7136 0.501724 62.2941 0.5 60.8649C0.5 48.0886 34.6507 -9.54383 41.7101 37.7311C48.7696 85.006 82.9203 48.0886 82.9203 60.8649Z" fill="#21B8F9"/>
<path id="Vector_4" opacity="0.1" d="M62.1904 69.255C62.1904 73.9728 47.5982 77.798 29.5969 77.798C22.6636 77.798 16.2361 77.2306 10.9537 76.2628C6.02969 73.1656 2.56804 69.3187 1.17938 65.0676C6.76772 62.4677 17.3999 60.7119 29.5969 60.7119C47.5982 60.7119 62.1904 64.5371 62.1904 69.255Z" fill="#103B66"/>
<path id="Vector_5" d="M21.7672 59.6214C21.6714 60.1078 21.6005 60.6023 21.4377 61.0697C21.276 61.5338 21.0265 61.963 20.8787 62.4319C20.4076 63.9264 21.0607 65.5928 22.1038 66.7465C23.0083 67.7429 24.1759 68.4508 25.4657 68.7848C26.4066 69.0264 27.3851 69.0612 28.3548 69.0948C31.04 69.1878 33.7944 69.2709 36.3388 68.3898C37.1427 68.1046 37.9191 67.7444 38.6584 67.3138C38.8918 67.2003 39.0974 67.035 39.2602 66.83C39.4543 66.5479 39.4791 66.182 39.4774 65.8373C39.4717 64.675 39.241 63.5186 39.2957 62.3576C39.3261 61.7145 39.444 61.072 39.386 60.4309C39.2544 58.977 38.1236 57.6757 36.7255 57.3692C36.0037 57.2109 35.2551 57.2971 34.5202 57.3693C32.6127 57.5564 30.6971 57.6439 28.7808 57.6313C26.8229 57.6186 24.8771 57.3134 22.9289 57.2815C22.3528 57.2721 22.3644 57.4534 22.181 58.0228C22.012 58.5468 21.8739 59.0806 21.7672 59.6214Z" fill="#2F2E41"/>
<path id="Vector_6" d="M38.6634 20.5938C36.0803 16.1373 30.9699 15.9297 30.9699 15.9297C30.9699 15.9297 25.9901 15.2794 22.7956 22.0667C19.8181 28.393 15.7087 34.5012 22.134 35.9821L23.2946 32.2937L24.0134 36.2567C24.9282 36.3239 25.846 36.3399 26.7626 36.3047C33.6436 36.0778 40.1967 36.371 39.9857 33.8499C39.7052 30.4983 41.1488 24.8818 38.6634 20.5938Z" fill="#2F2E41"/>
<path id="Vector_7" d="M27.3236 30.921C27.2296 31.4241 27.1279 31.9455 26.8318 32.3589C26.4912 32.8345 25.9358 33.1063 25.5693 33.5614C25.0178 34.2466 24.9861 35.2107 24.9838 36.0975C24.9817 36.9146 24.998 37.786 25.4442 38.4642C25.7338 38.9043 26.1745 39.2129 26.6051 39.5092C28.2785 40.6607 30.0868 41.8329 32.1044 41.8708C32.9404 41.8866 33.8368 41.6661 34.3868 41.0232C34.6243 40.7212 34.811 40.381 34.9394 40.0165C35.4553 38.7181 35.768 37.3449 35.8661 35.9472C35.9121 35.2896 35.9077 34.6129 35.6897 33.9924C35.4446 33.2946 34.949 32.7205 34.6215 32.0589C34.2343 31.2722 34.0927 30.3833 34.2157 29.5119C34.232 29.4505 34.227 29.3853 34.2015 29.3273C34.1745 29.2962 34.1409 29.272 34.1033 29.2564C34.0656 29.2408 34.025 29.2344 33.9845 29.2375L29.9839 28.9434C29.6113 28.9245 29.2403 28.8812 28.8731 28.8137C28.6575 28.7689 28.0878 28.4562 27.8822 28.5393C27.5016 28.6933 27.4017 30.5039 27.3236 30.921Z" fill="#A0616A"/>
<path id="Vector_8" opacity="0.1" d="M27.3236 31.0487C27.2296 31.5517 27.1279 32.0732 26.8318 32.4866C26.4912 32.9622 25.9358 33.2339 25.5693 33.6891C25.0178 34.3742 24.9861 35.3383 24.9838 36.2252C24.9817 37.0422 24.998 37.9137 25.4442 38.5919C25.7338 39.032 26.1745 39.3406 26.6051 39.6369C28.2785 40.7884 30.0868 41.9605 32.1044 41.9985C32.9404 42.0142 33.8368 41.7938 34.3868 41.1509C34.6243 40.8489 34.811 40.5087 34.9394 40.1442C35.4553 38.8457 35.768 37.4725 35.8661 36.0749C35.9121 35.4173 35.9077 34.7406 35.6897 34.12C35.4446 33.4223 34.949 32.8481 34.6215 32.1866C34.2343 31.3999 34.0927 30.5109 34.2157 29.6395C34.232 29.5782 34.227 29.5129 34.2015 29.455C34.1745 29.4239 34.1409 29.3997 34.1033 29.3841C34.0656 29.3685 34.025 29.362 33.9845 29.3652L29.9839 29.0711C29.6113 29.0522 29.2403 29.0089 28.8731 28.9414C28.6575 28.8966 28.0878 28.5838 27.8822 28.667C27.5016 28.8209 27.4017 30.6316 27.3236 31.0487Z" fill="#103B66"/>
<path id="Vector_9" d="M28.1468 38.8986C28.4527 39.2251 28.7768 39.5483 29.1777 39.7397C29.5764 39.9301 30.0256 39.9774 30.4656 39.9901C31.5236 40.0205 32.6706 39.8225 33.4065 39.0459C34.3553 38.0447 34.324 36.43 35.0677 35.2621C35.1276 35.1562 35.2094 35.0649 35.3073 34.9945C35.4321 34.9251 35.573 34.892 35.7149 34.8988C36.6541 34.8898 37.4722 35.5118 38.2106 36.1045C38.5414 36.37 38.8804 36.6451 39.089 37.0182C39.235 37.3091 39.335 37.6217 39.3853 37.9445C39.7517 39.7708 39.8704 41.6381 39.9881 43.4985C40.0532 44.526 40.1183 45.5546 40.1134 46.5843C40.0975 49.9767 39.3252 53.3124 38.5573 56.6129C38.4584 57.0382 38.3229 57.5136 37.9442 57.7173C37.7753 57.7948 37.594 57.84 37.4091 57.8506C35.2096 58.1144 33.0055 58.3785 30.7911 58.4133C29.9269 58.4269 29.0631 58.4055 28.1997 58.3492C28.0511 58.3472 27.9037 58.321 27.7632 58.2715C27.5725 58.178 27.4086 58.0359 27.2873 57.8588C26.0895 56.3177 26.0188 54.187 26.0264 52.2196C26.0452 47.4093 26.2135 42.6029 26.5314 37.8003C26.5577 37.4039 26.5634 36.9225 26.2836 36.6107C26.7873 37.434 27.4879 38.1954 28.1468 38.8986Z" fill="#D0CDE1"/>
<path id="Vector_10" d="M31.1494 31.4688C34.391 31.4688 37.0188 28.7857 37.0188 25.4759C37.0188 22.1661 34.391 19.483 31.1494 19.483C27.9079 19.483 25.2801 22.1661 25.2801 25.4759C25.2801 28.7857 27.9079 31.4688 31.1494 31.4688Z" fill="#A0616A"/>
<path id="Vector_11" d="M26.9036 31.9789C26.7054 32.3453 25.2439 33.2551 24.9617 33.5588C23.3853 35.2554 20.508 35.1918 19.0663 37.009C18.559 37.6484 18.2955 38.4517 18.1016 39.2504C17.8275 40.38 17.6811 41.6119 18.1403 42.677C18.5822 43.7019 19.5125 44.4104 20.144 45.3259C20.8375 46.3311 21.1493 47.5515 21.4481 48.7426C21.6687 49.622 21.8911 50.5233 21.8052 51.4268C21.7075 52.4542 21.2206 53.3949 20.9331 54.3844C20.6457 55.374 20.596 56.5526 21.2607 57.3303C21.7491 57.9016 22.515 58.1281 23.2471 58.2555C24.1816 58.4182 25.1313 58.4645 26.0783 58.5072C26.9152 58.5449 27.8378 58.5523 28.4811 58.0045C28.9888 57.5722 29.2094 56.8708 29.238 56.1965C29.2666 55.5222 29.1292 54.8539 29.0431 54.1847C28.9539 53.491 28.9196 52.7912 28.8909 52.0922C28.7622 48.9557 28.7446 45.8171 28.8382 42.6766C28.8577 42.0231 28.8813 41.3615 28.7449 40.7228C28.5654 39.8827 28.1207 39.1319 27.7497 38.3599C27.0132 36.8278 26.6649 35.3394 26.7787 33.6365C26.8911 31.9557 27.609 30.6751 26.9036 31.9789Z" fill="#575A89"/>
<path id="Vector_12" d="M14.111 58.6767C13.5845 58.5416 13.0421 58.4827 12.4995 58.5018C11.9295 58.534 11.3726 58.6897 10.8661 58.9586C10.3596 59.2275 9.91488 59.6035 9.56165 60.0614C9.20841 60.5194 8.95471 61.0489 8.81741 61.6147C8.68011 62.1806 8.66236 62.7698 8.76534 63.3431C8.87743 63.9672 9.12925 64.5557 9.40392 65.1248C9.83129 66.0104 10.3439 66.8939 11.1351 67.4615C11.5979 67.7934 12.1336 68.0004 12.6629 68.204L16.8299 69.8068C17.4429 70.0426 18.0561 70.2785 18.6751 70.4971C21.7854 71.5948 25.028 72.253 28.313 72.4535C29.3136 72.5143 30.3293 72.5312 31.3054 72.2987C31.5371 72.2435 31.7842 72.1612 31.9183 71.9606C31.9977 71.8193 32.0445 71.6614 32.0552 71.4988L32.3116 69.6659C32.3477 69.4078 32.3825 69.1362 32.2898 68.8932C32.1724 68.5852 31.8779 68.3914 31.5972 68.2268C28.8576 66.6202 25.6589 65.7339 23.353 63.5289C22.8101 63.0098 22.3559 62.1869 21.6963 61.8343C20.9484 61.4345 20.0675 61.2063 19.2945 60.8378C17.6044 60.0323 15.9427 59.1067 14.111 58.6767Z" fill="#2F2E41"/>
<path id="Vector_13" d="M36.6463 73.4041C36.7299 73.4104 36.8129 73.3855 36.8798 73.334C36.9092 73.2955 36.9307 73.2514 36.9433 73.2043C36.9558 73.1572 36.959 73.108 36.9528 73.0596C36.9505 72.2273 36.9482 71.3949 36.9459 70.5626C36.2427 70.2205 35.4561 70.1108 34.6839 70.0054L31.0813 69.5138C31.1641 69.5251 30.5181 71.0981 30.6171 71.3081C30.7917 71.6782 32.126 72.0063 32.5026 72.181C33.8116 72.7886 35.1719 73.4565 36.6463 73.4041Z" fill="#A0616A"/>
<path id="Vector_14" d="M25.3432 70.5539C24.663 70.6645 23.9038 70.7623 23.4633 71.3029C22.9047 71.9885 23.1425 73.0106 23.409 73.8599C23.4486 74.0317 23.528 74.1913 23.6407 74.3252C23.8225 74.5084 24.1012 74.5352 24.3562 74.5517C24.9765 74.5918 25.6367 74.6232 26.1787 74.3126C26.4354 74.1654 26.6475 73.9504 26.8867 73.7752C27.2863 73.5037 27.7257 73.2986 28.1883 73.1676C29.0388 72.8945 29.9142 72.7102 30.8012 72.6178C31.1488 72.5816 31.5034 72.5583 31.8305 72.4325C32.1575 72.3068 32.4604 72.0573 32.5554 71.714C32.6809 71.2602 32.4226 70.7975 32.1749 70.3996C31.8663 69.9038 31.5394 69.3818 31.0792 69.0169C30.408 68.4845 30.0759 68.8932 29.3997 69.2339C28.1199 69.8788 26.7525 70.3238 25.3432 70.5539Z" fill="#A0616A"/>
<path id="Vector_15" d="M23.5656 71.1793L19.2466 69.8759C18.7213 69.7174 18.187 69.5575 17.6393 69.5579C17.0916 69.5583 16.5185 69.7417 16.1633 70.1674C15.8283 70.5687 15.7325 71.1173 15.649 71.6376L15.4704 72.7507C15.3796 73.3163 15.2887 73.8928 15.3704 74.4599C15.4521 75.027 15.7356 75.5936 16.2284 75.8681C16.8261 76.2011 17.5586 76.0384 18.2256 75.8992C19.573 75.618 20.9434 75.4679 22.3186 75.451C22.8355 75.4447 23.3778 75.4513 23.8346 75.2041C24.3776 74.9103 24.7024 74.2889 24.7583 73.664C24.8433 72.7132 24.5329 71.4713 23.5656 71.1793Z" fill="#2F2E41"/>
<path id="Vector_16" d="M38.3441 70.0436C38.904 69.9434 39.3981 69.6185 39.9346 69.4267C40.6898 69.1568 41.5081 69.1568 42.3082 69.1598C42.6019 69.1609 42.9147 69.1676 43.1592 69.3338C43.5116 69.5734 43.602 70.0528 43.6619 70.4807C43.7824 71.3414 43.9029 72.2021 44.0234 73.0627C44.0914 73.5484 44.159 74.047 44.053 74.5255C43.9469 75.004 43.6275 75.4653 43.1625 75.5887C42.5977 75.7386 42.044 75.3702 41.5108 75.1282C40.178 74.5234 38.6286 74.678 37.2389 74.226C36.981 74.1421 36.7048 74.0138 36.5996 73.7592C36.5521 73.6157 36.5351 73.4636 36.5499 73.313C36.5737 72.483 36.4022 71.3498 36.6469 70.5566C36.867 69.8433 37.7191 70.0436 38.3441 70.0436Z" fill="#2F2E41"/>
<path id="Vector_17" opacity="0.1" d="M18.2712 61.1476C19.744 61.6188 25.9625 64.8836 27.0284 66.0235C26.8855 66.076 22.0381 63.3023 21.8927 63.2577C20.5705 62.8525 19.241 62.4447 17.9854 61.8518C17.7328 61.7325 16.3444 61.1718 16.4073 60.8464C16.4782 60.4792 18.0097 61.0639 18.2712 61.1476Z" fill="#103B66"/>
<path id="Vector_18" d="M19.0513 39.9062C18.658 40.7395 18.0005 41.4495 17.7767 42.3459C17.6896 42.7648 17.6523 43.193 17.6655 43.621C17.6602 44.2662 17.6568 44.9244 17.8508 45.5384C17.9757 45.9337 18.1789 46.2983 18.3253 46.6858C18.5294 47.2272 18.6203 47.8063 18.5922 48.3857C18.5527 49.1884 18.2856 49.9676 18.2648 50.7711C18.2319 52.0346 18.8043 53.2224 19.3628 54.3504C19.5034 53.995 19.7183 53.6752 19.9925 53.4134C20.2668 53.1517 20.5938 52.9543 20.9505 52.835C21.3073 52.7157 21.6853 52.6775 22.0581 52.723C22.4309 52.7684 22.7894 52.8965 23.1086 53.0983C23.256 52.9593 23.2717 52.7312 23.2775 52.5265C23.3187 51.0606 23.3586 49.5947 23.3969 48.1288C23.4574 45.8616 23.515 43.5641 23.0042 41.3568C22.7736 40.3602 22.4147 39.3675 21.7569 38.5945C21.4105 38.1875 20.2346 37.1154 19.666 37.5714C19.4103 37.7765 19.47 38.3346 19.4295 38.6172C19.3684 39.064 19.2408 39.4987 19.0513 39.9062Z" fill="#575A89"/>
<path id="Vector_19" d="M35.1456 32.1063C35.4475 32.4232 36.4735 32.5277 36.8576 32.7317C37.2105 32.9192 37.6009 33.0171 37.9831 33.1296C39.3841 33.5423 40.7168 34.1668 41.9367 34.9824C42.1902 35.1338 42.4143 35.3314 42.5979 35.5655C42.8128 35.8707 42.8908 36.2515 42.9636 36.62C43.1517 37.5712 43.3407 38.5339 43.2984 39.5034C43.2536 40.5325 42.95 41.5291 42.6488 42.5122L41.5235 46.1856C40.6835 48.9276 39.8382 51.6965 39.6019 54.5593C39.4711 56.146 39.5292 57.7429 39.775 59.3153C39.7997 59.4734 39.8205 59.6545 39.7182 59.7759C39.6441 59.8507 39.5465 59.8966 39.4427 59.9054C38.8995 59.9921 38.3739 59.7093 37.8818 59.4591C36.3778 58.6949 34.7726 58.1586 33.117 57.8672C33.764 56.9126 34.2631 55.862 34.597 54.7522C34.7865 54.0476 34.9358 53.3323 35.0441 52.6099L35.5676 49.5185C35.7595 48.3849 35.9518 47.2483 36.0166 46.0998C36.0562 45.6693 36.0317 45.2351 35.9438 44.812C35.8435 44.4039 35.6442 44.0299 35.4657 43.6507C34.6029 41.8183 34.1981 39.7273 34.5376 37.7239C34.6861 36.8472 34.9748 35.9693 34.8544 35.0881C34.7387 34.2408 34.859 33.5824 34.6461 32.7439C33.7719 29.3012 34.5775 31.5102 35.1456 32.1063Z" fill="#575A89"/>
<path id="Vector_20" d="M47.4841 57.6373C48.3471 57.4163 49.2418 57.3539 50.1262 57.453C50.8325 57.5324 51.5602 57.7331 52.0759 58.2323C52.7036 58.8399 52.9053 59.7795 52.9221 60.6624C52.9497 62.421 52.3785 64.1349 51.306 65.5112C51.0441 65.8593 50.7326 66.1654 50.382 66.4194C50.0037 66.661 49.6005 66.8594 49.1798 67.0109L39.8478 70.7692C37.3928 71.7579 34.9291 72.7495 32.3684 73.4013C32.2984 73.4358 32.2223 73.4557 32.1447 73.4598C32.067 73.4638 31.9894 73.4519 31.9163 73.4249C31.8432 73.3978 31.7762 73.3561 31.7191 73.3022C31.662 73.2483 31.6161 73.1833 31.584 73.111C30.7664 71.9185 30.0804 70.6373 29.5387 69.2908C29.5131 69.2588 29.4953 69.221 29.487 69.1805C29.4787 69.14 29.4801 69.0981 29.491 69.0583C29.502 69.0185 29.5221 68.9819 29.5498 68.9518C29.5775 68.9216 29.6119 68.8987 29.6501 68.8849L36.2507 65.0126C36.7235 64.7352 37.2016 64.4539 37.5941 64.0675C37.8794 63.7852 38.113 63.4532 38.2839 63.087C38.4207 62.7952 38.4335 62.1066 38.6082 61.891C38.7793 61.6798 39.3647 61.6629 39.635 61.5799C40.0163 61.4606 40.3896 61.3165 40.7528 61.1484C42.2293 60.474 43.5441 59.4941 44.9595 58.7044C45.7534 58.2409 46.6017 57.8824 47.4841 57.6373Z" fill="#2F2E41"/>
<path id="Vector_21" opacity="0.1" d="M43.7422 60.5293C42.6082 61.399 41.1399 62.1984 40.016 63.0909C39.6324 63.3956 33.238 67.0662 33.1476 67.5537C34.1962 67.7341 40.8755 62.963 41.8311 62.487C42.7868 62.0109 43.6339 61.3395 44.4734 60.6731C44.6873 60.5033 45.5939 59.9927 44.9798 59.803C44.6339 59.6961 43.9976 60.3555 43.7422 60.5293Z" fill="#103B66"/>
<path id="Vector_22" d="M43.4134 37.5046C43.5995 38.096 43.6106 38.728 43.6143 39.3493C43.6218 40.6165 43.6054 41.8835 43.5649 43.1504C43.5442 43.7989 43.5157 44.4564 43.3231 45.0748C43.1961 45.4826 43.0001 45.8651 42.8689 46.2715C42.4758 47.4896 42.6906 48.8107 42.7243 50.0928C42.7481 50.5077 42.7134 50.924 42.6213 51.3289C42.4138 52.1237 41.8563 52.7659 41.4672 53.4861C41.0976 54.17 40.8746 54.9367 40.4332 55.5748C39.9918 56.2128 39.2277 56.7184 38.4871 56.5225C37.9259 56.3741 37.5272 55.8669 37.2514 55.3463C36.6495 54.2017 36.4437 52.8832 36.6672 51.6042C36.9441 50.0482 37.8393 48.6677 38.1621 47.1209C38.6054 44.9968 37.9317 42.8049 37.9517 40.6333C37.9426 40.2928 37.9878 39.9532 38.0856 39.6276C38.2549 39.1315 38.6186 38.7354 38.9546 38.3375C39.3745 37.8404 39.7645 37.3177 40.1226 36.7725C40.3631 36.4062 40.6898 35.4641 41.1162 35.3858C42.0683 35.2109 43.1772 36.7535 43.4134 37.5046Z" fill="#575A89"/>
<path id="Vector_23" d="M35.9393 32.1907H25.9849C25.5805 32.1907 25.1926 32.3547 24.9067 32.6467C24.6207 32.9387 24.46 33.3347 24.46 33.7477V34.3178H24.3519V35.5929H24.46V36.4855H24.3519V37.2505H24.46V46.6588C24.46 47.0717 24.6207 47.4678 24.9067 47.7598C25.1926 48.0517 25.5805 48.2158 25.9849 48.2158H35.9393C36.3437 48.2158 36.7316 48.0517 37.0176 47.7598C37.3035 47.4678 37.4642 47.0717 37.4642 46.6588V33.7477C37.4642 33.3347 37.3035 32.9387 37.0176 32.6467C36.7316 32.3547 36.3437 32.1907 35.9393 32.1907Z" fill="#3F3D56"/>
<path id="Vector_24" d="M20.3722 56.7948C20.6217 57.1751 20.9139 57.547 21.3146 57.7521C21.8153 58.0085 22.4333 57.9627 22.9347 57.7078C23.4317 57.4357 23.8386 57.0192 24.1038 56.5109C24.6525 55.5216 24.7662 54.3377 24.6977 53.2029C24.6292 52.0681 24.3919 50.9507 24.2869 49.8188C24.2105 48.996 24.2043 48.1683 24.1982 47.3418C24.1969 47.1681 24.1996 46.981 24.3001 46.8409C24.4217 46.6714 24.6442 46.6247 24.8414 46.5649C25.9488 46.229 26.6839 45.1691 27.2108 44.1194C27.5627 43.4185 27.8687 42.6523 27.8009 41.8677C27.733 41.0831 27.1807 40.2927 26.4133 40.2127C25.7806 40.1467 25.1964 40.557 24.74 41.0092C23.5888 42.1572 22.8489 43.667 22.6392 45.2961C22.5391 46.0938 22.5678 46.9133 22.3553 47.6878C21.9015 49.3414 20.4818 50.3552 19.7743 51.8432C18.9948 53.4828 19.425 55.3441 20.3722 56.7948Z" fill="#A0616A"/>
<path id="Vector_25" d="M83.8098 39.1255C82.4866 39.1255 81.1932 39.5262 80.093 40.2768C78.9928 41.0274 78.1353 42.0942 77.6289 43.3424C77.1226 44.5906 76.9901 45.9641 77.2482 47.2892C77.5064 48.6143 78.1435 49.8315 79.0792 50.7868C80.0148 51.7421 81.2069 52.3927 82.5046 52.6563C83.8024 52.9199 85.1476 52.7846 86.37 52.2676C87.5925 51.7505 88.6374 50.875 89.3725 49.7516C90.1076 48.6283 90.5 47.3076 90.5 45.9565C90.5 45.0595 90.3269 44.1712 89.9907 43.3424C89.6545 42.5137 89.1617 41.7606 88.5405 41.1263C87.9192 40.492 87.1817 39.9888 86.37 39.6455C85.5584 39.3022 84.6884 39.1255 83.8098 39.1255ZM87.1162 44.224C87.1197 44.2978 87.1215 44.3734 87.1215 44.4489C87.1215 46.7535 85.4053 49.4108 82.2637 49.4108C81.3368 49.4128 80.4293 49.139 79.6524 48.6228C79.7875 48.6393 79.9234 48.6477 80.0595 48.648C80.8281 48.6493 81.5748 48.3863 82.1791 47.9013C81.8229 47.8945 81.4776 47.7741 81.1917 47.557C80.9058 47.3399 80.6935 47.0369 80.5845 46.6906C80.6901 46.7123 80.7975 46.7231 80.9052 46.7229C81.057 46.7229 81.2081 46.7023 81.3545 46.6618C80.9682 46.582 80.6207 46.3683 80.3712 46.0567C80.1217 45.7452 79.9854 45.3551 79.9855 44.9527V44.9311C80.2226 45.0672 80.4888 45.1419 80.7607 45.1488C80.3988 44.9024 80.1425 44.5245 80.044 44.092C79.9455 43.6595 80.0121 43.2049 80.2304 42.8208C80.6582 43.3599 81.1925 43.8008 81.7985 44.1148C82.4045 44.4288 83.0685 44.6089 83.7473 44.6432C83.7174 44.5129 83.7026 44.3795 83.7032 44.2456C83.7028 43.896 83.8055 43.5544 83.9979 43.2653C84.1902 42.9761 84.4634 42.7527 84.7818 42.6242C85.1002 42.4957 85.4491 42.4681 85.7831 42.5448C86.1171 42.6216 86.4208 42.7992 86.6545 43.0546C87.0369 42.9783 87.4034 42.8353 87.7382 42.6319C87.6108 43.0356 87.3441 43.3784 86.9876 43.5962C87.3256 43.5543 87.6558 43.4615 87.9672 43.3209C87.7383 43.6712 87.4501 43.977 87.1162 44.224Z" fill="#3F3D56"/>
<path id="Vector_26" d="M31.0954 39.0355C31.7851 39.0355 32.3442 38.4647 32.3442 37.7604C32.3442 37.0562 31.7851 36.4854 31.0954 36.4854C30.4057 36.4854 29.8466 37.0562 29.8466 37.7604C29.8466 38.4647 30.4057 39.0355 31.0954 39.0355Z" fill="#D0CDE1"/>
<path id="Vector_27" d="M41.2637 50.4773C41.1023 50.8608 40.8672 51.2074 40.5724 51.4966C40.2777 51.7859 39.9291 52.0118 39.5474 52.1613C39.0729 52.3559 38.5495 52.3886 38.0553 52.2546C37.8102 52.1851 37.5841 52.059 37.3945 51.8858C37.2049 51.7127 37.057 51.4973 36.9622 51.2563C36.8866 51.0136 36.8451 50.7611 36.8391 50.5065C36.7681 49.3913 36.7955 48.2422 37.1922 47.2007C37.3452 46.799 37.5515 46.4181 37.6723 46.0051C37.81 45.534 37.832 45.037 37.8531 44.5458L37.9835 41.5032C38.005 41.2823 37.9901 41.0593 37.9392 40.8435C37.8091 40.4032 37.4062 40.1171 37.0364 39.8546C36.1434 39.2205 35.261 38.4806 34.8283 37.4617C34.6959 37.1499 34.6085 36.8034 34.6757 36.4705C34.7977 35.8664 35.3949 35.4752 35.9851 35.3434C36.3713 35.2572 36.7706 35.2517 37.1589 35.3273C37.5472 35.4028 37.9166 35.5578 38.2447 35.783C38.5727 36.0082 38.8528 36.2988 39.0679 36.6374C39.2831 36.9761 39.4288 37.3557 39.4965 37.7533C39.5549 38.0967 39.5541 38.4474 39.5882 38.7942C39.6607 39.5297 39.8894 40.2388 40.0325 40.9635C40.3849 42.7485 40.2023 44.5938 40.5508 46.3785C40.8422 47.8708 41.9409 48.8445 41.2637 50.4773Z" fill="#A0616A"/>
<path id="Vector_28" d="M81.6586 21.339C82.3151 21.339 82.8474 20.7955 82.8474 20.1252C82.8474 19.4548 82.3151 18.9113 81.6586 18.9113C81.002 18.9113 80.4698 19.4548 80.4698 20.1252C80.4698 20.7955 81.002 21.339 81.6586 21.339Z" fill="#3F3D56"/>
<path id="Vector_29" d="M37.5214 20.1641L32.4725 17.4638L25.5003 18.5685L24.0579 25.0738L27.6487 24.9327L28.6519 22.5428V24.8934L30.3088 24.8283L31.2705 21.0234L31.8715 25.0738L37.7618 24.951L37.5214 20.1641Z" fill="#2F2E41"/>
<path id="Vector_30" d="M83.1447 17.0905H80.1726C79.7789 17.0917 79.4016 17.2519 79.1232 17.5362C78.8447 17.8205 78.6878 18.2058 78.6866 18.6078V21.6424C78.6878 22.0444 78.8447 22.4297 79.1232 22.714C79.4016 22.9982 79.7789 23.1585 80.1726 23.1597H83.1447C83.5384 23.1585 83.9157 22.9982 84.1941 22.7139C84.4726 22.4297 84.6295 22.0444 84.6307 21.6424V18.6078C84.6295 18.2058 84.4726 17.8205 84.1941 17.5362C83.9157 17.2519 83.5384 17.0917 83.1447 17.0905H83.1447ZM81.6586 21.9458C81.306 21.9458 80.9612 21.839 80.668 21.639C80.3747 21.4389 80.1462 21.1545 80.0112 20.8219C79.8762 20.4892 79.8409 20.1231 79.9097 19.7699C79.9785 19.4167 80.1484 19.0923 80.3977 18.8376C80.6471 18.583 80.9649 18.4096 81.3108 18.3393C81.6567 18.2691 82.0152 18.3051 82.3411 18.4429C82.6669 18.5807 82.9454 18.8141 83.1413 19.1135C83.3373 19.413 83.4419 19.765 83.4419 20.1251C83.4417 20.6079 83.2538 21.071 82.9194 21.4124C82.585 21.7538 82.1315 21.9457 81.6586 21.9458ZM83.5904 18.6078C83.5023 18.6078 83.4161 18.5811 83.3428 18.5311C83.2695 18.4811 83.2123 18.41 83.1786 18.3268C83.1448 18.2436 83.136 18.1521 83.1532 18.0638C83.1704 17.9755 83.2129 17.8944 83.2752 17.8307C83.3376 17.7671 83.417 17.7237 83.5035 17.7062C83.59 17.6886 83.6796 17.6976 83.7611 17.7321C83.8425 17.7665 83.9121 17.8249 83.9611 17.8997C84.0101 17.9746 84.0363 18.0626 84.0363 18.1526C84.0364 18.2124 84.025 18.2717 84.0026 18.327C83.9803 18.3823 83.9474 18.4325 83.906 18.4748C83.8646 18.5171 83.8154 18.5506 83.7612 18.5735C83.7071 18.5963 83.649 18.6079 83.5904 18.6078V18.6078Z" fill="#3F3D56"/>
<path id="Vector_31" d="M81.5823 12.9876C80.1874 12.9876 78.8238 13.41 77.664 14.2013C76.5041 14.9926 75.6001 16.1172 75.0663 17.4331C74.5325 18.749 74.3928 20.1969 74.665 21.5939C74.9371 22.9908 75.6088 24.2739 76.5952 25.2811C77.5815 26.2882 78.8382 26.9741 80.2064 27.2519C81.5745 27.5298 82.9926 27.3872 84.2813 26.8421C85.5701 26.2971 86.6716 25.3741 87.4466 24.1898C88.2215 23.0055 88.6352 21.6132 88.6352 20.189C88.6352 19.2433 88.4528 18.3068 88.0983 17.4331C87.7439 16.5594 87.2244 15.7655 86.5694 15.0968C85.9145 14.4281 85.137 13.8977 84.2813 13.5358C83.4256 13.1739 82.5085 12.9876 81.5823 12.9876ZM85.225 21.6425C85.2234 22.2053 85.0037 22.7447 84.6139 23.1427C84.2241 23.5407 83.6959 23.765 83.1446 23.7667H80.1726C79.6214 23.765 79.0931 23.5407 78.7033 23.1427C78.3135 22.7447 78.0938 22.2053 78.0922 21.6425V18.6079C78.0938 18.045 78.3135 17.5057 78.7033 17.1077C79.0931 16.7097 79.6214 16.4854 80.1726 16.4837H83.1446C83.6959 16.4854 84.2241 16.7097 84.6139 17.1077C85.0037 17.5057 85.2234 18.045 85.225 18.6079L85.225 21.6425Z" fill="#3F3D56"/>
<path id="Vector_32" d="M52.9735 0C51.601 0 50.2593 0.41557 49.1181 1.19416C47.9768 1.97275 47.0874 3.07939 46.5621 4.37413C46.0369 5.66888 45.8995 7.09358 46.1672 8.46808C46.435 9.84257 47.0959 11.1051 48.0665 12.0961C49.037 13.087 50.2735 13.7619 51.6197 14.0353C52.9658 14.3087 54.3611 14.1684 55.6292 13.6321C56.8972 13.0958 57.9811 12.1876 58.7436 11.0223C59.5061 9.8571 59.9131 8.48715 59.9131 7.08572C59.9131 6.15521 59.7336 5.23381 59.3849 4.37413C59.0361 3.51445 58.525 2.73333 57.8806 2.07536C57.2362 1.41739 56.4711 0.895459 55.6292 0.539368C54.7872 0.183278 53.8848 0 52.9735 0ZM55.1617 4.2875H54.2733C53.6668 4.2875 53.5511 4.58043 53.5511 5.0121V5.92943H54.9956L54.8068 7.36837H53.5511V11.2741H51.9405V7.36837H50.7854V5.92943H51.9405V4.86565C51.9405 3.59116 52.8062 2.89738 53.921 2.89738C54.4545 2.89738 55.0283 2.9385 55.1617 2.95648L55.1617 4.2875Z" fill="#3F3D56"/>
</g>
<defs>
<clipPath id="clip0_1_2985">
<rect width="90" height="84" fill="white" transform="translate(0.5)"/>
</clipPath>
</defs>
</svg>
