<svg width="148" height="86" viewBox="0 0 148 86" fill="none" xmlns="http://www.w3.org/2000/svg">
<g id="undraw_discount_d4bd 1" clip-path="url(#clip0_1_3289)">
<path id="Vector" d="M82.3234 67.6083C82.4418 67.5183 82.4407 67.3173 82.3209 67.1595C82.2011 67.0016 82.008 66.9466 81.8895 67.0367C81.7711 67.1267 81.7722 67.3277 81.892 67.4855C82.0118 67.6434 82.2049 67.6984 82.3234 67.6083Z" fill="#FBBEBE"/>
<g id="Group" opacity="0.1">
<path id="Vector_2" opacity="0.1" d="M28.5912 80.7254C29.5524 80.7254 30.3315 79.7044 30.3315 78.4449C30.3315 77.1854 29.5524 76.1645 28.5912 76.1645C27.6301 76.1645 26.851 77.1854 26.851 78.4449C26.851 79.7044 27.6301 80.7254 28.5912 80.7254Z" fill="#3F3D56"/>
<path id="Vector_3" opacity="0.1" d="M29.9756 68.6893C30.2185 68.2652 30.3441 67.784 30.3394 67.2952C30.3394 66.0357 29.5625 65.0147 28.5978 65.0147C27.6332 65.0147 26.8576 66.0357 26.8576 67.2952C26.8525 67.7839 26.9777 68.2651 27.2201 68.6893C26.9825 69.1153 26.8577 69.595 26.8577 70.0829C26.8577 70.5707 26.9825 71.0505 27.2201 71.4764C26.9825 71.9023 26.8577 72.3821 26.8577 72.8699C26.8577 73.3578 26.9825 73.8375 27.2201 74.2635C26.9775 74.6872 26.8523 75.168 26.8576 75.6563C26.8576 76.9171 27.6345 77.9381 28.5978 77.9381C29.5612 77.9381 30.3394 76.9171 30.3394 75.6563C30.3443 75.1679 30.2187 74.687 29.9756 74.2635C30.214 73.8377 30.3392 73.3579 30.3392 72.8699C30.3392 72.3819 30.214 71.9021 29.9756 71.4764C30.214 71.0507 30.3392 70.5709 30.3392 70.0829C30.3392 69.5949 30.214 69.115 29.9756 68.6893Z" fill="#3F3D56"/>
<path id="Vector_4" opacity="0.1" d="M28.5912 66.7888C29.5524 66.7888 30.3315 65.7678 30.3315 64.5083C30.3315 63.2489 29.5524 62.2279 28.5912 62.2279C27.6301 62.2279 26.851 63.2489 26.851 64.5083C26.851 65.7678 27.6301 66.7888 28.5912 66.7888Z" fill="#3F3D56"/>
<path id="Vector_5" opacity="0.1" d="M28.5912 64.0015C29.5524 64.0015 30.3315 62.9805 30.3315 61.721C30.3315 60.4616 29.5524 59.4406 28.5912 59.4406C27.6301 59.4406 26.851 60.4616 26.851 61.721C26.851 62.9805 27.6301 64.0015 28.5912 64.0015Z" fill="#3F3D56"/>
<path id="Vector_6" opacity="0.1" d="M22.077 42.6457C21.8393 42.3428 21.623 42.0237 21.4296 41.6908L26.0042 40.9392L21.0567 40.9768C20.583 39.9439 20.3246 38.8253 20.2972 37.6892C20.2698 36.5531 20.474 35.4233 20.8974 34.3687L27.5309 37.8166L21.4101 33.3075C21.9842 32.3172 22.7558 31.4557 23.6769 30.7767C24.598 30.0976 25.6489 29.6154 26.7641 29.3602C27.8794 29.105 29.0353 29.0821 30.1598 29.2931C31.2843 29.5041 32.3533 29.9443 33.3005 30.5865C34.2476 31.2287 35.0526 32.059 35.6653 33.0258C36.278 33.9927 36.6853 35.0753 36.862 36.2065C37.0386 37.3376 36.9807 38.493 36.6919 39.6008C36.4031 40.7086 35.8896 41.745 35.1834 42.6457C35.5538 43.1166 35.8725 43.6262 36.1338 44.1656L30.1956 47.2545L36.5274 45.1283C36.9721 46.4433 37.0821 47.8486 36.8474 49.2169C36.6127 50.5851 36.0408 51.8733 35.1834 52.9647C36.1507 54.1956 36.7525 55.674 36.9198 57.2309C37.0872 58.7878 36.8133 60.3605 36.1296 61.769C35.4459 63.1775 34.3799 64.3651 33.0534 65.196C31.727 66.0269 30.1937 66.4675 28.6289 66.4675C27.064 66.4675 25.5307 66.0269 24.2043 65.196C22.8779 64.3651 21.8119 63.1775 21.1282 61.769C20.4444 60.3605 20.1706 58.7878 20.3379 57.2309C20.5053 55.674 21.107 54.1956 22.0744 52.9647C20.9184 51.4937 20.29 49.6766 20.29 47.8052C20.29 45.9338 20.9184 44.1167 22.0744 42.6457H22.077Z" fill="#21B8F9"/>
<path id="Vector_7" opacity="0.1" d="M36.9676 47.8054C36.9704 49.6772 36.3417 51.4951 35.1834 52.9649C36.1508 54.1957 36.7525 55.6741 36.9198 57.2311C37.0872 58.788 36.8133 60.3606 36.1296 61.7692C35.4459 63.1777 34.3799 64.3653 33.0535 65.1962C31.727 66.0271 30.1938 66.4677 28.6289 66.4677C27.064 66.4677 25.5307 66.0271 24.2043 65.1962C22.8779 64.3653 21.8119 63.1777 21.1282 61.7692C20.4445 60.3606 20.1706 58.788 20.3379 57.2311C20.5053 55.6741 21.107 54.1957 22.0744 52.9649C20.957 51.5512 36.9676 46.8686 36.9676 47.8054Z" fill="#103B66"/>
</g>
<g id="Group_2" opacity="0.1">
<path id="Vector_8" opacity="0.1" d="M67.8248 82.71C69.1113 82.71 70.1542 81.3438 70.1542 79.6586C70.1542 77.9733 69.1113 76.6072 67.8248 76.6072C66.5383 76.6072 65.4954 77.9733 65.4954 79.6586C65.4954 81.3438 66.5383 82.71 67.8248 82.71Z" fill="#3F3D56"/>
<path id="Vector_9" opacity="0.1" d="M69.6686 66.6031C69.9933 66.0354 70.1609 65.3914 70.1542 64.7373C70.1542 63.0529 69.1183 61.6859 67.8235 61.6859C66.5287 61.6859 65.4928 63.0529 65.4928 64.7373C65.4859 65.3916 65.654 66.0358 65.9796 66.6031C65.6605 67.1729 65.4929 67.8151 65.4929 68.4683C65.4929 69.1215 65.6605 69.7637 65.9796 70.3335C65.6605 70.903 65.4929 71.545 65.4929 72.198C65.4929 72.851 65.6605 73.493 65.9796 74.0625C65.654 74.6299 65.4859 75.2741 65.4928 75.9283C65.4928 77.6128 66.5364 78.9797 67.8235 78.9797C69.1106 78.9797 70.1542 77.6128 70.1542 75.9283C70.1609 75.2743 69.9933 74.6302 69.6686 74.0625C69.9871 73.4928 70.1543 72.8508 70.1543 72.198C70.1543 71.5452 69.9871 70.9033 69.6686 70.3335C69.9871 69.7635 70.1543 69.1213 70.1543 68.4683C70.1543 67.8153 69.9871 67.1732 69.6686 66.6031Z" fill="#3F3D56"/>
<path id="Vector_10" opacity="0.1" d="M67.8248 64.0595C69.1113 64.0595 70.1542 62.6934 70.1542 61.0081C70.1542 59.3229 69.1113 57.9567 67.8248 57.9567C66.5383 57.9567 65.4954 59.3229 65.4954 61.0081C65.4954 62.6934 66.5383 64.0595 67.8248 64.0595Z" fill="#3F3D56"/>
<path id="Vector_11" opacity="0.1" d="M67.8248 60.3292C69.1113 60.3292 70.1542 58.9631 70.1542 57.2778C70.1542 55.5926 69.1113 54.2264 67.8248 54.2264C66.5383 54.2264 65.4954 55.5926 65.4954 57.2778C65.4954 58.9631 66.5383 60.3292 67.8248 60.3292Z" fill="#3F3D56"/>
<path id="Vector_12" opacity="0.1" d="M59.1092 31.7524C58.7909 31.3472 58.501 30.9203 58.2417 30.4749L64.3624 29.4694L57.7432 29.5186C57.1081 28.1358 56.7615 26.6379 56.7248 25.1165C56.6881 23.5951 56.9619 22.0821 57.5295 20.6703L66.4122 25.2804L58.2197 19.2553C58.9851 17.9243 60.0166 16.7656 61.2497 15.8515C62.4828 14.9374 63.8911 14.2877 65.3865 13.9428C66.8819 13.5979 68.4323 13.5654 69.9409 13.8472C71.4494 14.1291 72.8837 14.7192 74.154 15.5807C75.4244 16.4423 76.5035 17.5567 77.324 18.8544C78.1445 20.1522 78.6887 21.6053 78.9226 23.123C79.1565 24.6407 79.0751 26.1903 78.6835 27.6751C78.2919 29.1599 77.5985 30.5479 76.6466 31.7524C77.1422 32.3838 77.5685 33.0666 77.9181 33.7893L69.973 37.92L78.4451 35.0694C79.0403 36.8291 79.1875 38.7096 78.8734 40.5405C78.5594 42.3715 77.794 44.0952 76.6466 45.5556C77.9411 47.2027 78.7464 49.1811 78.9703 51.2646C79.1942 53.3481 78.8277 55.4526 77.9128 57.3375C76.9978 59.2224 75.5713 60.8116 73.7963 61.9235C72.0213 63.0353 69.9694 63.625 67.8753 63.625C65.7812 63.625 63.7294 63.0353 61.9544 61.9235C60.1794 60.8116 58.7529 59.2224 57.8379 57.3375C56.9229 55.4526 56.5564 53.3481 56.7803 51.2646C57.0043 49.1811 57.8095 47.2027 59.1041 45.5556C57.5573 43.5871 56.7165 41.1556 56.7165 38.6514C56.7165 36.1473 57.5573 33.7158 59.1041 31.7473L59.1092 31.7524Z" fill="#21B8F9"/>
<path id="Vector_13" opacity="0.1" d="M79.0342 38.6573C79.0381 41.1619 78.1968 43.5945 76.6465 45.5609C77.9411 47.208 78.7463 49.1864 78.9703 51.2699C79.1942 53.3533 78.8277 55.4578 77.9127 57.3427C76.9978 59.2276 75.5712 60.8168 73.7962 61.9287C72.0212 63.0406 69.9694 63.6302 67.8753 63.6302C65.7812 63.6302 63.7294 63.0406 61.9544 61.9287C60.1794 60.8168 58.7529 59.2276 57.8379 57.3427C56.9229 55.4578 56.5564 53.3533 56.7803 51.2699C57.0043 49.1864 57.8095 47.208 59.1041 45.5609C57.6085 43.6614 79.0342 37.4031 79.0342 38.6573Z" fill="#103B66"/>
</g>
<g id="Group_3" opacity="0.1">
<path id="Vector_14" opacity="0.1" d="M108.814 84.7314C110.394 84.7314 111.674 83.0543 111.674 80.9855C111.674 78.9167 110.394 77.2396 108.814 77.2396C107.234 77.2396 105.954 78.9167 105.954 80.9855C105.954 83.0543 107.234 84.7314 108.814 84.7314Z" fill="#3F3D56"/>
<path id="Vector_15" opacity="0.1" d="M111.078 64.9602C111.478 64.2643 111.686 63.4739 111.68 62.6707C111.68 60.5976 110.399 58.9248 108.819 58.9248C107.24 58.9248 105.96 60.6015 105.96 62.6707C105.952 63.4734 106.158 64.2638 106.557 64.9602C106.166 65.6595 105.96 66.4476 105.96 67.2491C105.96 68.0506 106.166 68.8387 106.557 69.538C106.166 70.2375 105.96 71.0258 105.96 71.8275C105.96 72.6292 106.166 73.4175 106.557 74.117C106.158 74.8135 105.952 75.6038 105.96 76.4065C105.96 78.4796 107.241 80.1524 108.819 80.1524C110.398 80.1524 111.68 78.4758 111.68 76.4065C111.688 75.6038 111.482 74.8135 111.083 74.117C111.474 73.4175 111.68 72.6292 111.68 71.8275C111.68 71.0258 111.474 70.2375 111.083 69.538C111.474 68.8387 111.68 68.0506 111.68 67.2491C111.68 66.4476 111.474 65.6595 111.083 64.9602H111.078Z" fill="#3F3D56"/>
<path id="Vector_16" opacity="0.1" d="M108.814 61.839C110.394 61.839 111.674 60.1619 111.674 58.0931C111.674 56.0243 110.394 54.3472 108.814 54.3472C107.234 54.3472 105.954 56.0243 105.954 58.0931C105.954 60.1619 107.234 61.839 108.814 61.839Z" fill="#3F3D56"/>
<path id="Vector_17" opacity="0.1" d="M108.814 57.2598C110.394 57.2598 111.674 55.5827 111.674 53.5139C111.674 51.4451 110.394 49.768 108.814 49.768C107.234 49.768 105.954 51.4451 105.954 53.5139C105.954 55.5827 107.234 57.2598 108.814 57.2598Z" fill="#3F3D56"/>
<path id="Vector_18" opacity="0.1" d="M119.52 22.1812C119.91 21.6832 120.266 21.1589 120.584 20.6121L113.074 19.3773L121.202 19.4382C121.981 17.7407 122.406 15.902 122.45 14.0346C122.495 12.1672 122.158 10.3103 121.461 8.57756L110.556 14.2346L120.614 6.84132C119.671 5.21351 118.404 3.79727 116.891 2.68076C115.378 1.56426 113.651 0.771376 111.818 0.351478C109.986 -0.0684194 108.086 -0.106347 106.238 0.240058C104.39 0.586463 102.634 1.30978 101.077 2.365C99.5206 3.42021 98.1978 4.78473 97.191 6.37361C96.1843 7.9625 95.5151 9.74174 95.2253 11.6006C94.9354 13.4594 95.0309 15.3581 95.506 17.1784C95.9811 18.9986 96.8256 20.7016 97.9868 22.1812C97.3781 22.9559 96.8546 23.7938 96.4252 24.6806L106.179 29.752L95.7791 26.2536C95.0473 28.413 94.8653 30.721 95.2497 32.9685C95.634 35.216 96.5726 37.3321 97.9803 39.1252C96.391 41.147 95.4024 43.5756 95.1274 46.1333C94.8524 48.6909 95.3022 51.2743 96.4253 53.5882C97.5484 55.9021 99.2995 57.8531 101.478 59.218C103.657 60.583 106.176 61.3068 108.747 61.3068C111.318 61.3068 113.836 60.583 116.015 59.218C118.194 57.8531 119.945 55.9021 121.068 53.5882C122.192 51.2743 122.641 48.6909 122.366 46.1333C122.091 43.5756 121.103 41.147 119.513 39.1252C121.413 36.7091 122.445 33.7245 122.445 30.6506C122.445 27.5767 121.413 24.592 119.513 22.176L119.52 22.1812Z" fill="#21B8F9"/>
<path id="Vector_19" opacity="0.1" d="M95.0553 30.6565C95.0506 33.7309 96.0836 36.7169 97.9869 39.1304C96.3976 41.1523 95.4089 43.5809 95.1339 46.1385C94.859 48.6961 95.3087 51.2796 96.4319 53.5935C97.555 55.9074 99.3061 57.8583 101.485 59.2233C103.664 60.5882 106.183 61.3121 108.753 61.3121C111.324 61.3121 113.843 60.5882 116.022 59.2233C118.201 57.8583 119.952 55.9074 121.075 53.5935C122.198 51.2796 122.648 48.6961 122.373 46.1385C122.098 43.5809 121.109 41.1523 119.52 39.1304C121.356 36.7981 95.0553 29.1172 95.0553 30.6565Z" fill="#103B66"/>
</g>
<path id="Vector_20" d="M148 82.4355C148 83.3256 141.497 84.1393 130.746 84.7677C128.791 84.8805 126.696 84.988 124.474 85.0891C122.554 85.1755 120.542 85.2571 118.438 85.334C116.399 85.4065 114.282 85.4739 112.086 85.5361C105.154 85.7343 97.4896 85.8769 89.3477 85.9481C87.3718 85.9663 85.3695 85.9801 83.341 85.9896C81.2278 85.9991 79.0904 86.0034 76.9289 86.0026C37.6772 86.0026 5.85913 84.4075 5.85913 82.4394C5.85913 80.4712 37.6772 78.8762 76.9289 78.8762C93.8278 78.8762 109.346 79.1729 121.544 79.6653L122.878 79.7197H122.885C138.25 80.3714 148 81.3523 148 82.4355Z" fill="#3F3D56"/>
<path id="Vector_21" opacity="0.15" d="M148 82.4355C148 83.3256 141.497 84.1393 130.746 84.7677C128.791 84.8805 126.696 84.988 124.474 85.0891C122.554 85.1755 120.542 85.2571 118.438 85.334C116.399 85.4065 114.282 85.4739 112.086 85.5361C105.154 85.7343 97.4896 85.8769 89.3477 85.9481C87.3718 85.9663 85.3695 85.9801 83.341 85.9896C81.2278 85.9991 79.0904 86.0034 76.9289 86.0026C37.6772 86.0026 5.85913 84.4075 5.85913 82.4394C5.85913 80.4712 37.6772 78.8762 76.9289 78.8762C93.8278 78.8762 109.346 79.1729 121.544 79.6653L122.878 79.7197H122.885C138.25 80.3714 148 81.3523 148 82.4355Z" fill="#103B66"/>
<path id="Vector_22" d="M142.141 81.8083C142.141 82.552 135.638 83.2336 124.887 83.7519C122.933 83.8464 120.837 83.9359 118.616 84.0201C116.696 84.0926 114.683 84.1609 112.58 84.2248C110.541 84.2853 108.424 84.3418 106.229 84.3945C99.2947 84.5604 91.6305 84.6796 83.4886 84.7392C81.5144 84.7539 79.5121 84.7651 77.4818 84.7729C75.3686 84.7807 73.2317 84.7845 71.0711 84.7845C31.8194 84.7845 0 83.4513 0 81.8044C0 80.1576 31.8194 78.8243 71.0711 78.8243C87.9687 78.8243 103.487 79.0718 115.685 79.4838L117.018 79.5291H117.027C132.397 80.0824 142.141 80.8974 142.141 81.8083Z" fill="#3F3D56"/>
<path id="Vector_23" d="M18.3556 54.7373L16.5714 49.2707L59.301 48.8029L61.0516 54.2151L18.3556 54.7373Z" fill="#3F3D56"/>
<path id="Vector_24" opacity="0.15" d="M18.3556 54.7373L16.5714 49.2707L59.301 48.8029L61.0516 54.2151L18.3556 54.7373Z" fill="#103B66"/>
<path id="Vector_25" d="M15.507 54.7373L13.7227 49.2707L56.4524 48.8029L58.203 54.2151L15.507 54.7373Z" fill="#3F3D56"/>
<path id="Vector_26" d="M88.4518 46.337C84.0338 46.337 80.5519 44.5822 78.0063 41.0725C75.4606 37.5629 74.1878 33.3113 74.1878 28.3176C74.1878 23.2903 75.4188 19.0472 77.8807 15.5886C80.3426 12.1299 83.8154 10.4023 88.299 10.4057C93.0536 10.4057 96.636 12.2279 99.0461 15.8723C101.456 19.5167 102.662 23.7347 102.663 28.5262C102.663 33.2832 101.415 37.4415 98.9205 41.0013C96.4258 44.561 92.9362 46.3396 88.4518 46.337ZM88.5812 42.389C91.4877 42.389 93.66 41.1214 95.0982 38.5861C96.5363 36.0508 97.2554 32.8547 97.2554 28.9978C97.2554 24.7047 96.5195 21.1895 95.0477 18.4521C93.5759 15.7147 91.3185 14.3456 88.2757 14.3447C82.492 14.3447 79.6002 18.9419 79.6002 28.1362C79.6002 37.6389 82.593 42.3899 88.5787 42.389H88.5812ZM90.0366 80.1964H83.6466L125.48 11.1093H131.75L90.0366 80.1964ZM127.046 80.9052C122.561 80.9052 119.065 79.1344 116.558 75.5928C114.05 72.0512 112.791 67.7991 112.78 62.8365C112.78 57.8429 114.003 53.6167 116.447 50.1581C118.892 46.6994 122.374 44.9718 126.892 44.9752C131.613 44.9752 135.17 46.7974 137.564 50.4418C139.957 54.0862 141.155 58.3037 141.156 63.0944C141.156 67.8203 139.916 71.9709 137.438 75.5461C134.96 79.1214 131.495 80.9078 127.043 80.9052H127.046ZM127.121 76.8561C130.014 76.8561 132.174 75.6101 133.603 73.118C135.031 70.6259 135.746 67.4428 135.746 63.5686C135.746 59.4224 135.023 55.9451 133.577 53.1369C132.131 50.3286 129.878 48.9224 126.819 48.9181C121.002 48.9181 118.093 53.5152 118.093 62.7096C118.091 72.1415 121.1 76.857 127.118 76.8561H127.121Z" fill="#3F3D56"/>
<path id="Vector_27" d="M88.4518 46.337C84.0338 46.337 80.5519 44.5822 78.0063 41.0725C75.4606 37.5629 74.1878 33.3113 74.1878 28.3176C74.1878 23.2903 75.4188 19.0472 77.8807 15.5886C80.3426 12.1299 83.8154 10.4023 88.299 10.4057C93.0536 10.4057 96.636 12.2279 99.0461 15.8723C101.456 19.5167 102.662 23.7347 102.663 28.5262C102.663 33.2832 101.415 37.4415 98.9205 41.0013C96.4258 44.561 92.9362 46.3396 88.4518 46.337ZM88.5812 42.389C91.4877 42.389 93.66 41.1214 95.0982 38.5861C96.5363 36.0508 97.2554 32.8547 97.2554 28.9978C97.2554 24.7047 96.5195 21.1895 95.0477 18.4521C93.5759 15.7147 91.3185 14.3456 88.2757 14.3447C82.492 14.3447 79.6002 18.9419 79.6002 28.1362C79.6002 37.6389 82.593 42.3899 88.5787 42.389H88.5812ZM90.0366 80.1964H83.6466L125.48 11.1093H131.75L90.0366 80.1964ZM127.046 80.9052C122.561 80.9052 119.065 79.1344 116.558 75.5928C114.05 72.0512 112.791 67.7991 112.78 62.8365C112.78 57.8429 114.003 53.6167 116.447 50.1581C118.892 46.6994 122.374 44.9718 126.892 44.9752C131.613 44.9752 135.17 46.7974 137.564 50.4418C139.957 54.0862 141.155 58.3037 141.156 63.0944C141.156 67.8203 139.916 71.9709 137.438 75.5461C134.96 79.1214 131.495 80.9078 127.043 80.9052H127.046ZM127.121 76.8561C130.014 76.8561 132.174 75.6101 133.603 73.118C135.031 70.6259 135.746 67.4428 135.746 63.5686C135.746 59.4224 135.023 55.9451 133.577 53.1369C132.131 50.3286 129.878 48.9224 126.819 48.9181C121.002 48.9181 118.093 53.5152 118.093 62.7096C118.091 72.1415 121.1 76.857 127.118 76.8561H127.121Z" fill="#3F3D56"/>
<path id="Vector_28" opacity="0.15" d="M88.4518 46.337C84.0338 46.337 80.5519 44.5822 78.0063 41.0725C75.4606 37.5629 74.1878 33.3113 74.1878 28.3176C74.1878 23.2903 75.4188 19.0472 77.8807 15.5886C80.3426 12.1299 83.8154 10.4023 88.299 10.4057C93.0536 10.4057 96.636 12.2279 99.0461 15.8723C101.456 19.5167 102.662 23.7347 102.663 28.5262C102.663 33.2832 101.415 37.4415 98.9205 41.0013C96.4258 44.561 92.9362 46.3396 88.4518 46.337ZM88.5812 42.389C91.4877 42.389 93.66 41.1214 95.0982 38.5861C96.5363 36.0508 97.2554 32.8547 97.2554 28.9978C97.2554 24.7047 96.5195 21.1895 95.0477 18.4521C93.5759 15.7147 91.3185 14.3456 88.2757 14.3447C82.492 14.3447 79.6002 18.9419 79.6002 28.1362C79.6002 37.6389 82.593 42.3899 88.5787 42.389H88.5812ZM90.0366 80.1964H83.6466L125.48 11.1093H131.75L90.0366 80.1964ZM127.046 80.9052C122.561 80.9052 119.065 79.1344 116.558 75.5928C114.05 72.0512 112.791 67.7991 112.78 62.8365C112.78 57.8429 114.003 53.6167 116.447 50.1581C118.892 46.6994 122.374 44.9718 126.892 44.9752C131.613 44.9752 135.17 46.7974 137.564 50.4418C139.957 54.0862 141.155 58.3037 141.156 63.0944C141.156 67.8203 139.916 71.9709 137.438 75.5461C134.96 79.1214 131.495 80.9078 127.043 80.9052H127.046ZM127.121 76.8561C130.014 76.8561 132.174 75.6101 133.603 73.118C135.031 70.6259 135.746 67.4428 135.746 63.5686C135.746 59.4224 135.023 55.9451 133.577 53.1369C132.131 50.3286 129.878 48.9224 126.819 48.9181C121.002 48.9181 118.093 53.5152 118.093 62.7096C118.091 72.1415 121.1 76.857 127.118 76.8561H127.121Z" fill="#103B66"/>
<path id="Vector_29" d="M84.4377 46.337C80.0198 46.337 76.5379 44.5822 73.9923 41.0725C71.4466 37.5629 70.1738 33.3113 70.1738 28.3176C70.1738 23.2903 71.4048 19.0472 73.8667 15.5886C76.3286 12.1299 79.8014 10.4023 84.285 10.4057C89.0396 10.4057 92.622 12.2279 95.0321 15.8723C97.4423 19.5167 98.6477 23.7347 98.6486 28.5262C98.6486 33.2832 97.4013 37.4415 94.9065 41.0013C92.4118 44.561 88.9222 46.3396 84.4377 46.337ZM84.5672 42.389C87.4737 42.389 89.646 41.1214 91.0842 38.5861C92.5223 36.0508 93.2414 32.8547 93.2414 28.9978C93.2414 24.7047 92.5055 21.1895 91.0337 18.4521C89.5619 15.7147 87.3045 14.3456 84.2617 14.3447C78.478 14.3447 75.5862 18.9419 75.5862 28.1362C75.5862 37.6389 78.579 42.3899 84.5646 42.389H84.5672ZM86.0226 80.1964H79.6326L121.466 11.1093H127.736L86.0226 80.1964ZM123.032 80.9052C118.547 80.9052 115.051 79.1344 112.544 75.5928C110.036 72.0512 108.777 67.7991 108.766 62.8365C108.766 57.8429 109.989 53.6167 112.433 50.1581C114.878 46.6994 118.36 44.9718 122.878 44.9752C127.599 44.9752 131.156 46.7974 133.55 50.4418C135.943 54.0862 137.141 58.3037 137.142 63.0944C137.142 67.8203 135.902 71.9709 133.424 75.5461C130.946 79.1214 127.481 80.9078 123.029 80.9052H123.032ZM123.107 76.8561C126 76.8561 128.16 75.6101 129.589 73.118C131.017 70.6259 131.732 67.4428 131.732 63.5686C131.732 59.4224 131.009 55.9451 129.563 53.1369C128.117 50.3286 125.864 48.9224 122.803 48.9181C116.985 48.9181 114.077 53.5152 114.077 62.7096C114.077 72.1415 117.086 76.857 123.104 76.8561H123.107Z" fill="#3F3D56"/>
<path id="Vector_30" d="M98.4167 81.9301C98.9502 80.9401 98.3442 79.7274 97.6476 78.8437C96.9509 77.96 96.1015 77.0427 96.1197 75.9167C96.1456 74.3009 97.8599 73.346 99.2273 72.4882C100.244 71.8525 101.182 71.0983 102.021 70.2415C102.373 69.9114 102.664 69.5219 102.88 69.0909C103.164 68.4586 103.154 67.7395 103.139 67.0476C103.079 64.7395 102.965 62.4348 102.797 60.1337" stroke="#3F3D56" stroke-width="4" stroke-miterlimit="10"/>
<path id="Vector_31" d="M100.909 77.0765C100.645 77.5906 100.212 77.9981 99.6831 78.2306C99.1541 78.4631 98.5613 78.5066 98.0042 78.3537C97.447 78.2009 96.9592 77.8609 96.6228 77.3909C96.2863 76.9209 96.1216 76.3495 96.1562 75.7724C96.1908 75.1953 96.4226 74.6476 96.8128 74.2212C97.203 73.7949 97.7278 73.5157 98.2993 73.4306C98.8707 73.3455 99.4541 73.4595 99.9514 73.7537C100.449 74.0478 100.83 74.5042 101.031 75.0462L99.4566 76.3276L101.192 75.9234C101.191 76.3248 101.094 76.7202 100.909 77.0765Z" fill="#21B8F9"/>
<path id="Vector_32" opacity="0.1" d="M100.909 77.0765C100.616 77.6531 100.113 78.0949 99.5031 78.3104C98.8934 78.5259 98.2244 78.4987 97.6342 78.2344C97.0441 77.9701 96.5781 77.489 96.3326 76.8904C96.0871 76.2919 96.0809 75.6219 96.3153 75.0189C96.5227 75.1555 96.709 75.3218 96.8682 75.5126C97.1077 75.8054 97.2657 76.1371 97.5428 76.4092C98.0607 76.9145 98.8894 77.1231 99.6301 77.1426C100.057 77.146 100.485 77.124 100.909 77.0765Z" fill="#103B66"/>
<path id="Vector_33" d="M99.6649 72.1774C99.3343 72.1929 99.0039 72.1431 98.6926 72.0309C98.3813 71.9186 98.0951 71.7461 97.8504 71.5231C97.6057 71.3002 97.4073 71.0312 97.2666 70.7315C97.1258 70.4318 97.0453 70.1073 97.0299 69.7765C97.0103 69.3815 97.0849 68.9876 97.2474 68.6272C97.398 68.2904 97.6204 67.9906 97.8992 67.7491C98.1779 67.5076 98.5061 67.3301 98.8608 67.2291L98.8466 68.2657L99.4176 67.1358C100.085 67.1046 100.738 67.34 101.232 67.7902C101.726 68.2405 102.021 68.8687 102.053 69.5368C102.084 70.2048 101.849 70.8579 101.399 71.3524C100.949 71.8469 100.321 72.1423 99.6532 72.1735L99.6649 72.1774Z" fill="#21B8F9"/>
<path id="Vector_34" opacity="0.1" d="M99.6649 72.1774C99.3343 72.1929 99.004 72.1431 98.6926 72.0309C98.3813 71.9186 98.0951 71.7461 97.8504 71.5231C97.6057 71.3002 97.4073 71.0312 97.2666 70.7315C97.1258 70.4318 97.0453 70.1073 97.0299 69.7765C97.0103 69.3815 97.0849 68.9876 97.2474 68.6272C97.4552 68.7657 97.6356 68.9414 97.7796 69.1455C97.9751 69.4215 98.0981 69.7402 98.3273 69.9955C98.752 70.4684 99.4668 70.6355 100.11 70.62C100.754 70.6044 101.335 70.4541 101.955 70.4062C101.802 70.9011 101.499 71.3367 101.09 71.6536C100.68 71.9705 100.182 72.1534 99.6649 72.1774Z" fill="#103B66"/>
<path id="Vector_35" d="M105.782 68.1051C105.447 68.1273 105.112 68.0826 104.795 67.9734C104.478 67.8643 104.186 67.6931 103.936 67.4697C103.686 67.2463 103.483 66.9752 103.339 66.6723C103.194 66.3695 103.112 66.0409 103.096 65.7058C103.081 65.3707 103.132 65.0359 103.247 64.7209C103.362 64.4059 103.539 64.117 103.767 63.8712C103.995 63.6254 104.27 63.4276 104.576 63.2894C104.881 63.1511 105.211 63.0752 105.546 63.0661C106.017 63.0431 106.485 63.1541 106.895 63.3861L106.45 64.6067L107.367 63.7269C107.859 64.1757 108.152 64.8015 108.184 65.467C108.195 65.7004 108.173 65.9343 108.119 66.1615C107.994 66.6958 107.698 67.1745 107.276 67.5253C106.854 67.876 106.33 68.0796 105.782 68.1051Z" fill="#21B8F9"/>
<path id="Vector_36" opacity="0.1" d="M105.782 68.1051C105.348 68.1249 104.916 68.0321 104.528 67.8356C104.14 67.6392 103.809 67.3458 103.568 66.9839C103.327 66.622 103.184 66.2039 103.151 65.7702C103.119 65.3364 103.2 64.9017 103.385 64.5082C103.585 64.6436 103.756 64.816 103.891 65.0161C104.071 65.2869 104.18 65.6005 104.391 65.8493C104.78 66.3118 105.454 66.4621 106.061 66.4349C106.669 66.4077 107.257 66.2341 107.863 66.1758C107.947 66.168 108.032 66.1628 108.122 66.1602C107.996 66.6951 107.7 67.1745 107.278 67.5255C106.855 67.8766 106.33 68.0801 105.782 68.1051Z" fill="#103B66"/>
<path id="Vector_37" d="M137.391 81.8005C137.925 80.8106 137.319 79.5978 136.622 78.7141C135.926 77.8305 135.076 76.9131 135.094 75.7871C135.12 74.1714 136.835 73.2165 138.202 72.3587C139.219 71.723 140.157 70.9688 140.996 70.1119C141.348 69.7819 141.638 69.3924 141.855 68.9613C142.138 68.329 142.129 67.6099 142.114 66.918C142.054 64.6099 141.94 62.3053 141.772 60.0041" stroke="#3F3D56" stroke-width="4" stroke-miterlimit="10"/>
<path id="Vector_38" d="M139.884 76.9469C139.619 77.461 139.186 77.8684 138.658 78.101C138.129 78.3335 137.536 78.377 136.979 78.2241C136.421 78.0712 135.934 77.7313 135.597 77.2613C135.261 76.7913 135.096 76.2199 135.131 75.6428C135.165 75.0657 135.397 74.518 135.787 74.0916C136.177 73.6653 136.702 73.3861 137.274 73.301C137.845 73.2159 138.429 73.3299 138.926 73.6241C139.423 73.9182 139.804 74.3746 140.006 74.9166L138.431 76.198L140.166 75.7937C140.165 76.1952 140.069 76.5906 139.884 76.9469Z" fill="#21B8F9"/>
<path id="Vector_39" opacity="0.1" d="M139.884 76.9469C139.591 77.5235 139.087 77.9653 138.478 78.1808C137.868 78.3963 137.199 78.3691 136.609 78.1048C136.019 77.8405 135.553 77.3593 135.307 76.7608C135.062 76.1623 135.055 75.4922 135.29 74.8893C135.497 75.0259 135.684 75.1922 135.843 75.3829C136.082 75.6758 136.24 76.0075 136.517 76.2796C137.035 76.7849 137.864 76.9935 138.605 77.0129C139.032 77.0164 139.459 76.9944 139.884 76.9469Z" fill="#103B66"/>
<path id="Vector_40" d="M138.64 72.0479C138.309 72.0634 137.979 72.0136 137.667 71.9013C137.356 71.7891 137.07 71.6165 136.825 71.3936C136.58 71.1706 136.382 70.9016 136.241 70.6019C136.1 70.3022 136.02 69.9777 136.005 69.6469C135.985 69.252 136.059 68.858 136.222 68.4976C136.373 68.1608 136.595 67.8611 136.874 67.6195C137.153 67.378 137.481 67.2005 137.835 67.0996L137.821 68.1361L138.392 67.0063H138.399C138.729 66.9908 139.06 67.0406 139.371 67.1529C139.682 67.2652 139.968 67.4377 140.213 67.6607C140.458 67.8836 140.656 68.1526 140.797 68.4523C140.938 68.752 141.018 69.0764 141.034 69.4072C141.049 69.738 140.999 70.0686 140.887 70.3801C140.775 70.6917 140.603 70.978 140.38 71.2229C140.157 71.4677 139.888 71.6663 139.589 71.8072C139.289 71.9481 138.965 72.0285 138.634 72.044L138.64 72.0479Z" fill="#21B8F9"/>
<path id="Vector_41" opacity="0.1" d="M138.64 72.0479C138.309 72.0634 137.979 72.0136 137.667 71.9013C137.356 71.7891 137.07 71.6165 136.825 71.3936C136.58 71.1706 136.382 70.9016 136.241 70.6019C136.1 70.3022 136.02 69.9777 136.005 69.6469C135.985 69.252 136.059 68.858 136.222 68.4976C136.43 68.6361 136.61 68.8118 136.754 69.0159C136.95 69.2919 137.073 69.6106 137.302 69.8659C137.727 70.3388 138.441 70.506 139.085 70.4904C139.709 70.4775 140.31 70.3246 140.93 70.2767C140.776 70.7716 140.474 71.2071 140.064 71.5241C139.654 71.841 139.157 72.0239 138.64 72.0479Z" fill="#103B66"/>
<path id="Vector_42" d="M144.756 67.9755C144.422 67.9978 144.086 67.953 143.769 67.8439C143.452 67.7348 143.16 67.5635 142.91 67.3401C142.66 67.1167 142.457 66.8456 142.313 66.5428C142.169 66.2399 142.087 65.9113 142.071 65.5763C142.055 65.2412 142.107 64.9063 142.222 64.5913C142.337 64.2763 142.514 63.9875 142.742 63.7416C142.97 63.4958 143.245 63.298 143.55 63.1598C143.856 63.0215 144.186 62.9456 144.521 62.9365C144.992 62.9135 145.459 63.0245 145.87 63.2565L145.425 64.4771L146.341 63.5973C146.833 64.0461 147.127 64.672 147.158 65.3375C147.17 65.5709 147.148 65.8047 147.094 66.032C146.968 66.5662 146.672 67.045 146.251 67.3957C145.829 67.7465 145.304 67.95 144.756 67.9755Z" fill="#21B8F9"/>
<path id="Vector_43" opacity="0.1" d="M144.756 67.9755C144.322 67.9953 143.89 67.9025 143.502 67.7061C143.115 67.5096 142.784 67.2162 142.543 66.8543C142.302 66.4925 142.158 66.0743 142.126 65.6406C142.094 65.2068 142.174 64.7721 142.36 64.3786C142.559 64.514 142.731 64.6864 142.866 64.8865C143.046 65.1573 143.155 65.4709 143.366 65.7197C143.754 66.1822 144.429 66.3325 145.036 66.3053C145.643 66.2781 146.231 66.1045 146.837 66.0462C146.921 66.0384 147.007 66.0332 147.096 66.0306C146.971 66.5655 146.675 67.0449 146.252 67.396C145.83 67.747 145.305 67.9505 144.756 67.9755Z" fill="#103B66"/>
<path id="Vector_44" d="M105.403 60.0068C105.383 59.5847 105.258 59.1742 105.038 58.8132C104.818 58.4523 104.511 58.1525 104.145 57.9415L103.581 59.0584L103.598 57.7057C103.328 57.6269 103.048 57.5932 102.768 57.6059C102.27 57.6293 101.79 57.7998 101.389 58.0959C100.988 58.3921 100.684 58.8006 100.515 59.2697C100.346 59.7389 100.32 60.2476 100.44 60.7316C100.56 61.2156 100.821 61.6532 101.189 61.9889C101.558 62.3247 102.017 62.5435 102.51 62.6179C103.003 62.6922 103.506 62.6186 103.957 62.4065C104.408 62.1943 104.787 61.8531 105.044 61.426C105.301 60.9988 105.426 60.505 105.403 60.0068Z" fill="#21B8F9"/>
<path id="Vector_45" opacity="0.1" d="M105.063 60.6793C104.482 60.7428 103.917 60.9242 103.333 60.9605C102.749 60.9967 102.108 60.8568 101.739 60.402C101.54 60.1584 101.441 59.8487 101.273 59.5818C101.114 59.3333 100.896 59.1281 100.639 58.9845C100.477 59.3041 100.385 59.6545 100.369 60.0124C100.353 60.3703 100.414 60.7275 100.547 61.0601C100.68 61.3927 100.882 61.6932 101.14 61.9415C101.398 62.1897 101.706 62.3801 102.044 62.4999C102.381 62.6198 102.74 62.6662 103.097 62.6363C103.454 62.6064 103.8 62.5007 104.113 62.3264C104.426 62.152 104.698 61.913 104.911 61.6252C105.124 61.3374 105.273 61.0074 105.349 60.6573C105.253 60.6624 105.159 60.6689 105.063 60.6793Z" fill="#103B66"/>
<path id="Vector_46" d="M144.377 59.8773C144.358 59.4551 144.232 59.0446 144.013 58.6837C143.793 58.3227 143.486 58.0229 143.12 57.8119L142.555 58.9288L142.572 57.5761C142.303 57.4974 142.022 57.4637 141.742 57.4764C141.244 57.4997 140.765 57.6702 140.364 57.9664C139.963 58.2626 139.659 58.671 139.49 59.1402C139.321 59.6093 139.295 60.1181 139.414 60.6021C139.534 61.0861 139.795 61.5237 140.164 61.8594C140.532 62.1951 140.992 62.414 141.485 62.4883C141.977 62.5627 142.481 62.4891 142.932 62.2769C143.383 62.0648 143.761 61.7236 144.018 61.2964C144.276 60.8693 144.4 60.3755 144.377 59.8773Z" fill="#21B8F9"/>
<path id="Vector_47" opacity="0.1" d="M144.038 60.5497C143.456 60.6132 142.892 60.7946 142.308 60.8309C141.724 60.8672 141.083 60.7272 140.714 60.2724C140.514 60.0288 140.416 59.7192 140.248 59.4522C140.089 59.2038 139.871 58.9986 139.613 58.8549C139.451 59.1745 139.36 59.5249 139.344 59.8829C139.328 60.2408 139.389 60.5979 139.522 60.9305C139.655 61.2632 139.857 61.5636 140.115 61.8119C140.373 62.0602 140.681 62.2505 141.018 62.3704C141.356 62.4902 141.715 62.5367 142.072 62.5067C142.428 62.4768 142.775 62.3711 143.087 62.1968C143.4 62.0224 143.672 61.7834 143.885 61.4956C144.099 61.2078 144.248 60.8778 144.324 60.5277C144.228 60.5329 144.134 60.5393 144.038 60.5497Z" fill="#103B66"/>
<path id="Vector_48" d="M14.2342 80.1161C13.7008 79.1262 14.3067 77.9134 15.0034 77.0297C15.7 76.146 16.5494 75.2287 16.5313 74.1027C16.5054 72.487 14.791 71.532 13.4237 70.6743C12.4067 70.0386 11.4688 69.2844 10.6294 68.4275C10.2779 68.0974 9.98731 67.708 9.77093 67.2769C9.48736 66.6446 9.49642 65.9255 9.51196 65.2336C9.57152 62.9255 9.68547 60.6209 9.8538 58.3197" stroke="#3F3D56" stroke-width="4" stroke-miterlimit="10"/>
<path id="Vector_49" d="M11.7416 75.2625C12.006 75.7766 12.439 76.184 12.9679 76.4166C13.4969 76.6491 14.0897 76.6926 14.6468 76.5397C15.204 76.3868 15.6917 76.0469 16.0282 75.5769C16.3647 75.1069 16.5294 74.5355 16.4948 73.9584C16.4602 73.3813 16.2284 72.8336 15.8382 72.4072C15.448 71.9809 14.9232 71.7017 14.3517 71.6166C13.7803 71.5315 13.1969 71.6455 12.6995 71.9397C12.2022 72.2338 11.821 72.6902 11.6199 73.2321L13.1944 74.5136L11.4593 74.1093C11.46 74.5108 11.5568 74.9062 11.7416 75.2625Z" fill="#21B8F9"/>
<path id="Vector_50" opacity="0.1" d="M11.7416 75.2625C12.0348 75.8391 12.5383 76.2809 13.1479 76.4964C13.7576 76.712 14.4266 76.6848 15.0168 76.4205C15.6069 76.1561 16.0729 75.675 16.3184 75.0764C16.5639 74.4779 16.5701 73.8079 16.3357 73.2049C16.1283 73.3415 15.942 73.5078 15.7828 73.6986C15.5433 73.9914 15.3853 74.3231 15.1082 74.5952C14.5903 75.1005 13.7616 75.3091 13.0209 75.3286C12.5936 75.3321 12.1664 75.31 11.7416 75.2625Z" fill="#103B66"/>
<path id="Vector_51" d="M12.986 70.3634C13.3166 70.3789 13.6469 70.3291 13.9583 70.2169C14.2696 70.1046 14.5558 69.9321 14.8005 69.7091C15.0451 69.4862 15.2435 69.2172 15.3843 68.9175C15.5251 68.6178 15.6055 68.2933 15.621 67.9625C15.6406 67.5676 15.566 67.1736 15.4035 66.8132C15.2529 66.4764 15.0305 66.1766 14.7517 65.9351C14.473 65.6936 14.1447 65.5161 13.7901 65.4151L13.8043 66.4517L13.2333 65.3219C12.5657 65.2906 11.913 65.526 11.4189 65.9762C10.9247 66.4265 10.6296 67.0547 10.5983 67.7228C10.5671 68.3908 10.8023 69.0439 11.2523 69.5384C11.7022 70.0329 12.3301 70.3283 12.9976 70.3595L12.986 70.3634Z" fill="#21B8F9"/>
<path id="Vector_52" opacity="0.1" d="M12.9859 70.3634C13.3164 70.3789 13.6468 70.3291 13.9581 70.2169C14.2695 70.1046 14.5556 69.9321 14.8003 69.7091C15.045 69.4862 15.2434 69.2172 15.3842 68.9175C15.525 68.6178 15.6054 68.2933 15.6209 67.9625C15.6405 67.5676 15.5659 67.1736 15.4033 66.8132C15.1956 66.9517 15.0151 67.1274 14.8711 67.3315C14.6756 67.6075 14.5526 67.9262 14.3234 68.1815C13.8987 68.6544 13.184 68.8215 12.5404 68.806C11.9163 68.793 11.3155 68.6402 10.6953 68.5922C10.849 69.0871 11.1514 69.5227 11.5612 69.8396C11.971 70.1565 12.4685 70.3394 12.9859 70.3634Z" fill="#103B66"/>
<path id="Vector_53" d="M6.86913 66.2909C7.20361 66.3131 7.53915 66.2684 7.85614 66.1593C8.17313 66.0501 8.46519 65.8789 8.71524 65.6555C8.96529 65.4321 9.1683 65.161 9.3124 64.8581C9.4565 64.5553 9.53879 64.2267 9.55446 63.8916C9.57013 63.5565 9.51887 63.2217 9.40367 62.9067C9.28846 62.5917 9.11164 62.3028 8.88353 62.057C8.65543 61.8112 8.38063 61.6134 8.07521 61.4752C7.76978 61.3369 7.43988 61.261 7.10479 61.2519C6.63604 61.2302 6.17067 61.3411 5.76204 61.5719L6.20746 62.7925L5.28424 61.9166C4.79314 62.3644 4.49936 62.9887 4.4672 63.6528C4.45573 63.8862 4.47753 64.1201 4.53194 64.3473C4.65725 64.8816 4.95323 65.3604 5.375 65.7111C5.79677 66.0618 6.32132 66.2654 6.86913 66.2909Z" fill="#21B8F9"/>
<path id="Vector_54" opacity="0.1" d="M6.86913 66.2911C7.30334 66.3109 7.7353 66.2181 8.12311 66.0217C8.51092 65.8252 8.84142 65.5318 9.08256 65.17C9.32369 64.8081 9.46728 64.39 9.4994 63.9562C9.53152 63.5224 9.45108 63.0877 9.26587 62.6942C9.06624 62.8296 8.89438 63.002 8.75959 63.2021C8.57961 63.4729 8.47084 63.7865 8.25978 64.0353C7.87133 64.4978 7.19672 64.6482 6.58944 64.6209C5.98217 64.5937 5.39431 64.4201 4.78833 64.3618C4.70416 64.354 4.6187 64.3488 4.52936 64.3463C4.65455 64.8812 4.9508 65.3605 5.37311 65.7116C5.79542 66.0626 6.3207 66.2661 6.86913 66.2911Z" fill="#103B66"/>
<path id="Vector_55" d="M87.2073 67.9742C87.2097 67.66 87.1386 67.3497 86.9996 67.068C86.8607 66.7863 86.6577 66.5411 86.4071 66.3519C86.376 65.1638 85.5292 64.1933 84.4402 64.043C84.3561 63.6393 84.1672 63.2649 83.8927 62.9574C83.6181 62.6499 83.2675 62.4201 82.876 62.2912C82.7808 62.261 82.6834 62.238 82.5847 62.2225H82.5562L82.5057 62.216H82.463H82.4203H82.3646H82.3309H82.239C81.128 62.216 80.2035 63.066 80.0132 64.1868C79.2945 64.021 78.6355 64.236 78.5176 64.6908C78.4872 64.8114 78.494 64.9383 78.537 65.0549C78.6588 65.4074 79.055 65.7442 79.5923 65.9114L79.6623 65.9321C79.6972 65.9425 79.7322 65.9503 79.7671 65.958H79.7904C79.5929 66.3795 79.5649 66.8609 79.7121 67.3025C79.8594 67.7441 80.1707 68.1122 80.5816 68.3305C80.5654 68.3393 80.5498 68.3493 80.535 68.3603C80.4686 68.4212 80.4157 68.4954 80.3796 68.5779C80.2498 68.8059 80.1489 69.0493 80.0792 69.3023C80.0274 69.5186 80.0183 69.7454 79.9497 69.9592C79.8319 70.3479 79.5289 70.6887 79.4939 71.102C79.4784 71.286 79.5082 71.5024 79.3774 71.628C79.3448 71.6561 79.3102 71.6816 79.2738 71.7045C79.1821 71.7673 79.1045 71.8485 79.0459 71.9429C79.0078 72.021 78.9565 72.092 78.8944 72.1528C78.7766 72.2422 78.5824 72.2331 78.5241 72.3705C78.4658 72.5078 78.616 72.6698 78.5811 72.8201C78.5526 72.9419 78.4192 72.9976 78.3221 73.0792C78.2135 73.1971 78.1376 73.3414 78.102 73.4977C77.9086 73.5351 77.7093 73.5292 77.5184 73.4806C77.3274 73.432 77.1496 73.3419 76.9975 73.2166C77.0497 73.35 77.0878 73.4886 77.1114 73.6299C76.9574 73.4654 76.7036 73.4174 76.5158 73.3319C76.2737 73.2209 76.0575 73.0602 75.8813 72.8603L76.2206 72.8136L74.7186 70.5332L74.2757 70.4425L74.6733 71.2056C74.6407 71.2213 74.6122 71.2441 74.5897 71.2724C74.5673 71.3006 74.5516 71.3337 74.5438 71.3689C74.5224 71.4535 74.5171 71.5415 74.5282 71.628C74.5493 71.8326 74.5834 72.0356 74.6305 72.2357L74.7458 72.7722C74.7555 72.8225 74.7681 72.8722 74.7833 72.9212C74.6332 72.9157 74.483 72.9328 74.3379 72.9717C74.0402 72.8615 73.7302 72.788 73.4147 72.7527C73.3453 72.7405 73.2741 72.7441 73.2062 72.7631C73.1292 72.7986 73.0624 72.853 73.012 72.9212C72.753 73.2207 72.5232 73.5444 72.3257 73.8878C71.519 75.2923 70.4417 76.518 69.4331 77.7878C68.7364 78.0716 68.0346 78.3411 67.3315 78.608L65.8205 79.1846C65.5188 79.2999 65.2054 79.4178 64.8843 79.3971C64.7393 79.388 64.5632 79.366 64.4816 79.4891C64.4419 79.5501 64.411 79.6164 64.3897 79.686C64.3366 79.686 64.2835 79.699 64.2343 79.7016H64.2252C64.1294 79.4632 64.0465 79.2079 63.8627 79.0343C63.8257 79.04 63.7907 79.0548 63.7608 79.0774C63.731 79.1001 63.7072 79.1298 63.6918 79.1639C63.6555 79.2312 63.6335 79.3051 63.5921 79.3673C63.5105 79.4865 63.3693 79.5448 63.2683 79.6459C63.1673 79.7469 63.1039 79.905 62.9951 80.0035C62.8428 80.1143 62.6643 80.1835 62.4772 80.2043C62.1969 80.2704 61.9265 80.3732 61.6731 80.5101C61.5797 80.5676 61.4797 80.6137 61.3753 80.6475C61.2605 80.6695 61.143 80.6734 61.027 80.6591L60.2268 80.6008C60.1556 80.5915 60.0833 80.5946 60.0131 80.6099C59.9307 80.6401 59.8606 80.6968 59.8137 80.7711C59.7669 80.8454 59.7459 80.9331 59.7542 81.0206C59.7639 81.1074 59.7913 81.1913 59.8348 81.2671C59.8782 81.3428 59.9367 81.4089 60.0066 81.4612C60.1456 81.5631 60.2993 81.643 60.4624 81.6983C61.1578 81.9678 61.8747 82.178 62.6054 82.3267V82.4887C63.1119 82.7439 63.6711 82.877 64.2382 82.8774C64.28 82.8806 64.3219 82.873 64.3599 82.8553C64.4123 82.8159 64.4487 82.7589 64.4622 82.6947C64.632 82.1865 64.7394 81.6596 64.782 81.1256C64.882 81.1191 64.9799 81.0941 65.0708 81.0517C65.3466 80.9766 65.6198 81.1657 65.9033 81.1968C66.2529 81.2344 66.5779 81.031 66.9081 80.9053C66.956 80.8872 67.0039 80.8716 67.0519 80.8561C66.9577 80.978 66.8465 81.0858 66.7217 81.1761C66.5844 81.2746 66.4303 81.3471 66.2957 81.4495C66.1838 81.5518 66.0638 81.645 65.937 81.7281C65.8476 81.7697 65.7554 81.8052 65.6612 81.8343C65.5245 81.8842 65.3942 81.9499 65.2727 82.03C65.164 82.0941 65.0717 82.1829 65.0034 82.2891C64.969 82.3387 64.9479 82.3963 64.942 82.4564C64.9361 82.5165 64.9457 82.5771 64.9698 82.6324C64.994 82.6877 65.0319 82.7359 65.0799 82.7725C65.1279 82.809 65.1845 82.8326 65.2443 82.8411C65.3524 82.8603 65.4628 82.8634 65.5719 82.8502C66.0043 82.8178 66.4355 82.7776 66.8667 82.7387C67.0492 82.7265 67.2306 82.7006 67.4092 82.661C67.5037 82.6377 67.597 82.6066 67.6915 82.5819C67.8528 82.5394 68.0182 82.5146 68.1848 82.5081C68.2332 82.5043 68.2819 82.5091 68.3286 82.5223C68.4296 82.5547 68.5008 82.6519 68.6031 82.6778C68.6695 82.6843 68.7365 82.675 68.7986 82.6506C69.1142 82.582 69.4364 82.5477 69.7594 82.5483C69.9005 82.5405 70.0662 82.5133 70.1323 82.3824C70.2125 82.2204 70.0779 82.039 70.0248 81.8641C69.9977 81.7529 69.983 81.6391 69.9808 81.5246C69.9561 81.2423 69.8751 80.9678 69.7425 80.7174C69.672 80.6006 69.6127 80.4774 69.5651 80.3494C70.1839 80.1139 70.7759 79.8134 71.3313 79.4528C71.6498 79.2546 71.9787 79.0408 72.3387 78.9682C72.7582 78.884 73.1907 78.9954 73.6037 79.1146C74.5876 79.3995 75.5554 79.7373 76.5029 80.1266C76.9561 80.3119 77.4092 80.5088 77.8728 80.6449C78.0083 80.8279 78.1723 80.988 78.3584 81.1191C78.6691 81.3199 79.0485 81.3782 79.4137 81.4067C79.9069 81.4518 80.4023 81.4704 80.8975 81.4624C81.2756 81.456 81.6654 81.4301 82.0033 81.2577C82.0859 81.2153 82.1636 81.1641 82.2351 81.1048C82.4941 81.1515 82.7595 81.0128 82.9628 80.8353C83.2319 80.6063 83.4259 80.3015 83.5196 79.9607C83.6387 79.493 83.5468 78.9475 83.8342 78.5653C83.9106 78.4629 84.0103 78.38 84.0854 78.2763C84.1779 78.1375 84.2233 77.9726 84.2149 77.806L84.2279 77.7865C84.2929 77.6362 84.3365 77.4774 84.3573 77.3149C84.3914 77.188 84.4347 77.0637 84.4868 76.943C84.6328 76.5815 84.7599 76.2126 84.8675 75.8378C84.9424 75.5892 85.0012 75.336 85.0436 75.0798C85.0747 74.8751 85.0928 74.6691 85.1096 74.463C85.1304 74.1406 85.1931 73.8222 85.2961 73.5159C85.5517 72.7849 85.6961 72.0197 85.7247 71.2458C85.7247 71.2303 85.7247 71.216 85.7247 71.2005C86.1006 71.1592 86.4476 70.9791 86.6979 70.6954C86.9481 70.4117 87.0836 70.0447 87.0778 69.6663C87.0781 69.4383 87.0305 69.2127 86.9379 69.0042C87.1166 68.6905 87.2095 68.3352 87.2073 67.9742ZM79.885 76.877C79.907 76.956 79.9329 77.035 79.9588 77.1141C79.8397 76.9962 79.7218 76.8744 79.6014 76.7577C79.6493 76.772 79.6972 76.7875 79.7438 76.8044C79.7935 76.8241 79.8412 76.8484 79.8863 76.877H79.885ZM79.3049 76.4882C78.5979 75.8741 77.7796 75.3973 77.0558 74.8038C77.4442 74.9995 77.8327 75.2262 78.2211 75.4439C78.6734 75.703 79.131 75.951 79.5936 76.1876C79.5177 76.3029 79.4212 76.403 79.3088 76.4831L79.3049 76.4882ZM79.6066 74.9412L79.6403 74.9062C79.6403 74.993 79.6403 75.0746 79.6403 75.1485C79.5768 75.1277 79.5108 75.107 79.4499 75.0837C79.5058 75.0381 79.5586 74.9887 79.6079 74.936L79.6066 74.9412ZM73.3823 76.6048C73.6734 76.2754 73.9267 75.9142 74.1372 75.5281C74.4169 76.0192 74.8727 76.3729 75.2611 76.7837C74.637 76.6955 74.0116 76.6269 73.3836 76.5997L73.3823 76.6048Z" fill="url(#paint0_linear_1_3289)"/>
<path id="Vector_56" d="M63.5739 79.7613C63.6944 80.1599 63.8428 80.5496 64.0181 80.9274C64.5222 80.8218 65.0181 80.6803 65.502 80.5037C65.4083 80.3577 65.3054 80.2179 65.1938 80.0852C65.0749 79.9529 64.9327 79.8435 64.7743 79.7626C64.6202 79.6952 64.4299 79.7457 64.2654 79.7548C64.0349 79.7634 63.8044 79.7656 63.5739 79.7613Z" fill="#FBBEBE"/>
<path id="Vector_57" d="M64.7768 80.3624C64.5256 80.2834 64.3716 80.0294 64.2693 79.7846C64.167 79.5397 64.0841 79.2728 63.8899 79.0927C63.8529 79.0984 63.818 79.1133 63.7881 79.1359C63.7583 79.1585 63.7345 79.1882 63.719 79.2222C63.6814 79.287 63.6594 79.3609 63.6167 79.4231C63.5364 79.5397 63.3939 79.5967 63.2917 79.6964C63.1894 79.7962 63.1259 79.9478 63.0159 80.0476C62.8632 80.1574 62.6848 80.2261 62.4979 80.2471C62.2157 80.3111 61.9431 80.4122 61.6873 80.5477C61.5927 80.6026 61.4918 80.6461 61.3869 80.6773C61.2713 80.6993 61.1529 80.7033 61.036 80.689L60.2294 80.6306C60.1576 80.6217 60.0849 80.6252 60.0144 80.641C59.9322 80.6696 59.862 80.725 59.8151 80.7983C59.7681 80.8716 59.7471 80.9586 59.7554 81.0453C59.7661 81.1316 59.7947 81.2148 59.8393 81.2896C59.8839 81.3643 59.9435 81.4289 60.0144 81.4793C60.1547 81.5796 60.3092 81.6583 60.4728 81.7126C61.1756 81.977 61.8988 82.1837 62.6352 82.3306V82.49C63.1469 82.7435 63.7099 82.8764 64.2809 82.8787C64.3253 82.8826 64.3698 82.875 64.4104 82.8567C64.4629 82.8182 64.4997 82.7621 64.514 82.6986C64.7075 82.1325 64.8204 81.5419 64.8494 80.9442C64.8642 80.7931 64.8528 80.6405 64.8157 80.4933C64.7717 80.3482 64.9219 80.4091 64.782 80.3521" fill="#2F2E41"/>
<path id="Vector_58" d="M80.2423 77.32C77.8508 77.4651 75.489 76.7628 73.0935 76.6877C72.7962 76.6696 72.4978 76.6887 72.2053 76.7447C71.9003 76.8265 71.6051 76.9412 71.3248 77.0868C70.0416 77.6841 68.7131 78.1791 67.3859 78.674L65.8632 79.2416C65.5576 79.3543 65.2429 79.4696 64.9179 79.4502C64.7729 79.4411 64.5955 79.4191 64.5126 79.5409C64.2653 79.9076 64.3832 80.4479 64.5463 80.8599C64.5994 80.9895 64.6887 81.1385 64.8312 81.154C64.9319 81.1471 65.0306 81.1221 65.1225 81.0802C65.3996 81.0063 65.6767 81.1929 65.9616 81.2227C66.3151 81.2603 66.6427 81.0594 66.9754 80.9363C67.527 80.7329 68.1304 80.7394 68.7105 80.6422C69.6842 80.4803 70.5854 80.028 71.4297 79.5124C71.7508 79.3167 72.0771 79.1068 72.4448 79.0355C72.8682 78.9526 73.3046 79.0614 73.7202 79.1794C74.7111 79.4601 75.6866 79.7927 76.6427 80.1758C77.1403 80.3921 77.6505 80.5782 78.1706 80.7329C79.304 81.0315 80.503 80.9617 81.5941 80.5334C81.9826 80.3818 82.3917 80.1149 82.4138 79.7015C82.4267 79.4657 82.2441 79.2584 82.1224 79.0537C82.0434 78.9241 81.9657 78.7945 81.8803 78.6714C81.4685 78.0702 80.9687 77.2759 80.2423 77.32Z" fill="#2F2E41"/>
<path id="Vector_59" opacity="0.1" d="M80.2423 77.32C77.8508 77.4651 75.489 76.7628 73.0935 76.6877C72.7962 76.6696 72.4978 76.6887 72.2053 76.7447C71.9003 76.8265 71.6051 76.9412 71.3248 77.0868C70.0416 77.6841 68.7131 78.1791 67.3859 78.674L65.8632 79.2416C65.5576 79.3543 65.2429 79.4696 64.9179 79.4502C64.7729 79.4411 64.5955 79.4191 64.5126 79.5409C64.2653 79.9076 64.3832 80.4479 64.5463 80.8599C64.5994 80.9895 64.6887 81.1385 64.8312 81.154C64.9319 81.1471 65.0306 81.1221 65.1225 81.0802C65.3996 81.0063 65.6767 81.1929 65.9616 81.2227C66.3151 81.2603 66.6427 81.0594 66.9754 80.9363C67.527 80.7329 68.1304 80.7394 68.7105 80.6422C69.6842 80.4803 70.5854 80.028 71.4297 79.5124C71.7508 79.3167 72.0771 79.1068 72.4448 79.0355C72.8682 78.9526 73.3046 79.0614 73.7202 79.1794C74.7111 79.4601 75.6866 79.7927 76.6427 80.1758C77.1403 80.3921 77.6505 80.5782 78.1706 80.7329C79.304 81.0315 80.503 80.9617 81.5941 80.5334C81.9826 80.3818 82.3917 80.1149 82.4138 79.7015C82.4267 79.4657 82.2441 79.2584 82.1224 79.0537C82.0434 78.9241 81.9657 78.7945 81.8803 78.6714C81.4685 78.0702 80.9687 77.2759 80.2423 77.32Z" fill="#103B66"/>
<path id="Vector_60" d="M68.1642 79.8779C68.5389 80.0049 68.9161 80.1224 69.2959 80.2303C69.5096 79.8792 69.9084 79.6356 69.999 79.2352C70.0042 79.2179 70.0042 79.1994 69.999 79.1821C69.9891 79.1651 69.9742 79.1515 69.9563 79.1432C69.6833 78.9926 69.3804 78.9041 69.0693 78.8841C68.8233 78.8685 68.7119 79.1251 68.6006 79.3052C68.5617 79.3778 68.2639 79.9116 68.1642 79.8779Z" fill="#FBBEBE"/>
<path id="Vector_61" d="M68.6911 79.6214C68.5793 79.6028 68.4726 79.561 68.3779 79.4988C68.2831 79.4365 68.2024 79.3552 68.1408 79.2599C68.0878 79.1679 68.0321 79.0435 67.9259 79.05C67.8197 79.0565 67.7835 79.1731 67.7615 79.2703C67.6898 79.6333 67.5862 79.9892 67.452 80.334C67.3166 80.6799 67.0875 80.981 66.7903 81.2035C66.6518 81.2993 66.4977 81.3719 66.3617 81.473C66.2484 81.5741 66.1272 81.666 65.9992 81.7477C65.909 81.7889 65.816 81.8236 65.7208 81.8513C65.5813 81.9001 65.4479 81.9649 65.3233 82.0444C65.2141 82.1084 65.1214 82.1972 65.0527 82.3035C65.0195 82.3575 65.0001 82.4188 64.996 82.482C64.9919 82.5453 65.0034 82.6085 65.0294 82.6663C65.0573 82.7133 65.0948 82.7538 65.1394 82.7853C65.184 82.8168 65.2347 82.8385 65.2883 82.849C65.3975 82.8672 65.5086 82.8698 65.6185 82.8568C66.0549 82.8244 66.4899 82.7855 66.925 82.7467C67.1092 82.7353 67.2923 82.7101 67.4727 82.6715C67.5685 82.6482 67.6618 82.6171 67.7563 82.5925C67.9194 82.5509 68.0865 82.5265 68.2548 82.5199C68.3036 82.5162 68.3527 82.521 68.3998 82.5342C68.5008 82.5666 68.572 82.6637 68.6756 82.6871C68.7423 82.694 68.8098 82.6851 68.8724 82.6611C69.1909 82.5937 69.5155 82.5598 69.841 82.5601C69.9834 82.5523 70.1517 82.5251 70.2165 82.3968C70.298 82.2374 70.1634 82.0586 70.109 81.8876C70.0821 81.7781 70.0669 81.666 70.0637 81.5533C70.0392 81.2749 69.9576 81.0045 69.8241 80.759C69.7128 80.5543 69.5652 80.3289 69.639 80.1112C69.6787 80.0432 69.7038 79.9678 69.7128 79.8896C69.6946 79.5385 68.888 79.668 68.6911 79.6214Z" fill="#2F2E41"/>
<path id="Vector_62" d="M40.632 76.3444L42.3568 75.3299C42.1237 74.9312 41.8256 74.5743 41.475 74.2739L38.2223 75.2858L40.7706 73.7867C40.1396 73.4409 39.4295 73.2655 38.7101 73.2777C37.9908 73.2899 37.2871 73.4893 36.6681 73.8563C36.0492 74.2233 35.5364 74.7453 35.1803 75.3708C34.8241 75.9963 34.6369 76.7038 34.6369 77.4237C34.6369 79.7133 36.4924 79.7923 38.7804 79.7923C41.0684 79.7923 42.9239 79.7133 42.9239 77.4237C42.9253 76.8434 42.8039 76.2694 42.5678 75.7393L40.632 76.3444Z" fill="#21B8F9"/>
<path id="Vector_63" opacity="0.1" d="M41.071 78.5703C40.8873 78.3861 40.6821 78.2247 40.4598 78.0896C40.1478 77.881 39.8227 77.6685 39.4537 77.5985C39.13 77.5363 38.7959 77.5894 38.4658 77.57C37.8924 77.535 37.3528 77.2874 36.9521 76.8755C36.7164 76.6319 36.5313 76.3326 36.2477 76.146C35.9308 75.9576 35.5568 75.8891 35.1937 75.953C35.0885 75.9676 34.9843 75.9888 34.8817 76.0165C34.7194 76.4678 34.6366 76.9439 34.6369 77.4236C34.6369 79.7131 36.4924 79.7921 38.7804 79.7921C39.8914 79.7921 40.8988 79.774 41.6433 79.4928L41.5138 79.2609C41.3962 79.0128 41.2474 78.7807 41.071 78.5703Z" fill="#103B66"/>
<path id="Vector_64" d="M74.3924 70.6315L74.8391 70.7222L76.3605 72.9716L75.6885 73.0623L74.3924 70.6315Z" fill="#2F2E41"/>
<path id="Vector_65" d="M76.657 73.4822C76.2333 73.2951 75.8938 72.9577 75.704 72.535C75.6651 72.4443 75.6315 72.3497 75.5939 72.2577C75.4679 71.9536 75.2728 71.683 75.0242 71.4674C74.9976 71.438 74.9649 71.4149 74.9285 71.3994C74.892 71.384 74.8527 71.3767 74.8131 71.378C74.7749 71.3893 74.7403 71.4107 74.713 71.4398C74.6857 71.469 74.6666 71.5049 74.6577 71.5438C74.6355 71.6283 74.6298 71.7163 74.6409 71.8029C74.663 72.004 74.6976 72.2035 74.7445 72.4003L74.861 72.9289C74.8757 73.0101 74.9001 73.0893 74.9335 73.1647C74.9834 73.2534 75.0492 73.3321 75.1278 73.3967C75.2339 73.4951 75.3414 73.5897 75.4502 73.6817C75.5101 73.736 75.5757 73.7838 75.6457 73.8243C75.7606 73.8788 75.8834 73.9146 76.0095 73.9305C76.4848 74.0186 76.9677 74.1456 77.3678 74.4488C77.3678 74.4488 77.3678 74.0951 77.3588 74.0601C77.3539 73.9576 77.3188 73.8588 77.2578 73.7763C77.1076 73.6144 76.8486 73.5664 76.657 73.4822Z" fill="#FBBEBE"/>
<path id="Vector_66" opacity="0.1" d="M76.657 73.4822C76.2333 73.2951 75.8938 72.9577 75.704 72.535C75.6651 72.4443 75.6315 72.3497 75.5939 72.2577C75.4679 71.9536 75.2728 71.683 75.0242 71.4674C74.9976 71.438 74.9649 71.4149 74.9285 71.3994C74.892 71.384 74.8527 71.3767 74.8131 71.378C74.7749 71.3893 74.7403 71.4107 74.713 71.4398C74.6857 71.469 74.6666 71.5049 74.6577 71.5438C74.6355 71.6283 74.6298 71.7163 74.6409 71.8029C74.663 72.004 74.6976 72.2035 74.7445 72.4003L74.861 72.9289C74.8757 73.0101 74.9001 73.0893 74.9335 73.1647C74.9834 73.2534 75.0492 73.3321 75.1278 73.3967C75.2339 73.4951 75.3414 73.5897 75.4502 73.6817C75.5101 73.736 75.5757 73.7838 75.6457 73.8243C75.7606 73.8788 75.8834 73.9146 76.0095 73.9305C76.4848 74.0186 76.9677 74.1456 77.3678 74.4488C77.3678 74.4488 77.3678 74.0951 77.3588 74.0601C77.3539 73.9576 77.3188 73.8588 77.2578 73.7763C77.1076 73.6144 76.8486 73.5664 76.657 73.4822Z" fill="#103B66"/>
<path id="Vector_67" d="M81.5257 69.4397C81.8468 69.4397 82.1071 69.1774 82.1071 68.854C82.1071 68.5306 81.8468 68.2683 81.5257 68.2683C81.2046 68.2683 80.9443 68.5306 80.9443 68.854C80.9443 69.1774 81.2046 69.4397 81.5257 69.4397Z" fill="#2F2E41"/>
<path id="Vector_68" d="M81.1657 68.5002C81.0096 68.4645 80.8458 68.4881 80.706 68.5662C80.6388 68.6257 80.5854 68.6991 80.5494 68.7813C80.4186 69.005 80.3168 69.2445 80.2464 69.494C80.1946 69.7077 80.1855 69.9306 80.1169 70.1418C79.9978 70.5305 79.6922 70.8609 79.6572 71.2665C79.6417 71.4479 79.6715 71.6617 79.5394 71.7848C79.5066 71.8123 79.4715 71.837 79.4345 71.8586C79.3425 71.9204 79.2645 72.0007 79.2053 72.0944C79.1658 72.1786 79.1109 72.2546 79.0435 72.3186C78.9243 72.4067 78.7288 72.3976 78.6705 72.5337C78.6123 72.6697 78.7625 72.8278 78.7275 72.9755C78.699 73.096 78.5644 73.1517 78.4685 73.2347C78.3594 73.3503 78.283 73.493 78.2471 73.648C78.0526 73.6846 77.8525 73.6787 77.6605 73.6306C77.4685 73.5825 77.2892 73.4934 77.1349 73.3694C77.2967 73.7698 77.3006 74.2116 77.3071 74.6431C77.3257 74.7811 77.2889 74.9209 77.2048 75.0318C77.6683 75.0422 78.1189 75.1614 78.5708 75.2689C78.7641 75.3337 78.9732 75.3337 79.1665 75.2689C79.2698 75.2132 79.3623 75.1395 79.4397 75.0512C79.6857 74.8012 79.9434 74.533 80.0029 74.1844C80.0187 73.9883 80.0222 73.7914 80.0133 73.5949C80.0371 73.3522 80.087 73.1128 80.1622 72.8809C80.2922 72.3995 80.3789 71.9073 80.4212 71.4103C80.4484 71.1032 80.7125 70.857 80.8524 70.5824C81.1113 70.0641 81.3832 69.5264 81.404 68.9459C81.4221 68.7567 81.3573 68.5248 81.1657 68.5002Z" fill="#2F2E41"/>
<path id="Vector_69" opacity="0.1" d="M81.1657 68.5002C81.0096 68.4645 80.8458 68.4881 80.706 68.5662C80.6388 68.6257 80.5854 68.6991 80.5494 68.7813C80.4186 69.005 80.3168 69.2445 80.2464 69.494C80.1946 69.7077 80.1855 69.9306 80.1169 70.1418C79.9978 70.5305 79.6922 70.8609 79.6572 71.2665C79.6417 71.4479 79.6715 71.6617 79.5394 71.7848C79.5066 71.8123 79.4715 71.837 79.4345 71.8586C79.3425 71.9204 79.2645 72.0007 79.2053 72.0944C79.1658 72.1786 79.1109 72.2546 79.0435 72.3186C78.9243 72.4067 78.7288 72.3976 78.6705 72.5337C78.6123 72.6697 78.7625 72.8278 78.7275 72.9755C78.699 73.096 78.5644 73.1517 78.4685 73.2347C78.3594 73.3503 78.283 73.493 78.2471 73.648C78.0526 73.6846 77.8525 73.6787 77.6605 73.6306C77.4685 73.5825 77.2892 73.4934 77.1349 73.3694C77.2967 73.7698 77.3006 74.2116 77.3071 74.6431C77.3257 74.7811 77.2889 74.9209 77.2048 75.0318C77.6683 75.0422 78.1189 75.1614 78.5708 75.2689C78.7641 75.3337 78.9732 75.3337 79.1665 75.2689C79.2698 75.2132 79.3623 75.1395 79.4397 75.0512C79.6857 74.8012 79.9434 74.533 80.0029 74.1844C80.0187 73.9883 80.0222 73.7914 80.0133 73.5949C80.0371 73.3522 80.087 73.1128 80.1622 72.8809C80.2922 72.3995 80.3789 71.9073 80.4212 71.4103C80.4484 71.1032 80.7125 70.857 80.8524 70.5824C81.1113 70.0641 81.3832 69.5264 81.404 68.9459C81.4221 68.7567 81.3573 68.5248 81.1657 68.5002Z" fill="#103B66"/>
<path id="Vector_70" d="M80.6218 77.8243C80.1233 77.5872 79.7594 77.1453 79.3567 76.767C78.5876 76.044 77.6475 75.5334 76.8396 74.8558C76.3048 74.4075 75.8257 73.8853 75.2365 73.5095C74.7184 73.1787 74.1307 72.9725 73.5196 72.907C73.4498 72.8948 73.3781 72.8984 73.3098 72.9174C73.2326 72.952 73.1654 73.0055 73.1143 73.0729C72.8532 73.3673 72.6213 73.6862 72.4216 74.0252C71.3973 75.7641 69.9432 77.2269 68.7377 78.8453C68.6991 78.8834 68.6761 78.9347 68.6735 78.9889C68.6709 79.0432 68.6887 79.0964 68.7235 79.1381L68.9682 79.6188C69.1055 79.887 69.3256 80.2006 69.6156 80.1475C69.7487 80.1091 69.8679 80.0331 69.9588 79.9285L71.0594 78.8751L72.2131 77.7711C72.889 77.1233 73.5766 76.4625 74.0181 75.6358C74.3625 76.2331 74.9737 76.6244 75.3932 77.1725C75.5525 77.3798 75.682 77.6092 75.8244 77.8294C76.0536 78.1832 76.3126 78.5149 76.5715 78.8453L77.8961 80.5362C78.0633 80.777 78.2704 80.9874 78.5086 81.1581C78.822 81.3564 79.2039 81.4095 79.573 81.4419C80.0701 81.4873 80.5694 81.5054 81.0685 81.4963C81.4492 81.4898 81.8454 81.4652 82.1821 81.2955C82.5187 81.1257 82.8049 80.7772 82.7868 80.3975C82.7662 80.1986 82.7011 80.0069 82.5964 79.8365C82.129 78.9684 81.51 78.2428 80.6218 77.8243Z" fill="#2F2E41"/>
<path id="Vector_71" d="M81.883 69.709C82.1297 69.709 82.3298 69.5077 82.3298 69.2594C82.3298 69.0111 82.1297 68.8098 81.883 68.8098C81.6363 68.8098 81.4363 69.0111 81.4363 69.2594C81.4363 69.5077 81.6363 69.709 81.883 69.709Z" fill="#E8E8F0"/>
<path id="Vector_72" d="M81.7845 68.9211C81.8854 69.1222 81.9031 69.355 81.8337 69.569C81.7646 69.7795 81.6679 69.9799 81.5462 70.165C81.4414 70.3562 81.3159 70.5352 81.172 70.6989C81.8621 70.7325 82.5316 70.4617 83.1402 70.1326C83.6309 69.8735 84.1203 69.5431 84.3819 69.0494C84.304 69.068 84.2232 69.0701 84.1445 69.0556C84.0658 69.0411 83.991 69.0103 83.9248 68.9652C83.7931 68.8734 83.675 68.7635 83.5739 68.6387L83.2282 68.25C83.1465 68.1647 83.0749 68.0703 83.0145 67.9688C82.9389 67.8309 82.9068 67.6732 82.9226 67.5166C82.785 67.6608 82.6312 67.7886 82.4642 67.8975C82.2169 68.0595 81.9463 68.1761 81.6964 68.3355C81.6084 68.3925 81.4128 68.4845 81.4633 68.5946C81.5138 68.7048 81.7145 68.7968 81.7845 68.9211Z" fill="#FBBEBE"/>
<path id="Vector_73" opacity="0.1" d="M81.7845 68.9211C81.8854 69.1222 81.9031 69.355 81.8337 69.569C81.7646 69.7795 81.6679 69.9799 81.5462 70.165C81.4414 70.3562 81.3159 70.5352 81.172 70.6989C81.8621 70.7325 82.5316 70.4617 83.1402 70.1326C83.6309 69.8735 84.1203 69.5431 84.3819 69.0494C84.304 69.068 84.2232 69.0701 84.1445 69.0556C84.0658 69.0411 83.991 69.0103 83.9248 68.9652C83.7931 68.8734 83.675 68.7635 83.5739 68.6387L83.2282 68.25C83.1465 68.1647 83.0749 68.0703 83.0145 67.9688C82.9389 67.8309 82.9068 67.6732 82.9226 67.5166C82.785 67.6608 82.6312 67.7886 82.4642 67.8975C82.2169 68.0595 81.9463 68.1761 81.6964 68.3355C81.6084 68.3925 81.4128 68.4845 81.4633 68.5946C81.5138 68.7048 81.7145 68.7968 81.7845 68.9211Z" fill="#103B66"/>
<path id="Vector_74" d="M81.7936 68.9888C81.7238 69.0875 81.6863 69.2054 81.6863 69.3264C81.6863 69.4473 81.7238 69.5652 81.7936 69.6639C81.813 69.6885 81.8868 69.8427 81.9231 69.844C81.9536 69.8414 81.982 69.827 82.0021 69.8038C82.1585 69.6402 82.3047 69.4672 82.4397 69.2855C82.5762 69.1016 82.7735 68.9721 82.9965 68.9201C83.2671 68.8774 83.5274 69.0212 83.7644 69.1586C83.8662 69.2092 83.9548 69.2828 84.0233 69.3736C84.0732 69.4638 84.1029 69.5637 84.1101 69.6665C84.1781 70.2842 84.2041 70.9059 84.1878 71.5271C84.2004 71.975 84.1709 72.4232 84.0997 72.8656C84.0557 73.0936 83.9897 73.3165 83.9586 73.5471C83.9359 73.7502 83.9268 73.9545 83.9314 74.1587V75.0139C83.9257 75.1705 83.937 75.3274 83.9651 75.4816C84.0185 75.6656 84.0812 75.8468 84.1528 76.0245C84.2159 76.236 84.2592 76.4529 84.2823 76.6724L84.3988 77.5574C84.4364 77.8372 84.4636 78.1417 84.294 78.3659C84.2189 78.4682 84.1179 78.5486 84.035 78.6496C83.7436 79.0202 83.8408 79.5579 83.7113 80.0179C83.6155 80.3554 83.4195 80.6559 83.1493 80.8795C82.9434 81.0545 82.6767 81.1931 82.4099 81.1387C82.0513 81.0713 81.835 80.6969 81.7366 80.3431C81.6382 79.9894 81.6071 79.6033 81.3909 79.3066C81.2174 79.0617 80.9494 78.9088 80.7072 78.7338C80.4651 78.5589 80.2268 78.3348 80.1737 78.0394C80.1504 77.9098 80.1647 77.7802 80.1517 77.6506C80.1325 77.4855 80.0692 77.3286 79.9685 77.1964C79.8678 77.0642 79.7334 76.9615 79.5794 76.8991C79.3955 76.8279 79.1676 76.8019 79.0615 76.64C79.3251 76.4743 79.5172 76.2159 79.6001 75.9157C79.6805 75.6198 79.724 75.3152 79.7296 75.0087L79.7918 73.9799C79.8189 73.5199 79.8319 73.0638 80.0339 72.6505C80.1245 72.4665 80.2372 72.2929 80.3304 72.1102C80.4553 71.8538 80.5618 71.5888 80.6489 71.3172C80.7953 70.8961 80.9429 70.4737 81.0737 70.0474C81.126 69.841 81.2043 69.642 81.3067 69.4553C81.4272 69.2609 81.5864 69.0277 81.7936 68.9888Z" fill="#E8E8F0"/>
<path id="Vector_75" d="M79.5107 75.6732L79.7827 75.6823L79.8409 75.2716C79.8487 75.1894 79.8678 75.1087 79.8979 75.0319C79.9431 74.9508 79.9955 74.874 80.0546 74.8025C80.3226 74.4242 80.3032 73.9214 80.3692 73.4615C80.4573 72.8486 80.7137 72.2733 80.9675 71.7084L81.4958 70.5306C81.5428 70.4338 81.5806 70.3327 81.6084 70.2287C81.6315 70.114 81.6424 69.9971 81.6408 69.8801C81.6408 69.6987 81.7004 69.0366 81.7043 68.8539C81.7043 68.7866 81.5566 68.8241 81.5256 68.7645C81.4595 68.635 81.3689 68.9874 81.2446 69.0651C81.1274 69.1548 81.0421 69.2797 81.0011 69.4215C80.8872 69.7182 80.8173 70.0304 80.7111 70.3285C80.6179 70.6336 80.4481 70.9098 80.2177 71.1305C80.1103 71.2264 79.9847 71.3015 79.8824 71.4026C79.5535 71.7278 79.5224 72.2409 79.5107 72.6983C79.503 72.9821 79.4499 75.6732 79.5107 75.6732Z" fill="#2F2E41"/>
<path id="Vector_76" d="M77.2462 74.2543C77.0359 74.1443 76.8455 73.9997 76.683 73.8267C76.6091 73.7399 76.5535 73.6427 76.4732 73.5572C76.283 73.3543 76.0362 73.2135 75.7649 73.1529C75.4955 73.0935 75.2198 73.067 74.944 73.0739C74.7597 73.0612 74.5747 73.0836 74.3989 73.14C74.3105 73.1689 74.231 73.2197 74.1676 73.2876C74.1042 73.3556 74.059 73.4385 74.0363 73.5287C73.9962 73.749 74.1399 73.9628 74.3121 74.1027C74.4722 74.2336 74.6607 74.3255 74.8624 74.3709C75.027 74.3994 75.1929 74.4189 75.3596 74.4292C76.3385 74.5316 77.2125 75.0641 78.0697 75.55C78.8233 75.9759 79.5916 76.3745 80.3746 76.746C80.4056 76.5115 80.4186 76.275 80.4134 76.0385C80.4134 75.8623 80.4005 75.5928 80.2334 75.4891C80.0392 75.3673 79.7155 75.3401 79.5005 75.2675C78.9959 75.1028 78.5031 74.9037 78.0257 74.6715C77.7551 74.5407 77.4961 74.402 77.2462 74.2543Z" fill="#FBBEBE"/>
<path id="Vector_77" d="M83.4277 68.4976C83.1687 68.6013 83.0185 68.8864 82.9447 69.1636C82.8709 69.4409 82.8398 69.7337 82.6974 69.9799C82.3659 70.5578 81.5204 70.7263 81.286 71.3508C81.2264 71.5617 81.1946 71.7795 81.1915 71.9986C81.1501 72.4457 81.0025 72.8784 80.9584 73.3254C80.9356 73.6732 80.9438 74.0222 80.983 74.3685L81.2796 77.8967C81.3371 78.4163 81.3069 78.9419 81.1902 79.4516C81.4943 79.4954 81.8045 79.4442 82.0785 79.3051C82.3569 79.1756 82.6106 79.0045 82.8774 78.8568C83.337 78.5977 83.8446 78.4228 84.246 78.0794C84.3188 78.0226 84.3815 77.9538 84.4312 77.876C84.4956 77.7276 84.5392 77.5711 84.5607 77.4108C84.5947 77.286 84.638 77.1638 84.6901 77.0454C84.8388 76.6898 84.9685 76.3265 85.0786 75.957C85.154 75.712 85.2132 75.4622 85.256 75.2094C85.2883 75.0086 85.3052 74.8051 85.3233 74.603C85.344 74.2851 85.4072 73.9713 85.5111 73.6701C85.7679 72.9515 85.9133 72.1977 85.9422 71.435C85.9512 71.3248 85.9438 71.2139 85.9202 71.1059C85.8755 70.9749 85.8155 70.8497 85.7415 70.7327C85.6185 70.5008 85.5447 70.2455 85.4282 70.011C85.1692 69.4798 84.7044 69.0768 84.2188 68.7386C83.9702 68.5741 83.697 68.3953 83.4277 68.4976Z" fill="#2F2E41"/>
<path id="Vector_78" d="M83.9263 70.4878C83.7874 70.683 83.6739 70.895 83.5883 71.1188C83.3721 71.5632 83.0341 71.9442 82.8658 72.4145C82.6871 72.903 82.6936 73.4848 82.3479 73.8696C82.2784 73.9279 82.226 74.0041 82.1964 74.0899C82.1942 74.1434 82.1882 74.1966 82.1782 74.2492C82.129 74.3892 81.8999 74.3957 81.8571 74.5382C81.8455 74.5796 81.8571 74.625 81.8364 74.6678C81.8015 74.7597 81.681 74.7727 81.5995 74.8284C81.4298 74.9437 81.47 75.2107 81.3405 75.3765C81.2879 75.4381 81.2199 75.4846 81.1435 75.5115C81.0671 75.5383 80.985 75.5445 80.9054 75.5294C80.7467 75.4959 80.5939 75.4387 80.4522 75.3597C80.4024 75.3316 80.3473 75.3144 80.2904 75.3091C80.2228 75.3106 80.1572 75.3327 80.1026 75.3726C79.7802 75.5773 79.6287 75.9842 79.6313 76.3677C79.6541 76.7513 79.7448 77.1277 79.8993 77.4794C79.9176 77.5402 79.948 77.5967 79.9887 77.6453C80.0949 77.758 80.2813 77.7399 80.4238 77.6764C80.5572 77.5973 80.6993 77.5339 80.8472 77.4872C81.1165 77.438 81.3806 77.6246 81.6538 77.609C81.8537 77.5786 82.0419 77.4954 82.199 77.368C82.4763 77.1995 82.7246 76.9873 82.9344 76.7396C83.0535 76.5828 83.1416 76.404 83.2465 76.2369C83.3804 76.0315 83.5275 75.835 83.6867 75.6486L84.6928 74.4164C84.7937 74.2997 84.8843 74.1744 84.9634 74.0419C85.0541 73.8628 85.1249 73.6742 85.1745 73.4796C85.2822 73.1549 85.3522 72.8188 85.3829 72.478C85.3881 72.1959 85.3633 71.914 85.3091 71.6371C85.2754 71.3617 85.2025 71.0925 85.0929 70.8376C84.8689 70.3841 84.3367 70.0084 83.9263 70.4878Z" fill="#2F2E41"/>
<path id="Vector_79" d="M81.5257 68.7204C82.4889 68.7204 83.2698 67.9343 83.2698 66.9647C83.2698 65.9951 82.4889 65.209 81.5257 65.209C80.5624 65.209 79.7815 65.9951 79.7815 66.9647C79.7815 67.9343 80.5624 68.7204 81.5257 68.7204Z" fill="#FBBEBE"/>
<path id="Vector_80" d="M87.43 68.201C87.4314 67.8897 87.3589 67.5825 87.2184 67.3048C87.0779 67.027 86.8736 66.7866 86.6221 66.6034C86.6145 66.0508 86.411 65.5188 86.0479 65.1023C85.6848 64.6859 85.1858 64.412 84.6397 64.3294C84.5341 63.806 84.2473 63.3366 83.8298 63.004C83.4123 62.6714 82.8908 62.4969 82.3574 62.5113C81.8239 62.5257 81.3127 62.7281 80.9137 63.0827C80.5147 63.4374 80.2536 63.9215 80.1764 64.4499C79.4513 64.2867 78.7883 64.4992 78.6679 64.9462C78.5384 65.4139 79.0563 65.9607 79.8229 66.168C80.0631 66.236 80.3134 66.261 80.5622 66.2419C80.7405 66.5038 80.9715 66.7256 81.2404 66.8929C81.5093 67.0603 81.8102 67.1695 82.1238 67.2137C82.2159 67.6363 82.4241 68.0248 82.7249 68.3355C83.0257 68.6461 83.4073 68.8666 83.8265 68.972C83.9425 69.2524 84.1226 69.5018 84.3522 69.7001C84.3522 69.7546 84.3432 69.8103 84.3432 69.8673C84.3348 70.0665 84.3668 70.2653 84.4372 70.4518C84.5077 70.6383 84.6151 70.8086 84.7529 70.9525C84.8908 71.0963 85.0564 71.2108 85.2396 71.289C85.4229 71.3673 85.6201 71.4076 85.8193 71.4076C86.0185 71.4076 86.2157 71.3673 86.3989 71.289C86.5822 71.2108 86.7477 71.0963 86.8856 70.9525C87.0235 70.8086 87.1309 70.6383 87.2013 70.4518C87.2717 70.2653 87.3037 70.0665 87.2954 69.8673C87.2954 69.6437 87.2473 69.4227 87.1543 69.2194C87.3363 68.911 87.4316 68.5592 87.43 68.201Z" fill="#F86D70"/>
<path id="Vector_81" opacity="0.1" d="M84.8351 69.9579C84.8351 69.9009 84.8351 69.8452 84.8442 69.7895C84.6145 69.5917 84.4344 69.3427 84.3185 69.0626C83.8995 68.9561 83.5184 68.7352 83.2177 68.4245C82.917 68.1137 82.7086 67.7255 82.6157 67.303C82.3021 67.2591 82.0011 67.1499 81.7322 66.9826C81.4632 66.8152 81.2323 66.5933 81.0542 66.3312C80.9091 66.3427 80.7633 66.3388 80.6191 66.3196C80.7981 66.561 81.0233 66.7644 81.2816 66.9179C81.5399 67.0714 81.8262 67.1719 82.1237 67.2136C82.2158 67.6363 82.424 68.0248 82.7248 68.3354C83.0256 68.6461 83.4072 68.8665 83.8264 68.9719C83.9424 69.2524 84.1225 69.5018 84.3521 69.7001C84.3521 69.7545 84.3431 69.8102 84.3431 69.8672C84.3365 70.2644 84.4872 70.6482 84.7622 70.9346C85.0373 71.2211 85.4145 71.387 85.8114 71.3962C85.5217 71.2843 85.2731 71.0867 85.0986 70.8297C84.9241 70.5727 84.8322 70.2686 84.8351 69.9579Z" fill="#103B66"/>
<path id="Vector_82" opacity="0.1" d="M79.16 65.0355C79.2804 64.5885 79.9369 64.376 80.6685 64.5392C80.7536 64.0026 81.0254 63.5132 81.436 63.1576C81.8465 62.802 82.3695 62.603 82.9124 62.5956C82.9629 62.5956 83.0134 62.5956 83.0626 62.5956C82.8528 62.5316 82.6346 62.4993 82.4152 62.4998C81.8722 62.5071 81.3493 62.7061 80.9388 63.0617C80.5282 63.4174 80.2564 63.9067 80.1713 64.4433C79.4462 64.2801 78.7832 64.4926 78.6628 64.9396C78.5333 65.4074 79.0512 65.9542 79.8178 66.1615C79.9604 66.201 80.1065 66.2262 80.2541 66.2366C79.5264 66.0241 79.037 65.4929 79.16 65.0355Z" fill="#103B66"/>
<path id="Vector_83" d="M7.24854 58.1928C7.26801 57.7707 7.39339 57.3602 7.61312 56.9992C7.83285 56.6383 8.13985 56.3385 8.50582 56.1275L9.07037 57.2444L9.05354 55.8917C9.32283 55.8129 9.60327 55.7792 9.88353 55.7919C10.3813 55.8153 10.861 55.9858 11.262 56.282C11.6629 56.5781 11.9671 56.9866 12.1361 57.4557C12.305 57.9249 12.3312 58.4336 12.2112 58.9176C12.0912 59.4016 11.8305 59.8392 11.462 60.1749C11.0935 60.5107 10.6338 60.7295 10.1411 60.8039C9.64829 60.8782 9.14455 60.8046 8.69355 60.5925C8.24255 60.3803 7.86455 60.0391 7.60734 59.612C7.35013 59.1848 7.22527 58.691 7.24854 58.1928Z" fill="#21B8F9"/>
<path id="Vector_84" opacity="0.1" d="M7.58786 58.8653C8.16924 58.9288 8.73379 59.1102 9.31776 59.1464C9.90173 59.1827 10.5427 59.0428 10.9117 58.588C11.1111 58.3444 11.2095 58.0347 11.3779 57.7678C11.5368 57.5193 11.7548 57.3141 12.0123 57.1705C12.1741 57.4901 12.2659 57.8405 12.2817 58.1984C12.2975 58.5563 12.2369 58.9135 12.1039 59.2461C11.971 59.5787 11.7687 59.8792 11.5106 60.1275C11.2525 60.3757 10.9445 60.5661 10.6071 60.6859C10.2697 60.8057 9.91064 60.8522 9.55388 60.8223C9.19712 60.7924 8.85083 60.6867 8.53808 60.5124C8.22533 60.338 7.9533 60.099 7.74011 59.8112C7.52692 59.5233 7.37746 59.1934 7.3017 58.8432C7.39751 58.8484 7.49204 58.8549 7.58786 58.8653Z" fill="#103B66"/>
</g>
<defs>
<linearGradient id="paint0_linear_1_3289" x1="73.482" y1="82.8787" x2="73.482" y2="62.194" gradientUnits="userSpaceOnUse">
<stop stop-color="#808080" stop-opacity="0.25"/>
<stop offset="0.54" stop-color="#808080" stop-opacity="0.12"/>
<stop offset="1" stop-color="#808080" stop-opacity="0.1"/>
</linearGradient>
<clipPath id="clip0_1_3289">
<rect width="148" height="86" fill="white"/>
</clipPath>
</defs>
</svg>
