<svg width="170" height="85" viewBox="0 0 170 85" fill="none" xmlns="http://www.w3.org/2000/svg">
<g id="undraw_select_player_64ca 1" clip-path="url(#clip0_1_3380)">
<path id="Vector" d="M144.642 33.2349C145.322 32.2675 145.407 31.1589 144.834 30.7586C144.261 30.3584 143.246 30.8182 142.567 31.7855C141.888 32.7529 141.802 33.8616 142.375 34.2618C142.948 34.662 143.963 34.2023 144.642 33.2349Z" fill="#21B8F9"/>
<path id="Vector_2" d="M168.119 84.5389H1.88642C1.41998 84.5383 0.972802 84.3533 0.642979 84.0243C0.313155 83.6954 0.127624 83.2493 0.127075 82.7841V1.75476C0.12762 1.28954 0.313155 0.843523 0.642979 0.514558C0.972803 0.185594 1.41998 0.000543245 1.88642 0H168.119C168.586 0.000547274 169.033 0.185602 169.363 0.514566C169.693 0.84353 169.878 1.28954 169.879 1.75476V82.7841C169.878 83.2493 169.693 83.6954 169.363 84.0243C169.033 84.3533 168.586 84.5383 168.119 84.5389ZM1.88642 0.701914C1.60655 0.702218 1.33823 0.813241 1.14034 1.01062C0.942438 1.208 0.831125 1.47562 0.83082 1.75476V82.7841C0.831125 83.0633 0.942438 83.3309 1.14034 83.5283C1.33823 83.7256 1.60655 83.8367 1.88642 83.837H168.119C168.399 83.8367 168.668 83.7256 168.866 83.5283C169.063 83.3309 169.175 83.0633 169.175 82.7841V1.75476C169.175 1.47562 169.063 1.208 168.866 1.01062C168.668 0.813241 168.399 0.702219 168.119 0.701914H1.88642Z" fill="#E6E6E6"/>
<path id="Vector_3" d="M134.1 62.4372C134.033 62.4373 133.968 62.464 133.92 62.5116C133.872 62.5592 133.846 62.6237 133.846 62.691V64.7208C133.846 64.788 133.872 64.8525 133.92 64.9001C133.968 64.9477 134.032 64.9744 134.1 64.9745H150.381C150.448 64.9744 150.513 64.9477 150.561 64.9001C150.608 64.8525 150.635 64.788 150.635 64.7208V62.691C150.635 62.6237 150.608 62.5592 150.561 62.5116C150.513 62.464 150.448 62.4373 150.381 62.4372H134.1Z" fill="#3F3D56"/>
<path id="Vector_4" d="M76.8625 62.4372C76.7951 62.4373 76.7304 62.464 76.6827 62.5116C76.635 62.5592 76.6082 62.6237 76.6081 62.691V64.7208C76.6082 64.788 76.635 64.8525 76.6827 64.9001C76.7304 64.9477 76.7951 64.9744 76.8625 64.9745H93.1434C93.2109 64.9744 93.2755 64.9477 93.3232 64.9001C93.3709 64.8525 93.3977 64.788 93.3978 64.7208V62.691C93.3977 62.6237 93.3709 62.5592 93.3232 62.5116C93.2755 62.464 93.2109 62.4373 93.1434 62.4372H76.8625Z" fill="#21B8F9"/>
<path id="Vector_5" d="M19.6251 62.4372C19.5577 62.4373 19.493 62.464 19.4453 62.5116C19.3976 62.5592 19.3708 62.6237 19.3708 62.691V64.7208C19.3708 64.788 19.3976 64.8525 19.4453 64.9001C19.493 64.9477 19.5577 64.9744 19.6251 64.9745H35.906C35.9735 64.9744 36.0381 64.9477 36.0858 64.9001C36.1335 64.8525 36.1603 64.788 36.1604 64.7208V62.691C36.1603 62.6237 36.1335 62.5592 36.0858 62.5116C36.0381 62.464 35.9735 62.4373 35.906 62.4372H19.6251Z" fill="#E6E6E6"/>
<path id="Vector_6" d="M79.1562 35.208C80.6631 35.208 81.8847 33.9896 81.8847 32.4866C81.8847 30.9836 80.6631 29.7652 79.1562 29.7652C77.6492 29.7652 76.4276 30.9836 76.4276 32.4866C76.4276 33.9896 77.6492 35.208 79.1562 35.208Z" fill="#3F3D56"/>
<path id="Vector_7" d="M79.1562 34.2362C80.1249 34.2362 80.9102 33.4529 80.9102 32.4867C80.9102 31.5205 80.1249 30.7372 79.1562 30.7372C78.1875 30.7372 77.4021 31.5205 77.4021 32.4867C77.4021 33.4529 78.1875 34.2362 79.1562 34.2362Z" fill="#21B8F9"/>
<path id="Vector_8" d="M90.8498 35.208C92.3567 35.208 93.5783 33.9896 93.5783 32.4866C93.5783 30.9836 92.3567 29.7652 90.8498 29.7652C89.3429 29.7652 88.1213 30.9836 88.1213 32.4866C88.1213 33.9896 89.3429 35.208 90.8498 35.208Z" fill="#3F3D56"/>
<path id="Vector_9" d="M90.8498 34.2362C91.8186 34.2362 92.6039 33.4529 92.6039 32.4867C92.6039 31.5205 91.8186 30.7372 90.8498 30.7372C89.8811 30.7372 89.0958 31.5205 89.0958 32.4867C89.0958 33.4529 89.8811 34.2362 90.8498 34.2362Z" fill="#21B8F9"/>
<path id="Vector_10" d="M78.8493 32.6811C77.5396 32.6768 76.2756 33.1611 75.3056 34.0388C74.3357 34.9164 73.7297 36.1241 73.6068 37.4246L73.0613 43.0017C72.9965 43.6637 73.0714 44.3318 73.281 44.9632C73.4906 45.5946 73.8304 46.1752 74.2784 46.6678C74.7265 47.1604 75.2729 47.5541 75.8826 47.8234C76.4923 48.0928 77.1517 48.232 77.8186 48.232H92.1875C92.8543 48.232 93.5137 48.0928 94.1234 47.8234C94.7331 47.554 95.2795 47.1604 95.7276 46.6678C96.1756 46.1752 96.5154 45.5946 96.725 44.9632C96.9346 44.3318 97.0095 43.6637 96.9447 43.0017L96.3992 37.4246C96.2763 36.1241 95.6703 34.9164 94.7003 34.0388C93.7303 33.1611 92.4664 32.6768 91.1567 32.6811H78.8493Z" fill="#3F3D56"/>
<path id="Vector_11" d="M81.1744 43.3723C81.2237 43.9033 81.4699 44.3969 81.8648 44.7564C82.2597 45.1159 82.7748 45.3155 83.3095 45.3162H87.2075C87.7422 45.3155 88.2573 45.1159 88.6522 44.7564C89.047 44.3969 89.2932 43.9033 89.3424 43.3723H81.1744Z" fill="white"/>
<path id="Vector_12" d="M80.5182 41.0561C80.9207 40.5171 81.5211 40.1592 82.1878 40.0609C82.8544 39.9626 83.5329 40.132 84.0746 40.5318C84.3757 40.1287 84.55 39.6456 84.5756 39.1437C84.6012 38.6417 84.4768 38.1435 84.2183 37.712C83.9598 37.2806 83.5787 36.9354 83.1234 36.7201C82.668 36.5048 82.1589 36.4291 81.6604 36.5026C81.1619 36.5761 80.6965 36.7955 80.323 37.1329C79.9496 37.4704 79.685 37.9108 79.5627 38.3984C79.4404 38.886 79.4659 39.3988 79.636 39.8719C79.8061 40.345 80.1131 40.7572 80.5182 41.0561Z" fill="white"/>
<path id="Vector_13" d="M85.0635 42.7891C85.6017 42.7891 86.038 42.3539 86.038 41.8172C86.038 41.2804 85.6017 40.8452 85.0635 40.8452C84.5254 40.8452 84.0891 41.2804 84.0891 41.8172C84.0891 42.3539 84.5254 42.7891 85.0635 42.7891Z" fill="#21B8F9"/>
<path id="Vector_14" d="M82.2027 39.4548C82.7208 39.4548 83.1408 39.0359 83.1408 38.5192C83.1408 38.0025 82.7208 37.5836 82.2027 37.5836C81.6847 37.5836 81.2647 38.0025 81.2647 38.5192C81.2647 39.0359 81.6847 39.4548 82.2027 39.4548Z" fill="#3F3D56"/>
<path id="Vector_15" d="M86.4589 40.5662C86.8615 40.0272 87.4619 39.6693 88.1285 39.571C88.7952 39.4727 89.4737 39.642 90.0154 40.0419C90.3164 39.6388 90.4907 39.1557 90.5163 38.6537C90.5419 38.1518 90.4175 37.6535 90.159 37.2221C89.9005 36.7907 89.5195 36.4454 89.0641 36.2301C88.6088 36.0148 88.0996 35.9392 87.6011 36.0127C87.1026 36.0861 86.6372 36.3055 86.2638 36.643C85.8904 36.9805 85.6258 37.4209 85.5035 37.9085C85.3812 38.3961 85.4067 38.9089 85.5768 39.382C85.7468 39.8551 86.0539 40.2672 86.4589 40.5662Z" fill="white"/>
<path id="Vector_16" d="M88.2776 38.7417C88.7956 38.7417 89.2156 38.3228 89.2156 37.8061C89.2156 37.2894 88.7956 36.8706 88.2776 36.8706C87.7595 36.8706 87.3396 37.2894 87.3396 37.8061C87.3396 38.3228 87.7595 38.7417 88.2776 38.7417Z" fill="#3F3D56"/>
<path id="Vector_17" d="M24.6473 35.3052C24.6477 35.6628 24.5773 36.017 24.4404 36.3475C24.3034 36.678 24.1025 36.9783 23.8491 37.2313C23.5957 37.4842 23.2948 37.6849 22.9636 37.8219C22.6323 37.9588 22.2773 38.0293 21.9188 38.0293C21.5603 38.0293 21.2052 37.9588 20.874 37.8219C20.5428 37.6849 20.2419 37.4842 19.9885 37.2313C19.7351 36.9783 19.5342 36.678 19.3972 36.3475C19.2602 36.017 19.1899 35.6628 19.1903 35.3052C19.1903 33.8022 20.4119 27.5298 21.9188 27.5298C23.4257 27.5298 24.6473 33.8022 24.6473 35.3052Z" fill="#E6E6E6"/>
<path id="Vector_18" d="M23.6729 35.3053C23.6729 35.7693 23.4881 36.2143 23.1591 36.5424C22.8302 36.8705 22.384 37.0548 21.9188 37.0548C21.4536 37.0548 21.0075 36.8705 20.6785 36.5424C20.3496 36.2143 20.1648 35.7693 20.1648 35.3053C20.1648 34.3391 20.9501 28.5018 21.9188 28.5018C22.8876 28.5018 23.6729 34.3391 23.6729 35.3053Z" fill="white"/>
<path id="Vector_19" d="M30.8839 35.3053C30.8839 36.027 31.1714 36.7192 31.6831 37.2296C32.1947 37.74 32.8888 38.0267 33.6124 38.0267C34.3361 38.0267 35.0301 37.74 35.5418 37.2296C36.0535 36.7192 36.3409 36.027 36.3409 35.3053C36.3409 33.8023 35.1193 26.9467 33.6124 26.9467C32.1055 26.9467 30.8839 33.8023 30.8839 35.3053Z" fill="#E6E6E6"/>
<path id="Vector_20" d="M31.8584 35.3053C31.8584 35.7693 32.0432 36.2143 32.3722 36.5424C32.7011 36.8705 33.1472 37.0548 33.6125 37.0548C34.0777 37.0548 34.5238 36.8705 34.8528 36.5424C35.1817 36.2143 35.3665 35.7693 35.3665 35.3053C35.3665 34.3391 34.5812 27.9186 33.6125 27.9186C32.6437 27.9186 31.8584 34.3391 31.8584 35.3053Z" fill="white"/>
<path id="Vector_21" d="M21.6119 35.4997C20.3022 35.4954 19.0383 35.9797 18.0683 36.8573C17.0983 37.735 16.4923 38.9427 16.3694 40.2432L15.8239 45.8203C15.7591 46.4823 15.834 47.1504 16.0436 47.7818C16.2532 48.4132 16.593 48.9938 17.041 49.4864C17.4891 49.979 18.0355 50.3726 18.6452 50.642C19.2549 50.9114 19.9143 51.0506 20.5812 51.0506H34.9501C35.6169 51.0506 36.2764 50.9114 36.8861 50.642C37.4958 50.3726 38.0422 49.979 38.4902 49.4864C38.9383 48.9938 39.278 48.4132 39.4876 47.7818C39.6973 47.1504 39.7721 46.4823 39.7074 45.8203L39.1618 40.2432C39.0389 38.9427 38.433 37.735 37.463 36.8573C36.493 35.9797 35.229 35.4954 33.9194 35.4997H21.6119Z" fill="#E6E6E6"/>
<path id="Vector_22" d="M28.0579 48.0375C28.919 48.0375 29.617 47.6894 29.617 47.2599C29.617 46.8305 28.919 46.4824 28.0579 46.4824C27.1968 46.4824 26.4987 46.8305 26.4987 47.2599C26.4987 47.6894 27.1968 48.0375 28.0579 48.0375Z" fill="white"/>
<path id="Vector_23" d="M23.2808 43.8751C23.6834 43.336 24.2837 42.9781 24.9504 42.8798C25.617 42.7816 26.2956 42.9509 26.8372 43.3507C27.1383 42.9476 27.3126 42.4646 27.3382 41.9626C27.3638 41.4606 27.2394 40.9624 26.9809 40.531C26.7224 40.0995 26.3414 39.7543 25.886 39.539C25.4307 39.3237 24.9215 39.248 24.423 39.3215C23.9245 39.395 23.4591 39.6144 23.0857 39.9519C22.7123 40.2894 22.4476 40.7298 22.3253 41.2174C22.203 41.7049 22.2286 42.2178 22.3986 42.6909C22.5687 43.164 22.8757 43.5761 23.2808 43.8751Z" fill="white"/>
<path id="Vector_24" d="M27.8262 45.6077C28.3643 45.6077 28.8006 45.1725 28.8006 44.6357C28.8006 44.0989 28.3643 43.6638 27.8262 43.6638C27.288 43.6638 26.8517 44.0989 26.8517 44.6357C26.8517 45.1725 27.288 45.6077 27.8262 45.6077Z" fill="white"/>
<path id="Vector_25" d="M24.9654 43.8282C25.4834 43.8282 25.9034 43.4093 25.9034 42.8926C25.9034 42.3759 25.4834 41.957 24.9654 41.957C24.4473 41.957 24.0274 42.3759 24.0274 42.8926C24.0274 43.4093 24.4473 43.8282 24.9654 43.8282Z" fill="#E6E6E6"/>
<path id="Vector_26" d="M26.1567 44.8409C25.5512 44.5266 24.9386 44.7354 24.3554 44.9916C23.72 45.3031 23.0278 45.4826 22.3208 45.519C21.7064 45.5451 21.1042 45.3432 20.6303 44.9523C20.4133 44.7665 20.2484 44.5277 20.1517 44.2592C20.0551 43.9907 20.0301 43.7018 20.0791 43.4208C20.1569 43.0547 19.5934 42.8982 19.5153 43.2657C19.2236 44.6381 20.3128 45.7953 21.6109 46.0374C22.3286 46.1553 23.0646 46.0914 23.7511 45.8515C24.1189 45.7319 24.4652 45.5669 24.8222 45.4206C25.1479 45.2872 25.5285 45.1715 25.8616 45.3445C26.195 45.5175 26.4909 45.0144 26.1567 44.8409Z" fill="white"/>
<path id="Vector_27" d="M29.2216 43.3848C29.6241 42.8457 30.2245 42.4878 30.8912 42.3896C31.5578 42.2913 32.2363 42.4606 32.778 42.8604C33.079 42.4574 33.2534 41.9743 33.2789 41.4723C33.3045 40.9703 33.1802 40.4721 32.9217 40.0407C32.6632 39.6092 32.2821 39.264 31.8268 39.0487C31.3714 38.8334 30.8623 38.7577 30.3638 38.8312C29.8653 38.9047 29.3999 39.1241 29.0264 39.4616C28.653 39.7991 28.3884 40.2395 28.2661 40.7271C28.1438 41.2146 28.1693 41.7275 28.3394 42.2006C28.5095 42.6737 28.8165 43.0858 29.2216 43.3848Z" fill="white"/>
<path id="Vector_28" d="M31.2351 43.3099C31.7532 43.3099 32.1731 42.8911 32.1731 42.3744C32.1731 41.8577 31.7532 41.4388 31.2351 41.4388C30.7171 41.4388 30.2971 41.8577 30.2971 42.3744C30.2971 42.8911 30.7171 43.3099 31.2351 43.3099Z" fill="#E6E6E6"/>
<path id="Vector_29" d="M29.8645 45.3444C30.1978 45.1714 30.5777 45.287 30.9039 45.4206C31.2609 45.5667 31.6071 45.7323 31.9749 45.8515C32.6615 46.0909 33.3974 46.1548 34.1152 46.0373C35.4132 45.7952 36.5024 44.638 36.2107 43.2657C36.1328 42.8987 35.569 43.054 35.647 43.4207C35.6953 43.6956 35.6726 43.9783 35.5809 44.2419C35.4892 44.5056 35.3316 44.7417 35.123 44.9277C34.6463 45.3348 34.0323 45.5461 33.4053 45.5189C32.7126 45.4859 32.034 45.3125 31.4107 45.0093C30.8153 44.7463 30.1907 44.5183 29.5694 44.8409C29.2355 45.0142 29.5308 45.5176 29.8645 45.3444H29.8645Z" fill="white"/>
<path id="Vector_30" d="M132.398 40.3327C135.438 40.3327 137.902 37.8749 137.902 34.8429C137.902 31.811 135.438 29.3531 132.398 29.3531C129.358 29.3531 126.894 31.811 126.894 34.8429C126.894 37.8749 129.358 40.3327 132.398 40.3327Z" fill="#3F3D56"/>
<path id="Vector_31" d="M132.398 38.372C134.352 38.372 135.937 36.7919 135.937 34.8428C135.937 32.8937 134.352 31.3137 132.398 31.3137C130.444 31.3137 128.86 32.8937 128.86 34.8428C128.86 36.7919 130.444 38.372 132.398 38.372Z" fill="#21B8F9"/>
<path id="Vector_32" d="M152.083 40.3327C155.122 40.3327 157.587 37.8749 157.587 34.8429C157.587 31.811 155.122 29.3531 152.083 29.3531C149.043 29.3531 146.578 31.811 146.578 34.8429C146.578 37.8749 149.043 40.3327 152.083 40.3327Z" fill="#3F3D56"/>
<path id="Vector_33" d="M152.083 38.372C154.037 38.372 155.621 36.7919 155.621 34.8428C155.621 32.8937 154.037 31.3137 152.083 31.3137C150.128 31.3137 148.544 32.8937 148.544 34.8428C148.544 36.7919 150.128 38.372 152.083 38.372Z" fill="#21B8F9"/>
<path id="Vector_34" d="M136.184 33.0934C136.099 33.0934 136.014 33.0954 135.93 33.0993C132.759 33.2478 130.566 36.3442 131.339 39.4157L131.451 39.8607C131.849 41.4413 132.119 43.0484 132.387 44.656C132.572 45.7702 133.147 46.7827 134.011 47.5131C134.875 48.2436 135.97 48.6444 137.102 48.6443H147.573C148.748 48.6444 149.882 48.2127 150.758 47.4317C151.634 46.6507 152.191 45.5752 152.323 44.4106C152.507 42.957 152.788 41.5173 153.164 40.101L153.337 39.4157C154.11 36.3442 151.917 33.2478 148.746 33.0993C148.661 33.0954 148.577 33.0934 148.492 33.0934H136.184Z" fill="#3F3D56"/>
<path id="Vector_35" d="M140.255 43.5902H144.932C144.932 44.2088 144.686 44.8021 144.247 45.2396C143.808 45.6771 143.214 45.9228 142.593 45.9228C141.973 45.9228 141.378 45.6771 140.94 45.2396C140.501 44.8021 140.255 44.2088 140.255 43.5902Z" fill="white"/>
<path id="Vector_36" d="M143.373 42.2297C143.373 42.3861 143.335 42.5403 143.262 42.679C143.19 42.8178 143.085 42.937 142.956 43.0265C142.828 43.1161 142.679 43.1734 142.524 43.1935C142.368 43.2136 142.21 43.196 142.063 43.1421C141.915 43.0882 141.783 42.9996 141.678 42.8839C141.572 42.7682 141.496 42.6288 141.456 42.4775C141.416 42.3262 141.413 42.1675 141.448 42.0149C141.483 41.8623 141.554 41.7203 141.655 41.601C141.834 41.391 142.04 42.0353 142.338 42.0353C142.646 42.0353 142.982 41.4006 143.16 41.6237C143.298 41.7957 143.373 42.0094 143.373 42.2297Z" fill="#21B8F9"/>
<path id="Vector_37" d="M137.853 41.4688C138.256 40.9297 138.856 40.5718 139.523 40.4735C140.189 40.3752 140.868 40.5446 141.409 40.9444C141.71 40.5413 141.885 40.0582 141.91 39.5563C141.936 39.0543 141.812 38.5561 141.553 38.1247C141.295 37.6932 140.914 37.348 140.458 37.1327C140.003 36.9174 139.494 36.8417 138.995 36.9152C138.497 36.9887 138.031 37.2081 137.658 37.5456C137.284 37.8831 137.02 38.3235 136.898 38.8111C136.775 39.2986 136.801 39.8114 136.971 40.2846C137.141 40.7577 137.448 41.1698 137.853 41.4688Z" fill="white"/>
<path id="Vector_38" d="M138.563 39.867C139.081 39.867 139.501 39.4481 139.501 38.9314C139.501 38.4147 139.081 37.9959 138.563 37.9959C138.045 37.9959 137.625 38.4147 137.625 38.9314C137.625 39.4481 138.045 39.867 138.563 39.867Z" fill="#3F3D56"/>
<path id="Vector_39" d="M143.794 40.9785C144.196 40.4395 144.797 40.0816 145.463 39.9833C146.13 39.885 146.809 40.0543 147.35 40.4542C147.651 40.0511 147.826 39.568 147.851 39.066C147.877 38.5641 147.752 38.0658 147.494 37.6344C147.235 37.203 146.854 36.8577 146.399 36.6424C145.944 36.4271 145.435 36.3514 144.936 36.4249C144.438 36.4984 143.972 36.7178 143.599 37.0553C143.225 37.3928 142.961 37.8332 142.838 38.3208C142.716 38.8084 142.742 39.3212 142.912 39.7943C143.082 40.2674 143.389 40.6795 143.794 40.9785Z" fill="white"/>
<path id="Vector_40" d="M144.638 39.5428C145.156 39.5428 145.576 39.1239 145.576 38.6072C145.576 38.0905 145.156 37.6717 144.638 37.6717C144.12 37.6717 143.7 38.0905 143.7 38.6072C143.7 39.1239 144.12 39.5428 144.638 39.5428Z" fill="#3F3D56"/>
<path id="Vector_41" d="M141.656 34.2596C142.355 34.2596 142.923 33.3023 142.923 32.1213C142.923 30.9404 142.355 29.9831 141.656 29.9831C140.956 29.9831 140.389 30.9404 140.389 32.1213C140.389 33.3023 140.956 34.2596 141.656 34.2596Z" fill="#21B8F9"/>
<path id="Vector_42" d="M158.707 58.4327H125.774C125.307 58.4321 124.86 58.2471 124.53 57.9181C124.2 57.5891 124.015 57.1431 124.014 56.6779V21.3191C124.015 20.8539 124.2 20.4079 124.53 20.0789C124.86 19.7499 125.307 19.5649 125.774 19.5643H158.707C159.174 19.5649 159.621 19.7499 159.951 20.0789C160.28 20.4079 160.466 20.8539 160.466 21.3191V56.6779C160.466 57.1431 160.28 57.5891 159.951 57.9181C159.621 58.2471 159.174 58.4321 158.707 58.4327ZM125.774 20.2662C125.494 20.2665 125.225 20.3776 125.028 20.5749C124.83 20.7723 124.718 21.0399 124.718 21.3191V56.6779C124.718 56.957 124.83 57.2247 125.028 57.422C125.225 57.6194 125.494 57.7304 125.774 57.7308H158.707C158.987 57.7304 159.255 57.6194 159.453 57.422C159.651 57.2247 159.762 56.957 159.763 56.6779V21.3191C159.762 21.0399 159.651 20.7723 159.453 20.5749C159.255 20.3776 158.987 20.2665 158.707 20.2662H125.774Z" fill="#E6E6E6"/>
<path id="Vector_43" d="M118.571 30.3688L126.83 25.4062L124.418 34.7174L122.964 31.3251L120.539 34.5682L119.82 34.0333L122.245 30.7902L118.571 30.3688Z" fill="#3F3D56"/>
<path id="Vector_44" d="M101.47 58.4327H68.5362C68.0698 58.4321 67.6226 58.2471 67.2928 57.9181C66.963 57.5891 66.7774 57.1431 66.7769 56.6779V21.3191C66.7774 20.8539 66.963 20.4079 67.2928 20.0789C67.6226 19.7499 68.0698 19.5649 68.5362 19.5643H101.47C101.936 19.5649 102.383 19.7499 102.713 20.0789C103.043 20.4079 103.229 20.8539 103.229 21.3191V56.6779C103.229 57.1431 103.043 57.5891 102.713 57.9181C102.383 58.2471 101.936 58.4321 101.47 58.4327ZM68.5362 20.2662C68.2564 20.2665 67.988 20.3776 67.7901 20.5749C67.5922 20.7723 67.4809 21.0399 67.4806 21.3191V56.6779C67.4809 56.957 67.5922 57.2247 67.7901 57.422C67.988 57.6194 68.2564 57.7304 68.5362 57.7308H101.47C101.75 57.7304 102.018 57.6194 102.216 57.422C102.414 57.2247 102.525 56.957 102.525 56.6779V21.3191C102.525 21.0399 102.414 20.7723 102.216 20.5749C102.018 20.3776 101.75 20.2665 101.47 20.2662H68.5362Z" fill="#E6E6E6"/>
<path id="Vector_45" d="M107.405 30.3688L99.1463 25.4062L101.558 34.7174L103.012 31.3251L105.437 34.5682L106.156 34.0333L103.731 30.7902L107.405 30.3688Z" fill="#21B8F9"/>
<path id="Vector_46" d="M44.2323 58.4327H11.2988C10.8324 58.4321 10.3852 58.2471 10.0554 57.9181C9.72553 57.5891 9.54 57.1431 9.53945 56.6779V21.3191C9.54 20.8539 9.72553 20.4078 10.0554 20.0789C10.3852 19.7499 10.8324 19.5649 11.2988 19.5643H44.2323C44.6988 19.5649 45.1459 19.7499 45.4757 20.0789C45.8056 20.4079 45.9911 20.8539 45.9916 21.3191V56.6779C45.9911 57.1431 45.8056 57.5891 45.4757 57.9181C45.1459 58.2471 44.6988 58.4321 44.2323 58.4327ZM11.2988 20.2662C11.0189 20.2665 10.7506 20.3776 10.5527 20.5749C10.3548 20.7723 10.2435 21.0399 10.2432 21.3191V56.6779C10.2435 56.957 10.3548 57.2247 10.5527 57.422C10.7506 57.6194 11.0189 57.7304 11.2988 57.7308H44.2323C44.5122 57.7304 44.7805 57.6194 44.9784 57.422C45.1763 57.2247 45.2876 56.957 45.2879 56.6779V21.3191C45.2876 21.0399 45.1763 20.7723 44.9784 20.5749C44.7805 20.3776 44.5122 20.2665 44.2323 20.2662H11.2988Z" fill="#E6E6E6"/>
</g>
<defs>
<clipPath id="clip0_1_3380">
<rect width="170" height="85" fill="white"/>
</clipPath>
</defs>
</svg>
