<svg width="122" height="84" viewBox="0 0 122 84" fill="none" xmlns="http://www.w3.org/2000/svg">
<g id="undraw_images_aef7 1" clip-path="url(#clip0_1_3430)">
<path id="Vector" d="M120.374 62.5527C120.375 62.8185 120.324 63.082 120.223 63.3281C120.123 63.5742 119.974 63.7982 119.787 63.9871C119.6 64.1761 119.377 64.3263 119.131 64.4294C118.886 64.5324 118.622 64.5861 118.356 64.5875H29.586C29.3197 64.5861 29.0562 64.5324 28.8107 64.4294C28.5651 64.3263 28.3423 64.1761 28.1549 63.9871C27.9676 63.7982 27.8194 63.5742 27.7187 63.3281C27.6181 63.082 27.567 62.8185 27.5684 62.5527V2.03481C27.567 1.76898 27.6181 1.50548 27.7187 1.25936C27.8194 1.01323 27.9676 0.789297 28.1549 0.600347C28.3423 0.411396 28.5651 0.261127 28.8107 0.158119C29.0562 0.0551113 29.3197 0.00138272 29.586 0H118.356C118.622 0.00138272 118.886 0.0551113 119.131 0.158119C119.377 0.261127 119.6 0.411396 119.787 0.600347C119.974 0.789297 120.123 1.01323 120.223 1.25936C120.324 1.50548 120.375 1.76898 120.374 2.03481" fill="url(#paint0_linear_1_3430)"/>
<path id="Vector_2" d="M119.33 61.5616C119.33 61.82 119.28 62.0759 119.18 62.3146C119.081 62.5533 118.936 62.7702 118.753 62.9529C118.57 63.1356 118.353 63.2805 118.114 63.3794C117.874 63.4782 117.618 63.5291 117.359 63.5291H30.6477C30.1248 63.5291 29.6234 63.3218 29.2537 62.9529C28.884 62.5839 28.6763 62.0834 28.6763 61.5616V3.06011C28.6774 2.53898 28.8855 2.03955 29.2551 1.67143C29.6247 1.3033 30.1255 1.09656 30.6477 1.09656H117.359C117.882 1.09656 118.383 1.30385 118.753 1.67283C119.123 2.04181 119.33 2.54225 119.33 3.06407" fill="#F5F5F5"/>
<path id="&#60;Rectangle&#62;" d="M114.785 3.89014H33.3106C32.6644 3.89014 32.1405 4.413 32.1405 5.05798V59.858C32.1405 60.503 32.6644 61.0259 33.3106 61.0259H114.785C115.431 61.0259 115.955 60.503 115.955 59.858V5.05798C115.955 4.413 115.431 3.89014 114.785 3.89014Z" fill="url(#paint1_linear_1_3430)"/>
<path id="Vector_3" d="M113.665 5.20459H34.3419C33.6956 5.20459 33.1718 5.72745 33.1718 6.37243V58.2483C33.1718 58.8932 33.6956 59.4161 34.3419 59.4161H113.665C114.311 59.4161 114.835 58.8932 114.835 58.2483V6.37243C114.835 5.72745 114.311 5.20459 113.665 5.20459Z" fill="white"/>
<path id="Vector_4" d="M28.6302 58.9187L51.4296 32.8448C51.8228 32.3952 52.3013 32.0276 52.8373 31.7631C53.3734 31.4985 53.9566 31.3424 54.5533 31.3035C55.1501 31.2646 55.7486 31.3438 56.3146 31.5365C56.8806 31.7293 57.4028 32.0317 57.8513 32.4265L64.236 38.0453C65.0512 38.7632 66.0974 39.1652 67.1844 39.1783C68.2715 39.1914 69.3271 38.8146 70.1593 38.1166L89.6718 21.7497C90.57 20.9963 91.7256 20.6193 92.8963 20.6978C94.0669 20.7763 95.1616 21.3041 95.9508 22.1706L119.896 48.4701C120.561 49.2003 120.969 50.1269 121.057 51.1093L121.983 61.4853C122.04 62.1121 121.966 62.7439 121.765 63.3406C121.564 63.9372 121.241 64.4854 120.816 64.9504C120.391 65.4154 119.873 65.7868 119.296 66.0411C118.719 66.2953 118.096 66.4268 117.465 66.4272H32.0533C30.8734 66.427 29.7399 65.9683 28.8931 65.1483C28.0462 64.3282 27.5527 63.2113 27.5169 62.0342C27.4813 60.8928 27.8789 59.78 28.6302 58.9187Z" fill="#21B8F9"/>
<path id="Vector_5" d="M43.0059 18.9456C45.799 18.9456 48.0632 16.6858 48.0632 13.8982C48.0632 11.1106 45.799 8.85074 43.0059 8.85074C40.2129 8.85074 37.9487 11.1106 37.9487 13.8982C37.9487 16.6858 40.2129 18.9456 43.0059 18.9456Z" fill="#FF5252"/>
<path id="Vector_6" d="M106.623 71.3388C106.625 71.6046 106.574 71.8681 106.473 72.1142C106.372 72.3604 106.224 72.5843 106.037 72.7732C105.849 72.9622 105.626 73.1124 105.381 73.2155C105.135 73.3185 104.872 73.3722 104.606 73.3736H15.8302C15.5634 73.3729 15.2994 73.3197 15.0532 73.217C14.8071 73.1143 14.5837 72.9641 14.3957 72.7751C14.2078 72.5861 14.0591 72.3619 13.9581 72.1154C13.8572 71.869 13.8059 71.605 13.8073 71.3388V10.8222C13.8059 10.5564 13.857 10.2929 13.9576 10.0467C14.0583 9.80061 14.2065 9.57668 14.3939 9.38773C14.5812 9.19878 14.804 9.04851 15.0496 8.9455C15.2951 8.8425 15.5586 8.78877 15.8249 8.78738H104.6C104.867 8.78807 105.131 8.84129 105.377 8.94399C105.623 9.04669 105.847 9.19685 106.035 9.38587C106.223 9.57489 106.371 9.79906 106.472 10.0455C106.573 10.292 106.625 10.5559 106.623 10.8222" fill="url(#paint2_linear_1_3430)"/>
<path id="Vector_7" d="M105.575 70.3491C105.575 70.8709 105.367 71.3714 104.997 71.7404C104.628 72.1094 104.126 72.3166 103.603 72.3166H16.892C16.3692 72.3166 15.8678 72.1094 15.4981 71.7404C15.1284 71.3714 14.9207 70.8709 14.9207 70.3491V11.8463C14.9207 11.3245 15.1284 10.824 15.4981 10.4551C15.8678 10.0861 16.3692 9.87878 16.892 9.87878H103.603C104.126 9.87878 104.628 10.0861 104.997 10.4551C105.367 10.824 105.575 11.3245 105.575 11.8463" fill="#F5F5F5"/>
<path id="&#60;Rectangle&#62;_2" d="M101.029 12.6775H19.5547C18.9085 12.6775 18.3846 13.2004 18.3846 13.8454V68.6454C18.3846 69.2904 18.9085 69.8132 19.5547 69.8132H101.029C101.675 69.8132 102.199 69.2904 102.199 68.6454V13.8454C102.199 13.2004 101.675 12.6775 101.029 12.6775Z" fill="url(#paint3_linear_1_3430)"/>
<path id="Vector_8" d="M99.9094 13.992H20.5861C19.9399 13.992 19.416 14.5148 19.416 15.1598V67.0357C19.416 67.6807 19.9399 68.2035 20.5861 68.2035H99.9094C100.556 68.2035 101.079 67.6807 101.079 67.0357V15.1598C101.079 14.5148 100.556 13.992 99.9094 13.992Z" fill="white"/>
<path id="Vector_9" d="M14.8744 67.7058L37.6738 41.6306C38.0671 41.1808 38.5456 40.813 39.0818 40.5484C39.618 40.2838 40.2013 40.1275 40.7982 40.0886C41.3951 40.0498 41.9938 40.129 42.5599 40.3219C43.126 40.5147 43.6483 40.8173 44.0969 41.2123L50.4803 46.8338C51.2954 47.5516 52.3417 47.9537 53.4287 47.9667C54.5157 47.9798 55.5713 47.6031 56.4036 46.905L75.9161 30.5355C76.8143 29.7821 77.9699 29.4052 79.1405 29.4836C80.3111 29.5621 81.4058 30.09 82.195 30.9565L106.139 57.2612C106.804 57.9913 107.212 58.918 107.3 59.9004L108.226 70.2763C108.281 70.9024 108.206 71.5332 108.004 72.1286C107.802 72.7239 107.478 73.2709 107.053 73.7345C106.628 74.1982 106.111 74.5685 105.534 74.8219C104.958 75.0753 104.335 75.2062 103.705 75.2063H18.2935C17.1136 75.2062 15.9801 74.7475 15.1333 73.9274C14.2865 73.1074 13.7929 71.9905 13.7572 70.8134C13.7247 69.6741 14.1236 68.5645 14.8744 67.7058Z" fill="#21B8F9"/>
<path id="Vector_10" d="M29.2502 27.7314C32.0433 27.7314 34.3075 25.4716 34.3075 22.684C34.3075 19.8964 32.0433 17.6366 29.2502 17.6366C26.4572 17.6366 24.193 19.8964 24.193 22.684C24.193 25.4716 26.4572 27.7314 29.2502 27.7314Z" fill="#FF5252"/>
<path id="Vector_11" d="M92.8621 80.1258C92.8635 80.3917 92.8125 80.6552 92.7118 80.9013C92.6112 81.1474 92.4629 81.3714 92.2756 81.5603C92.0882 81.7493 91.8654 81.8995 91.6199 82.0025C91.3743 82.1055 91.1109 82.1593 90.8445 82.1607H2.07447C1.80812 82.1593 1.54466 82.1055 1.29912 82.0025C1.05357 81.8995 0.830764 81.7493 0.64341 81.5603C0.456056 81.3714 0.307827 81.1474 0.207185 80.9013C0.106543 80.6552 0.0554588 80.3917 0.0568515 80.1258V19.608C0.0554588 19.3422 0.106543 19.0787 0.207185 18.8325C0.307827 18.5864 0.456056 18.3625 0.64341 18.1735C0.830764 17.9846 1.05357 17.8343 1.29912 17.7313C1.54466 17.6283 1.80812 17.5746 2.07447 17.5732H90.8445C91.1109 17.5746 91.3743 17.6283 91.6199 17.7313C91.8654 17.8343 92.0882 17.9846 92.2756 18.1735C92.4629 18.3625 92.6112 18.5864 92.7118 18.8325C92.8125 19.0787 92.8635 19.3422 92.8621 19.608" fill="url(#paint4_linear_1_3430)"/>
<path id="Vector_12" d="M91.8149 79.1348C91.8149 79.6566 91.6072 80.157 91.2375 80.526C90.8678 80.895 90.3664 81.1023 89.8436 81.1023H3.13608C2.61324 81.1023 2.11183 80.895 1.74213 80.526C1.37243 80.157 1.16473 79.6566 1.16473 79.1348V20.6267C1.16473 20.1049 1.37243 19.6044 1.74213 19.2355C2.11183 18.8665 2.61324 18.6592 3.13608 18.6592H89.8475C90.3697 18.6602 90.8701 18.868 91.2389 19.2368C91.6078 19.6057 91.8149 20.1056 91.8149 20.6267" fill="white"/>
<path id="&#60;Rectangle&#62;_3" d="M87.2734 21.4633H5.79899C5.15275 21.4633 4.62888 21.9862 4.62888 22.6312V77.4313C4.62888 78.0763 5.15275 78.5991 5.79899 78.5991H87.2734C87.9196 78.5991 88.4435 78.0763 88.4435 77.4313V22.6312C88.4435 21.9862 87.9196 21.4633 87.2734 21.4633Z" fill="url(#paint5_linear_1_3430)"/>
<path id="Vector_13" d="M86.1534 22.7776H6.83021C6.18397 22.7776 5.6601 23.3004 5.6601 23.9454V75.8212C5.6601 76.4662 6.18397 76.9891 6.83021 76.9891H86.1534C86.7997 76.9891 87.3235 76.4662 87.3235 75.8212V23.9454C87.3235 23.3004 86.7997 22.7776 86.1534 22.7776Z" fill="white"/>
<path id="Vector_14" d="M1.11462 76.4917L23.9193 50.4178C24.3125 49.9692 24.7905 49.6024 25.326 49.3384C25.8615 49.0745 26.4439 48.9186 27.0399 48.8798C27.6358 48.8409 28.2336 48.9198 28.799 49.112C29.3643 49.3041 29.8861 49.6057 30.3344 49.9995L36.7178 55.621C37.533 56.3388 38.5792 56.7409 39.6662 56.7539C40.7533 56.767 41.8089 56.3903 42.6411 55.6922L62.1602 39.3227C63.0584 38.5693 64.214 38.1923 65.3847 38.2708C66.5553 38.3493 67.65 38.8771 68.4392 39.7436L92.3836 66.0484C93.0481 66.7785 93.4557 67.7052 93.5444 68.6876L94.4699 79.0635C94.5255 79.6896 94.45 80.3204 94.248 80.9158C94.0461 81.5112 93.7223 82.0581 93.2971 82.5218C92.872 82.9855 92.3548 83.3558 91.7784 83.6091C91.2021 83.8625 90.5792 83.9934 89.9495 83.9935H4.5377C3.35979 83.9935 2.22803 83.5364 1.38154 82.7189C0.535047 81.9014 0.0401312 80.7875 0.00135929 79.6125C-0.0356262 78.4692 0.362076 77.3544 1.11462 76.4917Z" fill="#21B8F9"/>
<path id="Vector_15" d="M15.4945 36.5181C18.2876 36.5181 20.5518 34.2583 20.5518 31.4707C20.5518 28.6831 18.2876 26.4233 15.4945 26.4233C12.7014 26.4233 10.4372 28.6831 10.4372 31.4707C10.4372 34.2583 12.7014 36.5181 15.4945 36.5181Z" fill="#FF5252"/>
</g>
<defs>
<linearGradient id="paint0_linear_1_3430" x1="73.971" y1="64.5875" x2="73.971" y2="0" gradientUnits="userSpaceOnUse">
<stop offset="0.01" stop-color="#808080" stop-opacity="0.25"/>
<stop offset="0.54" stop-color="#808080" stop-opacity="0.12"/>
<stop offset="1" stop-color="#808080" stop-opacity="0.1"/>
</linearGradient>
<linearGradient id="paint1_linear_1_3430" x1="46972.5" y1="26426.9" x2="46972.5" y2="1688.25" gradientUnits="userSpaceOnUse">
<stop offset="0.01" stop-color="#808080" stop-opacity="0.25"/>
<stop offset="0.54" stop-color="#808080" stop-opacity="0.12"/>
<stop offset="1" stop-color="#808080" stop-opacity="0.1"/>
</linearGradient>
<linearGradient id="paint2_linear_1_3430" x1="55703.4" y1="44878.1" x2="55703.4" y2="13267" gradientUnits="userSpaceOnUse">
<stop offset="0.01" stop-color="#808080" stop-opacity="0.25"/>
<stop offset="0.54" stop-color="#808080" stop-opacity="0.12"/>
<stop offset="1" stop-color="#808080" stop-opacity="0.1"/>
</linearGradient>
<linearGradient id="paint3_linear_1_3430" x1="38238.7" y1="30239.8" x2="38238.7" y2="5501.71" gradientUnits="userSpaceOnUse">
<stop offset="0.01" stop-color="#808080" stop-opacity="0.25"/>
<stop offset="0.54" stop-color="#808080" stop-opacity="0.12"/>
<stop offset="1" stop-color="#808080" stop-opacity="0.1"/>
</linearGradient>
<linearGradient id="paint4_linear_1_3430" x1="46027.8" y1="49188.7" x2="46027.8" y2="17576.3" gradientUnits="userSpaceOnUse">
<stop offset="0.01" stop-color="#808080" stop-opacity="0.25"/>
<stop offset="0.54" stop-color="#808080" stop-opacity="0.12"/>
<stop offset="1" stop-color="#808080" stop-opacity="0.1"/>
</linearGradient>
<linearGradient id="paint5_linear_1_3430" x1="29504.9" y1="34053.2" x2="29504.9" y2="9314.59" gradientUnits="userSpaceOnUse">
<stop offset="0.01" stop-color="#808080" stop-opacity="0.25"/>
<stop offset="0.54" stop-color="#808080" stop-opacity="0.12"/>
<stop offset="1" stop-color="#808080" stop-opacity="0.1"/>
</linearGradient>
<clipPath id="clip0_1_3430">
<rect width="122" height="84" fill="white"/>
</clipPath>
</defs>
</svg>
