<svg width="111" height="85" viewBox="0 0 111 85" fill="none" xmlns="http://www.w3.org/2000/svg">
<g id="undraw_on_the_way_ldaq 1">
<path id="Vector" opacity="0.1" d="M84.432 58.8751C85.0655 58.5886 84.9945 57.0635 84.2733 55.4687C83.5522 53.8738 82.454 52.8131 81.8205 53.0995C81.1869 53.386 81.2579 54.9111 81.9791 56.5059C82.7002 58.1008 83.7984 59.1615 84.432 58.8751Z" fill="#103B66"/>
<path id="Vector_2" d="M84.5369 58.7696C85.1704 58.4832 85.0994 56.958 84.3783 55.3632C83.6571 53.7683 82.559 52.7076 81.9254 52.9941C81.2919 53.2805 81.3629 54.8056 82.0841 56.4005C82.8052 57.9953 83.9034 59.056 84.5369 58.7696Z" fill="#DCE0ED"/>
<path id="Vector_3" opacity="0.1" d="M64.3529 85.0001C83.4714 85.0001 98.9699 84.2972 98.9699 83.4302C98.9699 82.5631 83.4714 81.8602 64.3529 81.8602C45.2345 81.8602 29.7359 82.5631 29.7359 83.4302C29.7359 84.2972 45.2345 85.0001 64.3529 85.0001Z" fill="#21B8F9"/>
<path id="Vector_4" opacity="0.1" d="M9.18755 81.9536C10.2531 81.9536 11.1169 81.8351 11.1169 81.6888C11.1169 81.5426 10.2531 81.424 9.18755 81.424C8.122 81.424 7.2582 81.5426 7.2582 81.6888C7.2582 81.8351 8.122 81.9536 9.18755 81.9536Z" fill="#21B8F9"/>
<path id="Vector_5" opacity="0.1" d="M19.9766 81.6887C21.0422 81.6887 21.906 81.5702 21.906 81.4239C21.906 81.2777 21.0422 81.1591 19.9766 81.1591C18.9111 81.1591 18.0473 81.2777 18.0473 81.4239C18.0473 81.5702 18.9111 81.6887 19.9766 81.6887Z" fill="#21B8F9"/>
<path id="Vector_6" d="M21.038 80.8209C21.1595 80.7221 21.2482 80.5887 21.2923 80.4384C21.3118 80.3629 21.3048 80.283 21.2725 80.2121C21.2402 80.1411 21.1845 80.0834 21.1147 80.0486C20.9518 79.9855 20.7774 80.099 20.646 80.2125C20.5146 80.326 20.3623 80.4573 20.1899 80.4332C20.2779 80.3522 20.3435 80.2498 20.3803 80.1361C20.4171 80.0223 20.4239 79.9009 20.4001 79.7838C20.3929 79.7351 20.3725 79.6893 20.3413 79.6514C20.2509 79.5547 20.087 79.5967 19.9787 79.6724C19.634 79.9141 19.5384 80.3817 19.5363 80.803C19.5174 80.6486 19.5153 80.4925 19.53 80.3375C19.53 80.182 19.4859 80.0086 19.3545 79.9256C19.2732 79.8809 19.1813 79.8592 19.0886 79.8626C18.9331 79.8626 18.7618 79.872 18.6557 79.9855C18.5243 80.1263 18.558 80.3617 18.6725 80.5172C18.8003 80.6612 18.9517 80.7824 19.1202 80.8755C19.2465 80.9525 19.3542 81.0566 19.4354 81.1803C19.4448 81.1977 19.4526 81.216 19.4585 81.2349H20.4285C20.6497 81.1255 20.8548 80.9862 21.038 80.8209Z" fill="#21B8F9"/>
<path id="Vector_7" d="M9.71401 80.8209C9.83556 80.7221 9.92424 80.5887 9.96832 80.4384C9.98784 80.3629 9.98085 80.283 9.94853 80.2121C9.9162 80.1411 9.8605 80.0834 9.79073 80.0486C9.62784 79.9855 9.4534 80.099 9.32205 80.2125C9.19069 80.326 9.03832 80.4573 8.86598 80.4332C8.95395 80.3522 9.01952 80.2498 9.05634 80.1361C9.09316 80.0223 9.09998 79.9009 9.07615 79.7838C9.06891 79.7351 9.04857 79.6893 9.0173 79.6514C8.92693 79.5547 8.763 79.5967 8.65476 79.6724C8.31008 79.9141 8.21445 80.3817 8.21235 80.803C8.19342 80.6486 8.19131 80.4925 8.20604 80.3375C8.20604 80.182 8.16296 80.0086 8.0316 79.9256C7.94989 79.8811 7.8577 79.8593 7.76469 79.8626C7.61021 79.8626 7.43788 79.872 7.33174 79.9855C7.20038 80.1263 7.23401 80.3617 7.34855 80.5172C7.47632 80.6612 7.62771 80.7824 7.79621 80.8755C7.92256 80.9525 8.03024 81.0566 8.11147 81.1803C8.12088 81.1977 8.12862 81.216 8.13459 81.2349H9.10452C9.32572 81.1255 9.53081 80.9862 9.71401 80.8209Z" fill="#21B8F9"/>
<path id="Vector_8" opacity="0.1" d="M13.3478 79.0607C14.8464 79.0607 16.0611 78.8936 16.0611 78.6876C16.0611 78.4816 14.8464 78.3146 13.3478 78.3146C11.8493 78.3146 10.6346 78.4816 10.6346 78.6876C10.6346 78.8936 11.8493 79.0607 13.3478 79.0607Z" fill="#21B8F9"/>
<path id="Vector_9" opacity="0.1" d="M2.95394 78.0069C4.45245 78.0069 5.66723 77.8399 5.66723 77.6339C5.66723 77.4278 4.45245 77.2608 2.95394 77.2608C1.45543 77.2608 0.24065 77.4278 0.24065 77.6339C0.24065 77.8399 1.45543 78.0069 2.95394 78.0069Z" fill="#21B8F9"/>
<path id="Vector_10" opacity="0.1" d="M25.5913 77.6339C27.0898 77.6339 28.3046 77.4668 28.3046 77.2608C28.3046 77.0548 27.0898 76.8878 25.5913 76.8878C24.0928 76.8878 22.878 77.0548 22.878 77.2608C22.878 77.4668 24.0928 77.6339 25.5913 77.6339Z" fill="#21B8F9"/>
<path id="Vector_11" d="M4.0531 77.1695C4.17475 77.0707 4.26345 76.9373 4.3074 76.787C4.32679 76.7113 4.31975 76.6313 4.28745 76.5602C4.25515 76.4892 4.19953 76.4312 4.12981 76.3961C3.96693 76.3341 3.79354 76.4476 3.66113 76.561C3.52872 76.6745 3.37845 76.8048 3.20506 76.7807C3.29329 76.6999 3.35903 76.5975 3.39587 76.4837C3.43271 76.3699 3.43938 76.2484 3.41523 76.1313C3.40736 76.0829 3.38667 76.0376 3.35534 75.9999C3.26496 75.9032 3.10103 75.9442 2.99279 76.0209C2.64811 76.2626 2.55249 76.7302 2.55039 77.1516C2.53145 76.9968 2.52934 76.8403 2.54408 76.685C2.54408 76.5295 2.501 76.3572 2.36964 76.2742C2.28797 76.2295 2.19575 76.2077 2.10272 76.2111C1.94825 76.2048 1.77591 76.2206 1.66978 76.3341C1.53842 76.4749 1.5731 76.7103 1.68659 76.8595C1.8142 77.0044 1.96603 77.126 2.1353 77.2189C2.26196 77.2954 2.36971 77.3996 2.45056 77.5236C2.46006 77.5411 2.46814 77.5594 2.47473 77.5782H3.44466C3.66507 77.4702 3.86976 77.3327 4.0531 77.1695Z" fill="#21B8F9"/>
<path id="Vector_12" opacity="0.1" d="M108.851 22.9655C107.753 20.4149 106.268 18.0487 104.449 15.9503L43.3633 15.3482L93.6569 8.28464C90.4078 6.99119 86.9489 6.3052 83.4521 6.26078C78.641 2.41517 72.7169 0.225351 66.5612 0.0170878C60.4055 -0.191176 54.3469 1.59324 49.2869 5.10489C45.2426 3.02513 40.759 1.94418 36.2112 1.95246C22.6385 1.95246 11.3292 11.353 8.7925 23.8177L108.851 22.9655Z" fill="#21B8F9"/>
<path id="Vector_13" opacity="0.1" d="M110.999 33.4198C111.002 30.0393 110.356 26.6896 109.096 23.5527L3.22715 34.665C2.13929 36.6395 1.307 38.7444 0.750305 40.9289L33.5368 45.8152L0 49.3785C1.00881 63.4898 13.1062 74.6326 27.8842 74.6326C35.3232 74.6326 42.0833 71.809 47.0916 67.2044C52.1157 71.8962 58.941 74.7818 66.4598 74.7818C77.6167 74.7818 87.2456 68.4296 91.7296 59.2456C100.726 56.3905 107.714 49.2219 110.106 40.2532L68.6456 33.8233H110.995C110.997 33.6888 110.999 33.5543 110.999 33.4198Z" fill="#21B8F9"/>
<path id="Vector_14" d="M13.4067 78.6036C13.4067 78.6036 9.60052 66.1284 14.0015 61.1318C17.2948 57.393 21.0316 57.8406 22.7056 58.303C23.1388 58.4184 23.5417 58.6265 23.8864 58.913C24.2312 59.1995 24.5095 59.5575 24.7023 59.9622C25.2876 61.2232 25.1814 63.2733 21.0506 65.6649C14.1339 69.6696 13.7041 75.1622 13.7041 75.1622L13.4067 78.6036Z" fill="#21B8F9"/>
<path id="Vector_15" d="M22.1098 60.0726C22.1098 60.0726 10.891 63.5802 13.4067 78.6037" stroke="#565987" stroke-miterlimit="10"/>
<path id="Vector_16" d="M13.2554 78.7035C13.2554 78.7035 17.7131 69.6361 18.9374 69.8347C19.5185 69.9293 19.7865 70.5009 19.9084 71.0757C20.0594 71.8207 19.9746 72.5942 19.6656 73.2887C19.0351 74.7336 17.3306 77.4919 13.2554 78.7035Z" fill="#21B8F9"/>
<path id="Vector_17" d="M18.9005 71.5559C18.9005 71.5559 14.2221 78.34 13.3184 78.6373" stroke="#565987" stroke-miterlimit="10"/>
<path id="Vector_18" d="M15.1616 75.8243L15.1952 76.6345" stroke="#565987" stroke-miterlimit="10"/>
<path id="Vector_19" d="M18.0231 75.0961L16.3123 75.1696" stroke="#565987" stroke-miterlimit="10"/>
<path id="Vector_20" d="M16.9817 73.1111L17.1677 74.0022" stroke="#565987" stroke-miterlimit="10"/>
<path id="Vector_21" d="M19.3314 72.614H18.2396" stroke="#565987" stroke-miterlimit="10"/>
<path id="Vector_22" d="M13.3847 78.7035C13.3847 78.7035 8.92696 69.6361 7.70273 69.8347C7.12161 69.9293 6.85364 70.5009 6.73174 71.0757C6.58186 71.8187 6.66707 72.59 6.97554 73.2824C7.6071 74.7336 9.30632 77.4919 13.3847 78.7035Z" fill="#21B8F9"/>
<path id="Vector_23" d="M7.73635 71.5559C7.73635 71.5559 12.4147 78.34 13.3185 78.6373" stroke="#565987" stroke-miterlimit="10"/>
<path id="Vector_24" d="M11.4763 75.8243L11.4427 76.6345" stroke="#565987" stroke-miterlimit="10"/>
<path id="Vector_25" d="M8.61378 75.0961L10.3256 75.1696" stroke="#565987" stroke-miterlimit="10"/>
<path id="Vector_26" d="M25.7678 73.4391C25.7678 73.4391 26.1314 73.9152 25.5996 74.6329C25.0679 75.3506 24.6308 75.9569 24.8073 76.4045C24.8073 76.4045 25.6091 75.0711 26.2617 75.0521C26.9143 75.0332 26.4855 74.2409 25.7678 73.4391Z" fill="#21B8F9"/>
<path id="Vector_27" opacity="0.1" d="M25.7678 73.4391C25.7995 73.4852 25.8246 73.5354 25.8425 73.5884C26.4793 74.3365 26.8176 75.0343 26.206 75.0521C25.6354 75.069 24.9524 76.0882 24.7885 76.3457C24.7937 76.3657 24.8 76.3846 24.8074 76.4045C24.8074 76.4045 25.6092 75.0711 26.2617 75.0521C26.9143 75.0332 26.4856 74.2409 25.7678 73.4391Z" fill="#103B66"/>
<path id="Vector_28" d="M26.4435 74.0453C26.4435 74.2123 26.4246 74.3479 26.4015 74.3479C26.3784 74.3479 26.3594 74.2123 26.3594 74.0453C26.3594 73.8782 26.3836 73.957 26.4067 73.957C26.4299 73.957 26.4435 73.8782 26.4435 74.0453Z" fill="#FFD037"/>
<path id="Vector_29" d="M26.6758 74.2449C26.5287 74.3248 26.4005 74.3731 26.3899 74.35C26.3794 74.3269 26.4887 74.2449 26.6358 74.1682C26.783 74.0915 26.7241 74.1461 26.7357 74.1682C26.7472 74.1903 26.8229 74.1651 26.6758 74.2449Z" fill="#FFD037"/>
<path id="Vector_30" d="M23.8468 73.4391C23.8468 73.4391 23.4832 73.9152 24.015 74.6329C24.5467 75.3506 24.9849 75.9569 24.8073 76.4045C24.8073 76.4045 24.0055 75.0711 23.3529 75.0521C22.7004 75.0332 23.1333 74.2409 23.8468 73.4391Z" fill="#21B8F9"/>
<path id="Vector_31" opacity="0.1" d="M23.8468 73.4391C23.8153 73.4851 23.7905 73.5354 23.7733 73.5884C23.1365 74.3365 22.797 75.0343 23.4086 75.0521C23.9792 75.069 24.6634 76.0882 24.8273 76.3457C24.821 76.3657 24.8147 76.3846 24.8073 76.4045C24.8073 76.4045 24.0055 75.0711 23.3529 75.0521C22.7004 75.0332 23.1333 74.2409 23.8468 73.4391Z" fill="#103B66"/>
<path id="Vector_32" d="M23.2867 76.3413C23.2867 76.3413 24.304 76.3108 24.6098 76.0922C24.9156 75.8737 26.1734 75.6131 26.2501 75.963C26.3269 76.3129 27.777 77.7031 26.6295 77.7126C25.482 77.722 23.9635 77.534 23.6577 77.348C23.3519 77.162 23.2867 76.3413 23.2867 76.3413Z" fill="#A8A8A8"/>
<path id="Vector_33" opacity="0.2" d="M26.6505 77.5906C25.503 77.6001 23.9835 77.412 23.6777 77.226C23.4444 77.0841 23.3519 76.5755 23.3214 76.3402H23.2867C23.2867 76.3402 23.3519 77.1608 23.6577 77.3468C23.9635 77.5328 25.482 77.7209 26.6295 77.7115C26.9616 77.7115 27.075 77.5906 27.0687 77.4162C27.0215 77.5234 26.8964 77.5885 26.6505 77.5906Z" fill="#103B66"/>
<path id="Vector_34" d="M23.1712 74.0453C23.1712 74.2123 23.1902 74.3479 23.2133 74.3479C23.2364 74.3479 23.2553 74.2123 23.2553 74.0453C23.2553 73.8782 23.2322 73.957 23.2091 73.957C23.1859 73.957 23.1712 73.8782 23.1712 74.0453Z" fill="#FFD037"/>
<path id="Vector_35" d="M22.939 74.2449C23.0861 74.3248 23.2143 74.3731 23.2259 74.35C23.2374 74.3269 23.126 74.2449 22.98 74.1682C22.8339 74.0915 22.8906 74.1461 22.8749 74.1682C22.8591 74.1903 22.7929 74.1651 22.939 74.2449Z" fill="#FFD037"/>
<path id="Vector_36" d="M9.65617 73.1111L9.47017 74.0022" stroke="#565987" stroke-miterlimit="10"/>
<path id="Vector_37" d="M7.30655 72.614H8.39838" stroke="#565987" stroke-miterlimit="10"/>
<path id="Vector_38" d="M12.4463 68.8416C12.4463 68.8416 13.6915 68.7429 13.7146 69.3387" stroke="#565987" stroke-miterlimit="10"/>
<path id="Vector_39" d="M16.5499 67.0889C16.5499 67.0889 14.8916 66.2482 14.4629 67.2991" stroke="#565987" stroke-miterlimit="10"/>
<path id="Vector_40" d="M20.9844 62.2553C20.9844 62.2553 20.0386 61.2949 18.8911 61.8245" stroke="#565987" stroke-miterlimit="10"/>
<path id="Vector_41" d="M15.5578 61.3307C15.5578 61.3307 17.1025 62.371 16.6086 63.9356" stroke="#565987" stroke-miterlimit="10"/>
<path id="Vector_42" d="M94.7392 75.6005C94.7353 77.8333 93.87 79.9786 92.3236 81.5893C90.7771 83.2 88.6688 84.1519 86.4379 84.2467C84.2069 84.3416 82.0255 83.572 80.3479 82.0983C78.6704 80.6246 77.6261 78.5605 77.4328 76.3361C77.4202 76.1952 77.4107 76.0544 77.4065 75.9157V75.9084C77.4023 75.804 77.4002 75.6989 77.4002 75.5931C77.4002 73.2939 78.3136 71.0889 79.9394 69.4631C81.5653 67.8373 83.7704 66.924 86.0697 66.924C88.369 66.924 90.5741 67.8373 92.2 69.4631C93.8258 71.0889 94.7392 73.2939 94.7392 75.5931V75.6005Z" fill="#65617D"/>
<path id="Vector_43" d="M86.0696 80.3238C88.6813 80.3238 90.7984 78.2068 90.7984 75.5952C90.7984 72.9836 88.6813 70.8665 86.0696 70.8665C83.458 70.8665 81.3408 72.9836 81.3408 75.5952C81.3408 78.2068 83.458 80.3238 86.0696 80.3238Z" fill="#DCE0ED"/>
<path id="Vector_44" d="M86.0698 78.4325C87.6367 78.4325 88.907 77.1622 88.907 75.5953C88.907 74.0284 87.6367 72.7581 86.0698 72.7581C84.5028 72.7581 83.2325 74.0284 83.2325 75.5953C83.2325 77.1622 84.5028 78.4325 86.0698 78.4325Z" fill="#65617D"/>
<path id="Vector_45" d="M63.302 59.1322L42.4258 59.5525V56.4758C42.6129 53.999 45.1581 53.13 47.4699 52.8578C49.2774 52.6526 51.1073 52.7899 52.8639 53.2624C57.2933 54.4351 60.1148 54.6621 61.5051 54.6841C61.8102 54.6887 62.1045 54.7985 62.338 54.9949C62.5716 55.1914 62.7302 55.4624 62.7871 55.7623C62.8533 56.1143 62.9184 56.4978 62.9794 56.8761C63.0256 57.1724 63.0698 57.4646 63.1097 57.7367C63.2253 58.5206 63.302 59.1322 63.302 59.1322Z" fill="#65617D"/>
<path id="Vector_46" d="M79.9569 76.1552H36.5895C36.2546 76.1586 35.9262 76.0635 35.645 75.8817C35.3638 75.6999 35.1423 75.4395 35.0079 75.1328C34.6811 74.352 35.1382 73.8539 35.6258 73.5618C36.6237 72.9704 37.3801 72.045 37.7612 70.9495C38.2235 69.5834 38.6754 67.4461 38.853 64.1066C39.0358 60.6526 40.2863 58.945 41.6377 58.117C43.3832 57.0494 45.2968 57.4497 45.2968 57.4497L62.8806 57.5905C63.1936 57.7325 63.4831 57.9214 63.7392 58.1506C65.306 59.6092 63.0214 61.5132 63.0214 61.5132C58.1171 66.6969 61.8298 71.9509 61.8298 71.9509H70.8271C72.5082 71.9596 74.1521 71.4564 75.5402 70.5081C76.756 69.6675 77.2215 68.8552 77.4086 68.3634C77.5473 67.9873 77.6881 67.6121 77.8563 67.2485C80.2165 62.13 77.3697 53.8034 76.1413 50.6899C75.8365 49.9154 75.6316 49.4636 75.6316 49.4636L78.4531 49.2534L80.2396 49.1179H80.2574C84.1897 55.8998 85.6514 62.8688 86.1422 68.0324C86.1884 68.519 86.2263 68.9908 86.2567 69.4437C86.3124 70.3048 86.1907 71.1681 85.8992 71.9803C85.6077 72.7924 85.1525 73.5361 84.562 74.1653C83.9714 74.7944 83.258 75.2956 82.4659 75.6379C81.6738 75.9802 80.8198 76.1563 79.9569 76.1552Z" fill="#21B8F9"/>
<path id="Vector_47" opacity="0.1" d="M63.1107 57.7368H42.4258V56.8761H62.9804C63.0267 57.1672 63.0708 57.4593 63.1107 57.7368Z" fill="#103B66"/>
<path id="Vector_48" opacity="0.1" d="M63.7402 58.1571H41.8049C41.7478 58.1573 41.6913 58.1458 41.6388 58.1235C43.3843 57.0559 45.2979 57.4562 45.2979 57.4562L62.8817 57.597C63.1947 57.739 63.4842 57.9278 63.7402 58.1571Z" fill="#103B66"/>
<path id="Vector_49" d="M63.9231 57.0811H34.1294C33.8921 57.0811 33.6996 57.2735 33.6996 57.5109V57.5119C33.6996 57.7493 33.8921 57.9417 34.1294 57.9417H63.9231C64.1604 57.9417 64.3529 57.7493 64.3529 57.5119V57.5109C64.3529 57.2735 64.1604 57.0811 63.9231 57.0811Z" fill="#DCE0ED"/>
<path id="Vector_50" opacity="0.1" d="M86.1422 68.0346C85.1428 69.1212 84.4072 69.5489 84.4419 68.4024C84.547 64.9348 78.4521 49.2567 78.4521 49.2567L80.2543 49.1201C84.1876 55.8967 85.6504 62.8657 86.1422 68.0346Z" fill="#103B66"/>
<path id="Vector_51" opacity="0.1" d="M94.6867 74.6453C93.6516 74.8933 92.3748 75.1455 90.7985 75.3809C90.2121 75.4671 89.5816 75.5497 88.907 75.6289C87.296 75.8201 85.4329 75.9872 83.2808 76.1154C82.6713 76.1519 82.0383 76.1851 81.3819 76.2153C80.1524 76.2713 78.8364 76.314 77.4338 76.3435L77.4076 75.9231V75.9158C79.3674 75.1245 82.4516 73.0134 82.9476 67.5145C84.1862 67.0372 85.5178 66.8506 86.8399 66.9689C88.162 67.0872 89.4393 67.5074 90.5734 68.1971C91.7076 68.8868 92.6683 69.8275 93.3816 70.9469C94.0949 72.0663 94.5417 73.3345 94.6877 74.6537L94.6867 74.6453Z" fill="#103B66"/>
<path id="Vector_52" d="M49.186 84.2645C53.974 84.2645 57.8555 80.3832 57.8555 75.5953C57.8555 70.8075 53.974 66.9261 49.186 66.9261C44.3979 66.9261 40.5165 70.8075 40.5165 75.5953C40.5165 80.3832 44.3979 84.2645 49.186 84.2645Z" fill="#65617D"/>
<path id="Vector_53" d="M49.186 80.3238C51.7976 80.3238 53.9148 78.2068 53.9148 75.5952C53.9148 72.9836 51.7976 70.8665 49.186 70.8665C46.5743 70.8665 44.4571 72.9836 44.4571 75.5952C44.4571 78.2068 46.5743 80.3238 49.186 80.3238Z" fill="#DCE0ED"/>
<path id="Vector_54" d="M49.1859 78.4325C50.7529 78.4325 52.0232 77.1622 52.0232 75.5953C52.0232 74.0284 50.7529 72.7581 49.1859 72.7581C47.6189 72.7581 46.3486 74.0284 46.3486 75.5953C46.3486 77.1622 47.6189 78.4325 49.1859 78.4325Z" fill="#65617D"/>
<path id="Vector_55" opacity="0.1" d="M59.7996 73.7038H36.351C35.7317 73.7038 35.2297 74.2056 35.2297 74.8245C35.2297 75.4434 35.7317 75.9452 36.351 75.9452H59.7996C60.4188 75.9452 60.9208 75.4434 60.9208 74.8245C60.9208 74.2056 60.4188 73.7038 59.7996 73.7038Z" fill="#103B66"/>
<path id="Vector_56" opacity="0.1" d="M58.9063 72.9912C58.9063 67.3936 54.4602 62.8551 48.9758 62.8551C43.4914 62.8551 39.0453 67.3936 39.0453 72.9912C39.0453 73.228 39.0533 73.4624 39.0695 73.6942H58.8821C58.8983 73.4624 58.9063 73.228 58.9063 72.9912Z" fill="#103B66"/>
<path id="Vector_57" d="M58.5385 72.817C58.5385 67.4263 54.2574 63.056 48.9758 63.056C43.6942 63.056 39.4131 67.4263 39.4131 72.817C39.4131 73.045 39.4215 73.2699 39.4362 73.4937H58.5154C58.5301 73.2699 58.5385 73.045 58.5385 72.817Z" fill="#21B8F9"/>
<path id="Vector_58" opacity="0.1" d="M58.5385 72.817C58.5385 72.9736 58.5385 73.1322 58.527 73.2836C58.527 73.354 58.5196 73.4233 58.5154 73.4937H39.4362C39.4362 73.4233 39.4278 73.354 39.4246 73.2836C39.4173 73.1291 39.4131 72.9683 39.4131 72.817C39.4131 67.4263 43.6942 63.056 48.9758 63.056C54.2574 63.056 58.5385 67.4263 58.5385 72.817Z" fill="white"/>
<path id="Vector_59" opacity="0.1" d="M58.527 73.2887C58.527 73.3591 58.5196 73.4285 58.5154 73.4989H39.4363C39.4363 73.4285 39.4278 73.3591 39.4247 73.2887H58.527Z" fill="#103B66"/>
<path id="Vector_60" d="M59.7996 73.4935H36.351C35.7317 73.4935 35.2297 73.9953 35.2297 74.6142C35.2297 75.2332 35.7317 75.7349 36.351 75.7349H59.7996C60.4188 75.7349 60.9208 75.2332 60.9208 74.6142C60.9208 73.9953 60.4188 73.4935 59.7996 73.4935Z" fill="#DCE0ED"/>
<path id="Vector_61" d="M75.7725 76.1552C75.7725 76.1552 85.724 75.075 82.2961 59.9129C82.2961 59.9129 87.213 64.4208 90.2721 66.926C93.3311 69.4311 98.7839 72.8851 98.7839 72.8851C98.7839 72.8851 95.5284 75.9272 75.7725 76.1552Z" fill="#21B8F9"/>
<path id="Vector_62" opacity="0.1" d="M75.7725 76.1552C75.7725 76.1552 85.724 75.075 82.2961 59.9129C82.2961 59.9129 87.213 64.4208 90.2721 66.926C93.3311 69.4311 98.7839 72.8851 98.7839 72.8851C98.7839 72.8851 95.5284 75.9272 75.7725 76.1552Z" fill="white"/>
<path id="Vector_63" opacity="0.1" d="M80.2385 49.1201V50.7667H77.0334C76.735 50.767 76.4369 50.7431 76.1423 50.6952C75.8376 49.9208 75.6327 49.4689 75.6327 49.4689L78.4542 49.2588L80.2385 49.1201Z" fill="#103B66"/>
<path id="Vector_64" d="M60.8262 36.4935C60.8262 36.4935 63.033 40.6684 63.2043 41.2642C63.2489 41.4296 63.3451 41.5765 63.4789 41.6834C63.6127 41.7904 63.7771 41.8519 63.9483 41.859C63.9483 41.859 66.1467 42.3844 66.6721 42.4548C67.1975 42.5252 71.7519 42.9098 71.7519 42.9098C71.7519 42.9098 72.9078 42.9455 73.0476 42.5252C73.1758 42.1406 75.4088 40.1199 76.7014 41.8831C76.8206 42.0462 76.8996 42.2351 76.9321 42.4345C76.9646 42.6339 76.9496 42.8381 76.8884 43.0306C76.6509 43.7872 76.1634 44.9883 75.64 44.2411C74.9044 43.1903 74.0491 43.4856 74.0491 44.0457C74.0491 44.6058 72.8721 44.3977 72.4875 44.4765C72.2773 44.5196 71.5543 44.7119 70.9291 44.88C70.2033 45.0762 69.4599 45.1997 68.7097 45.2489C67.4687 45.3298 65.6391 45.397 64.9908 45.1522C64.2079 44.8548 62.8428 44.7865 62.2586 44.7707C62.065 44.7661 61.8781 44.699 61.7258 44.5795C60.9148 43.9447 60.2288 43.1647 59.7029 42.2793C58.7918 40.7031 56.9181 37.4392 57.0442 36.4935C57.1704 35.5478 60.8262 36.4935 60.8262 36.4935Z" fill="#EFB7B9"/>
<path id="Vector_65" opacity="0.05" d="M60.8262 36.4935C60.8262 36.4935 63.033 40.6684 63.2043 41.2642C63.2489 41.4296 63.3451 41.5765 63.4789 41.6834C63.6127 41.7904 63.7771 41.8519 63.9483 41.859C63.9483 41.859 66.1467 42.3844 66.6721 42.4548C67.1975 42.5252 71.7519 42.9098 71.7519 42.9098C71.7519 42.9098 72.9078 42.9455 73.0476 42.5252C73.1758 42.1406 75.4088 40.1199 76.7014 41.8831C76.8206 42.0462 76.8996 42.2351 76.9321 42.4345C76.9646 42.6339 76.9496 42.8381 76.8884 43.0306C76.6509 43.7872 76.1634 44.9883 75.64 44.2411C74.9044 43.1903 74.0491 43.4856 74.0491 44.0457C74.0491 44.6058 72.8721 44.3977 72.4875 44.4765C72.2773 44.5196 71.5543 44.7119 70.9291 44.88C70.2033 45.0762 69.4599 45.1997 68.7097 45.2489C67.4687 45.3298 65.6391 45.397 64.9908 45.1522C64.2079 44.8548 62.8428 44.7865 62.2586 44.7707C62.065 44.7661 61.8781 44.699 61.7258 44.5795C60.9148 43.9447 60.2288 43.1647 59.7029 42.2793C58.7918 40.7031 56.9181 37.4392 57.0442 36.4935C57.1704 35.5478 60.8262 36.4935 60.8262 36.4935Z" fill="#103B66"/>
<path id="Vector_66" d="M80.2385 50.5523H77.0334C74.2182 50.5523 71.9368 48.4507 71.9368 45.8478V45.4118C71.9368 42.8142 74.2182 40.7083 77.0334 40.7083L80.2385 40.9994V50.5523Z" fill="#21B8F9"/>
<path id="Vector_67" d="M57.4835 53.2686C57.4835 53.2686 57.9784 53.4493 58.6394 53.7015C59.6902 54.1061 61.1719 54.6966 61.6869 55.0203C62.2018 55.3439 64.1217 55.8756 65.5592 56.2497C66.625 56.5258 67.7223 56.6611 68.8232 56.6522C69.9413 56.6417 71.2958 56.6312 71.6699 56.6312C71.7354 56.6306 71.8008 56.6355 71.8654 56.6459C72.2584 56.711 72.2426 56.9748 72.2332 57.0378V57.0515C69.9213 58.4522 67.1187 64.7224 66.9443 65.7732C66.8129 66.5613 65.658 68.746 65.0885 69.7905C64.8972 70.1404 64.7732 70.3621 64.7732 70.3621L65.4741 71.167L67.5054 72.0781L69.4316 72.9187C69.4316 72.9187 71.464 73.0238 71.4986 72.9187C71.5333 72.8136 71.5333 71.7282 71.5333 71.7282C71.286 71.5685 71.0513 71.39 70.8314 71.1943C70.3653 70.7885 69.9324 70.3461 69.5367 69.8714C68.4165 68.54 70.658 65.9834 70.658 65.9834L74.9664 60.3794C74.9664 60.3794 75.3164 59.7489 76.9977 57.227C78.6791 54.705 76.9977 53.339 76.9977 53.339L74.0385 52.1106C68.9062 50.1897 62.7156 48.6502 62.7156 48.6502L62.6274 48.6387L61.3149 48.4748L57.4835 53.2686Z" fill="#EFB7B9"/>
<path id="Vector_68" d="M70.7063 72.0783C70.7063 72.0783 71.0741 72.5123 70.7988 72.5511C70.5234 72.59 69.8005 72.4334 69.8005 72.4334L65.2156 70.0166C65.2156 70.0166 64.7165 69.6614 64.5988 70.3581C64.4811 71.0548 64.4012 70.9886 64.4012 70.9886C64.4012 70.9886 63.797 72.2884 64.4012 72.5574C65.0054 72.8265 68.6351 73.8909 68.6351 73.8909C68.6351 73.8909 73.903 75.0867 74.4021 73.707C74.9013 72.3273 73.5089 72.5648 73.5089 72.5648C73.5089 72.5648 71.775 72.1445 71.1834 71.3038C71.1792 71.3038 70.3259 71.5403 70.7063 72.0783Z" fill="#444053"/>
<path id="Vector_69" opacity="0.05" d="M76.9935 53.339L74.0343 52.1106C68.902 50.1897 62.7114 48.6502 62.7114 48.6502L62.6232 48.6387L61.3107 48.4748L57.4835 53.2686C57.4835 53.2686 57.9784 53.4493 58.6394 53.7015C59.6902 54.1061 61.1719 54.6966 61.6869 55.0203C62.2018 55.3439 64.1217 55.8756 65.5592 56.2497C66.625 56.5258 67.7223 56.6611 68.8232 56.6522C69.9413 56.6417 71.2958 56.6312 71.6699 56.6312C71.7354 56.6306 71.8008 56.6355 71.8654 56.6459C72.2584 56.711 72.2426 56.9748 72.2332 57.0378V57.0515C69.9213 58.4522 67.1187 64.7224 66.9443 65.7732C66.8129 66.5613 65.658 68.746 65.0885 69.7905L65.0118 69.9313C64.8594 69.906 64.6692 69.9607 64.6019 70.3579C64.4832 71.0535 64.4044 70.9884 64.4044 70.9884C64.4044 70.9884 63.8001 72.2882 64.4044 72.5572C65.0086 72.8262 68.6351 73.8907 68.6351 73.8907C68.6351 73.8907 73.903 75.0865 74.4021 73.7068C74.9013 72.3271 73.5089 72.5646 73.5089 72.5646C73.5089 72.5646 71.775 72.1443 71.1834 71.3036C71.131 71.3189 71.0797 71.3379 71.03 71.3604C70.968 71.3099 70.9018 71.2553 70.8314 71.1943C70.3653 70.7885 69.9324 70.3461 69.5367 69.8714C68.4165 68.54 70.658 65.9834 70.658 65.9834L74.9664 60.3794C74.9664 60.3794 75.3164 59.7489 76.9977 57.227C78.6791 54.705 76.9935 53.339 76.9935 53.339Z" fill="#103B66"/>
<path id="Vector_70" d="M60.6108 45.8404L61.3233 46.4909L62.0116 49.1389H60.863L59.5947 47.4892L60.6108 45.8404Z" fill="#444053"/>
<path id="Vector_71" opacity="0.1" d="M59.5947 47.4892L60.3618 48.4864L60.863 49.1389H62.0116L61.8939 48.686L61.3927 46.7567L61.3233 46.4909L60.6108 45.8404L59.6378 47.4188L59.5947 47.4892Z" fill="#103B66"/>
<path id="Vector_72" opacity="0.1" d="M59.5947 47.4892L60.3618 48.4864L60.863 49.1389H62.0116L61.8939 48.686L61.3927 46.7567L61.3233 46.4909L60.6108 45.8404L59.6378 47.4188L59.5947 47.4892Z" fill="#103B66"/>
<path id="Vector_73" d="M55.7769 54.4572C55.7769 54.4572 56.2719 54.6379 56.9329 54.8901C57.9837 55.2947 59.4654 55.8852 59.9803 56.2089C60.4952 56.5325 62.4151 57.0642 63.8527 57.4383C64.9184 57.7147 66.0157 57.8504 67.1166 57.8418C68.2347 57.8313 69.5893 57.8208 69.9634 57.8208C70.0288 57.8203 70.0942 57.8252 70.1588 57.8355C70.5518 57.9007 70.5361 58.1644 70.5266 58.2275V58.2411C68.2148 59.6419 65.4121 65.9121 65.2377 66.9629C65.1063 67.751 63.9515 69.9356 63.3819 70.9801C63.1907 71.33 63.0667 71.5518 63.0667 71.5518L63.7676 72.3567L65.7978 73.2667L67.724 74.1073C67.724 74.1073 69.7563 74.2124 69.791 74.1073C69.8257 74.0022 69.8257 72.9168 69.8257 72.9168C69.5784 72.7571 69.3437 72.5786 69.1237 72.3829C68.6577 71.9771 68.2248 71.5347 67.8291 71.06C66.7089 69.7286 68.9503 67.172 68.9503 67.172L73.2588 61.568C73.2588 61.568 73.6088 60.9375 75.2901 58.4156C76.9715 55.8936 75.2901 54.5276 75.2901 54.5276L72.5936 52.986C68.3902 50.4294 62.4698 48.9583 62.4698 48.9583L62.3815 48.9467L61.069 48.7828L55.7769 54.4572Z" fill="#EFB7B9"/>
<path id="Vector_74" opacity="0.1" d="M63.0656 71.5505L63.7665 72.3555L65.7978 73.2665L67.724 74.1072C67.724 74.1072 69.7563 74.2122 69.791 74.1072C69.8257 74.0021 69.8257 72.9166 69.8257 72.9166C69.5783 72.7569 69.3437 72.5785 69.1237 72.3828C68.9062 72.4994 68.6592 72.718 68.8978 73.0564C68.8978 73.0564 69.2656 73.4893 68.9903 73.5292C68.7149 73.5691 67.9919 73.4115 67.9919 73.4115L63.4071 70.9947L63.3808 70.9768C63.1875 71.3288 63.0656 71.5505 63.0656 71.5505Z" fill="#103B66"/>
<path id="Vector_75" d="M68.9997 73.2666C68.9997 73.2666 69.3675 73.6995 69.0912 73.7394C68.8148 73.7794 68.0929 73.6207 68.0929 73.6207L63.5091 71.2038C63.5091 71.2038 63.0099 70.8497 62.8912 71.5453C62.7724 72.241 62.6947 72.1758 62.6947 72.1758C62.6947 72.1758 62.0904 73.4767 62.6947 73.7457C63.2989 74.0148 66.9243 75.075 66.9243 75.075C66.9243 75.075 72.1912 76.2698 72.6903 74.8911C73.1895 73.5125 71.7971 73.7478 71.7971 73.7478C71.7971 73.7478 70.0632 73.3275 69.4726 72.4869C69.4758 72.4911 68.6183 72.7275 68.9997 73.2666Z" fill="#444053"/>
<path id="Vector_76" opacity="0.1" d="M70.5265 58.2265L71.4103 57.7988V57.6318C71.4103 57.5677 70.7052 57.7095 70.1588 57.8304C70.5518 57.8997 70.536 58.1635 70.5265 58.2265Z" fill="#103B66"/>
<path id="Vector_77" opacity="0.1" d="M55.7769 54.4572C55.7769 54.4572 56.2719 54.6379 56.9329 54.8901C57.3479 54.5244 57.7735 54.1714 57.9511 54.1073C58.3368 53.9665 59.5978 53.2309 59.5631 53.0207C59.5284 52.8106 60.0885 52.0056 60.5782 51.8648C61.0679 51.724 60.7884 50.9895 60.7884 50.9895C60.7884 50.9895 61.7342 50.6396 61.9696 50.1489C62.2049 49.6581 62.9258 49.0276 62.6799 49.0634C62.5733 49.0461 62.4716 49.0063 62.3815 48.9467L61.069 48.7828L55.7769 54.4572Z" fill="#103B66"/>
<path id="Vector_78" d="M52.9038 53.1962C52.9038 53.1962 54.5158 54.5276 54.5905 55.1224C54.6651 55.7171 55.7411 55.6835 55.7411 55.6835C55.7411 55.6835 57.3531 54.1419 57.7378 54.0022C58.1224 53.8624 59.3844 53.1258 59.3498 52.9157C59.3151 52.7055 59.8752 51.9006 60.3649 51.7598C60.8546 51.619 60.575 50.8844 60.575 50.8844C60.575 50.8844 61.5208 50.5345 61.7562 50.0438C61.9916 49.5531 62.7125 48.9226 62.4666 48.9583C62.3972 48.9678 62.1755 48.8532 61.8939 48.6861C61.5481 48.476 61.1099 48.1912 60.7526 47.9506C60.3743 47.6942 60.0853 47.4903 60.0853 47.4903C60.0853 47.4903 59.9204 47.4609 59.6377 47.4199C58.1129 47.1992 53.1466 46.636 51.9938 48.4707C51.8402 48.7132 51.7249 48.978 51.6523 49.2557C51.1363 51.2102 52.9038 53.1962 52.9038 53.1962Z" fill="#444053"/>
<path id="Vector_79" opacity="0.1" d="M54.5895 48.9489C54.5895 48.9489 52.9438 49.8778 52.3301 49.8778C51.7164 49.8778 54.5895 48.9489 54.5895 48.9489Z" fill="#103B66"/>
<path id="Vector_80" opacity="0.1" d="M55.6886 49.6581C55.6886 49.6581 53.2381 50.4819 53.2381 51.1292C53.2381 51.7765 53.009 49.3954 55.6886 49.6581Z" fill="#103B66"/>
<path id="Vector_81" opacity="0.1" d="M61.5555 45.9478L61.5208 45.9951C61.5366 45.9829 61.5487 45.9665 61.5555 45.9478Z" fill="#103B66"/>
<path id="Vector_82" opacity="0.1" d="M51.6523 49.2525C51.939 49.375 52.2618 49.3825 52.5539 49.2735C53.6394 48.9225 55.3565 48.0776 56.1615 48.4475C56.8067 48.7439 59.4054 48.7355 60.3649 48.4864C60.6034 48.4244 60.74 48.3477 60.719 48.2573C60.7054 48.1532 60.7181 48.0474 60.7558 47.9494C60.8672 47.5932 61.1698 47.0983 61.3957 46.7568L61.3264 46.4909L60.6139 45.8405L59.6408 47.4167C58.116 47.196 53.1497 46.6328 51.997 48.4675C51.8422 48.7098 51.7259 48.9746 51.6523 49.2525Z" fill="#103B66"/>
<path id="Vector_83" d="M74.958 43.493C74.958 43.493 76.8758 44.5176 75.7725 46.2514C75.7725 46.2514 74.419 48.4707 72.291 48.2605L71.5165 43.493C71.5165 43.493 74.0648 43.2566 74.958 43.493Z" fill="#21B8F9"/>
<path id="Vector_84" opacity="0.1" d="M74.2214 43.4004C74.5262 43.412 74.8246 43.4918 75.0945 43.634C75.3644 43.7763 75.5989 43.9772 75.7808 44.2222C76.1224 44.695 76.3262 45.3844 75.7745 46.2513C75.7745 46.2513 74.421 48.4706 72.2931 48.2604L71.5186 43.4929C71.5186 43.4929 73.1127 43.3405 74.2214 43.4004Z" fill="#103B66"/>
<path id="Vector_85" opacity="0.1" d="M80.1334 40.9994H80.7513C81.2702 40.9994 81.7679 41.2056 82.1349 41.5725C82.5018 41.9394 82.708 42.4371 82.708 42.956V48.5968C82.708 49.1157 82.5018 49.6134 82.1349 49.9803C81.7679 50.3472 81.2702 50.5534 80.7513 50.5534H80.1334V40.9994Z" fill="#103B66"/>
<path id="Vector_86" d="M80.2386 40.9994H80.8565C81.3754 40.9994 81.8731 41.2056 82.24 41.5725C82.607 41.9394 82.8131 42.4371 82.8131 42.956V48.5968C82.8131 49.1157 82.607 49.6134 82.24 49.9803C81.8731 50.3472 81.3754 50.5534 80.8565 50.5534H80.2386V40.9994Z" fill="#DCE0ED"/>
<path id="Vector_87" d="M53.9548 29.8335L54.1145 30.0352L54.2038 30.1477L54.7608 30.8485C54.7608 30.8485 56.0901 31.2752 57.2555 31.5515C58.4692 31.8384 59.5043 31.9635 58.6815 31.2773C58.1708 30.8517 58.1371 30.1392 58.3231 29.3753C58.4798 28.7874 58.704 28.2197 58.9915 27.6835C59.0328 27.6036 59.0738 27.5259 59.1144 27.4502C59.3754 26.9675 59.6646 26.5005 59.9803 26.0516C59.2332 25.5342 58.4582 25.0582 57.659 24.6257C56.6964 24.1276 55.9062 23.9101 56.4074 24.8957C56.729 25.5262 56.6239 26.2344 56.3234 26.9122C56.3002 26.9658 56.275 27.0173 56.2488 27.073C55.979 27.5982 55.6458 28.0884 55.2568 28.5326C54.8582 29.0002 54.4228 29.4352 53.9548 29.8335Z" fill="#EFB7B9"/>
<path id="Vector_88" opacity="0.1" d="M53.9548 29.8335L54.1145 30.0353L54.2038 30.1477L54.7608 30.8486C54.7608 30.8486 56.0901 31.2752 57.2555 31.5516C58.4692 31.8384 59.5043 31.9635 58.6815 31.2773C58.1708 30.8517 58.1371 30.1393 58.3231 29.3754L58.2864 29.3281C58.2864 29.3281 58.3231 30.0363 57.9039 30.05C57.3385 30.0678 57.3311 29.8776 56.8099 29.658C56.1384 29.3743 55.4501 28.9004 55.2568 28.5316C54.8582 28.9996 54.4228 29.435 53.9548 29.8335Z" fill="#103B66"/>
<path id="Vector_89" d="M50.943 48.4329C50.943 48.4329 51.3633 49.4133 52.4488 49.0634C53.5343 48.7135 55.2514 47.8676 56.0564 48.2375C56.8613 48.6074 60.7158 48.5023 60.6108 48.0473C60.5057 47.5923 61.5565 46.1558 61.5565 46.1558C61.5565 46.1558 60.9828 46.0507 60.6276 44.1771C60.575 43.9039 60.5277 43.5929 60.4878 43.2398C60.401 42.5167 60.3806 41.7872 60.4269 41.0604C60.5687 39.0324 61.2791 38.2043 61.2791 38.2043C61.2791 38.2043 62.2595 37.0842 61.4189 35.5426C60.9786 34.7346 59.2016 32.4953 59.1774 31.497C59.1553 30.5912 58.2894 29.5383 58.2894 29.5383C58.2894 29.5383 58.3262 30.2466 57.9069 30.2602C57.3416 30.2781 57.3342 30.0879 56.813 29.8683C56.0469 29.5446 55.2598 28.974 55.2083 28.5926C55.2083 28.5926 51.997 28.4318 51.296 31.6893C50.5951 34.9468 50.841 36.7332 50.9461 37.1189C51.0512 37.5045 51.9612 42.478 51.2256 44.5796C50.49 46.6812 50.943 48.4329 50.943 48.4329Z" fill="#A36468"/>
<path id="Vector_90" opacity="0.1" d="M56.1794 42.7101C56.7585 43.6872 57.5335 44.534 58.4555 45.1974C59.0704 45.2025 59.6844 45.2435 60.2945 45.3203C60.2419 45.0471 60.1894 44.7361 60.1547 44.383C60.0679 43.6599 60.0475 42.9304 60.0938 42.2036C59.9929 42.153 59.9039 42.0815 59.8329 41.9938C59.7619 41.9061 59.7104 41.8042 59.6818 41.695C59.5063 41.0992 57.9437 38.2621 57.9437 38.2621C57.9437 38.2621 54.2878 37.3163 54.1607 38.2621C54.0335 39.2078 55.2683 41.1339 56.1794 42.7101Z" fill="#103B66"/>
<path id="Vector_91" d="M57.391 36.4935C57.391 36.4935 59.5978 40.6684 59.7691 41.2642C59.8137 41.4296 59.9099 41.5765 60.0437 41.6834C60.1775 41.7904 60.3419 41.8519 60.5131 41.859C60.5131 41.859 62.7115 42.3844 63.2369 42.4548C63.7623 42.5252 68.3198 42.9098 68.3198 42.9098C68.3198 42.9098 69.4758 42.9455 69.6155 42.5252C69.7437 42.1406 71.9768 40.1199 73.2693 41.8831C73.3885 42.0462 73.4676 42.2351 73.5 42.4345C73.5325 42.6339 73.5176 42.8381 73.4564 43.0306C73.2189 43.7872 72.7313 44.9883 72.208 44.2411C71.4724 43.1903 70.617 43.4856 70.617 44.0457C70.617 44.6058 69.44 44.3977 69.0554 44.4765C68.8453 44.5196 68.1223 44.7119 67.497 44.88C66.7696 45.0765 66.0243 45.2001 65.2724 45.2489C64.0313 45.3298 62.2018 45.397 61.5534 45.1522C60.7716 44.8548 59.4065 44.7865 58.8212 44.7707C58.6277 44.7661 58.4408 44.699 58.2884 44.5795C57.4778 43.9446 56.7922 43.1646 56.2666 42.2793C55.3555 40.7031 53.4819 37.4392 53.608 36.4935C53.7341 35.5478 57.391 36.4935 57.391 36.4935Z" fill="#EFB7B9"/>
<path id="Vector_92" opacity="0.1" d="M51.9265 43.8661C51.9265 43.8661 54.5537 46.5194 55.3943 46.5457C56.235 46.5719 51.9265 43.8661 51.9265 43.8661Z" fill="#103B66"/>
<path id="Vector_93" opacity="0.1" d="M51.9266 44.9736C51.9266 44.9736 53.6079 46.9439 53.713 46.9439C53.8181 46.9439 51.8972 46.2609 51.9266 44.9736Z" fill="#103B66"/>
<path id="Vector_94" d="M71.2948 48.5633C72.4706 48.5633 73.4238 47.4036 73.4238 45.9731C73.4238 44.5425 72.4706 43.3828 71.2948 43.3828C70.119 43.3828 69.1658 44.5425 69.1658 45.9731C69.1658 47.4036 70.119 48.5633 71.2948 48.5633Z" fill="#21B8F9"/>
<path id="Vector_95" d="M50.8032 42.6021L47.3806 45.9773L36.1292 45.7808L39.2229 42.6021H50.8032Z" fill="#DDA2A6"/>
<path id="Vector_96" d="M36.1292 45.7807V57.2755H47.3806V45.9772L36.1292 45.7807Z" fill="#DDA2A6"/>
<path id="Vector_97" opacity="0.3" d="M36.1292 45.7807V57.2755H47.3806V45.9772L36.1292 45.7807Z" fill="white"/>
<path id="Vector_98" d="M46.4664 49.141L38.0985 47.7046L37.0077 53.1982L45.6226 54.7808L46.4664 49.141Z" fill="#DCE0ED"/>
<path id="Vector_99" d="M43.2666 51.993L40.0667 51.5285L39.9259 52.3429L43.2666 52.8115V51.993Z" fill="#21B8F9"/>
<path id="Vector_100" d="M44.8134 50.4242L39.1882 49.5404L39.0474 50.2739L44.6725 51.228L44.8134 50.4242Z" fill="#21B8F9"/>
<path id="Vector_101" d="M50.8033 54.1484V42.6021L47.3807 45.9773V57.2756L50.8033 54.1484Z" fill="#B77B7F"/>
<path id="Vector_102" d="M49.4193 48.6618L49.2669 44.116L48.3874 44.984L48.5408 49.5403L49.4193 48.6618Z" fill="#65617D"/>
<path id="Vector_103" d="M38.0912 43.765L48.9033 43.9111L49.2669 44.116L48.3874 44.984L48.0837 44.8053L37.3745 44.5016L38.0912 43.765Z" fill="#65617D"/>
<path id="Vector_104" opacity="0.1" d="M51.9265 41.1338C51.9265 41.1338 53.3189 43.0516 53.7392 43.1041C53.7361 43.1083 51.9496 42.71 51.9265 41.1338Z" fill="#103B66"/>
<path id="Vector_105" opacity="0.1" d="M56.6553 30.7089C56.6553 30.7089 57.8375 32.6707 58.385 34.0714C58.9325 35.4722 59.5977 37.9248 59.5977 37.9248L56.3044 37.5391L56.0248 37.0841C56.0248 37.0841 53.673 38.5552 53.9536 39.1857C54.2342 39.8162 53.3231 38.24 53.3935 36.4536C53.4639 34.6672 53.1403 31.4791 53.3935 30.7089C53.6468 29.9386 55.8809 30.113 56.6553 30.7089Z" fill="#103B66"/>
<path id="Vector_106" d="M53.3978 36.2436C53.3274 38.03 54.2385 39.6062 53.9579 38.9757C53.6773 38.3452 56.0291 36.8741 56.0291 36.8741L56.3055 37.3291L59.5978 37.7147C59.5978 37.7147 58.9326 35.2621 58.3851 33.8614C58.0563 33.069 57.6801 32.297 57.2586 31.5496C56.9213 30.937 56.6554 30.4988 56.6554 30.4988C56.2025 30.1489 55.241 29.944 54.4739 29.9923C54.3543 29.9991 54.2354 30.0135 54.1176 30.0354C53.8024 30.0974 53.5481 30.2172 53.4356 30.4063C53.4185 30.4356 53.4044 30.4666 53.3936 30.4988C53.1414 31.2691 53.4651 34.4572 53.3978 36.2436Z" fill="#A36468"/>
<path id="Vector_107" opacity="0.1" d="M56.0564 26.6455C56.6638 27.0658 57.5906 27.731 58.3819 27.731C58.586 27.7309 58.7898 27.7147 58.9914 27.6826C59.2841 27.1171 59.6144 26.5719 59.9803 26.0507C59.9803 26.0507 55.3565 22.8279 56.4074 24.8948C56.7541 25.5821 56.4126 25.9194 56.0564 26.6455Z" fill="#103B66"/>
<path id="Vector_108" d="M54.5988 23.7379C54.5983 24.3688 54.7559 24.9897 55.0571 25.5441C55.3583 26.0984 55.7936 26.5685 56.3233 26.9113C56.4422 26.9889 56.5657 27.0591 56.6932 27.1215C57.4295 27.4888 58.2656 27.606 59.0746 27.4553C59.8836 27.3047 60.6214 26.8943 61.1761 26.2866C61.7308 25.6788 62.0723 24.9067 62.1486 24.0874C62.225 23.268 62.0321 22.4462 61.5992 21.7464C61.1663 21.0466 60.517 20.507 59.7498 20.2094C58.9826 19.9119 58.1393 19.8726 57.3477 20.0976C56.5562 20.3225 55.8595 20.7994 55.3635 21.456C54.8674 22.1125 54.599 22.9129 54.5988 23.7358V23.7379Z" fill="#EFB7B9"/>
<path id="Vector_109" opacity="0.1" d="M53.4324 30.4061C53.7027 30.3658 53.9638 30.2783 54.2037 30.1476C54.2941 30.1003 54.3834 30.0478 54.4707 29.9921C54.8152 29.7615 55.1362 29.4975 55.429 29.204C55.9124 28.7343 56.3948 28.2215 56.5944 27.5773C56.6393 27.4289 56.6724 27.2771 56.6932 27.1234C56.813 26.3153 56.7121 25.4232 57.2901 24.8736C57.3987 24.7711 57.5233 24.687 57.6589 24.6245C58.4786 24.2347 59.6671 24.4869 60.2787 23.7839C60.6675 23.3384 60.6581 22.7194 60.9565 22.235C61.0868 22.0248 61.3264 21.8431 61.5387 21.6497C61.2295 21.1791 60.8192 20.7835 60.3377 20.4916C59.8562 20.1998 59.3156 20.0191 58.7554 19.9627C58.1951 19.9064 57.6294 19.9758 57.0994 20.1659C56.5694 20.356 56.0885 20.6621 55.6919 21.0617C55.2952 21.4613 54.9927 21.9444 54.8066 22.4758C54.6204 23.0071 54.5551 23.5734 54.6156 24.1332C54.6762 24.6929 54.8609 25.2322 55.1563 25.7115C55.4517 26.1908 55.8504 26.5981 56.3233 26.9038C56.3002 26.9573 56.275 27.0088 56.2487 27.0645C55.5268 28.5357 53.9547 29.8261 53.9547 29.8261L54.1144 30.0278C53.796 30.1003 53.5449 30.217 53.4324 30.4061Z" fill="#103B66"/>
<path id="Vector_110" d="M60.0686 23.681C59.3571 24.4964 57.8618 24.0215 57.0789 24.7686C56.3916 25.4232 56.6649 26.5655 56.3843 27.4723C56.1846 28.1165 55.7023 28.6282 55.2189 29.099C54.5148 29.7841 53.6143 30.4797 52.6517 30.2832C52.0811 30.1666 51.522 29.74 50.9703 29.9365C50.696 30.0352 50.4995 30.2727 50.2946 30.4818C49.5986 31.1911 48.6938 31.6592 47.7127 31.8174C47.5187 31.8612 47.3165 31.8517 47.1274 31.7901C46.8331 31.6703 46.6744 31.3488 46.4065 31.1775C45.8811 30.8412 45.2064 31.1859 44.661 31.4864C43.1358 32.3122 41.4521 32.8037 39.7221 32.9282C37.992 33.0527 36.2553 32.8073 34.6275 32.2083L35.4777 31.788C35.2969 31.4192 34.8083 31.3382 34.4972 31.0682C33.8562 30.5123 34.2335 29.4006 34.9113 28.8909C35.5891 28.3813 36.4665 28.2037 37.1685 27.7277C37.3114 27.631 37.4564 27.5028 37.4701 27.3315C37.4678 27.2057 37.4279 27.0835 37.3555 26.9805C36.9814 26.3217 36.5674 25.6145 36.6515 24.8611C36.7797 23.7052 38.0417 22.9948 39.2008 22.9139C40.3599 22.833 41.5074 23.1819 42.6686 23.2018C43.089 23.2092 43.5293 23.1682 43.8897 22.9507C44.3931 22.648 44.6463 22.0712 44.9521 21.5699C45.4979 20.68 46.2801 19.959 47.2114 19.4872C48.2623 18.9566 49.4518 18.7706 50.5447 18.3313C51.6607 17.8837 52.6758 17.1754 53.8433 16.8907C55.5383 16.4703 57.3542 17.0199 58.818 17.9698C59.5232 18.4269 61.7751 19.8939 61.7604 20.8322C61.7489 21.3892 61.0248 21.6908 60.7506 22.1279C60.4479 22.6165 60.4574 23.2355 60.0686 23.681Z" fill="#965D7B"/>
<g id="Group" opacity="0.1">
<path id="Vector_111" opacity="0.1" d="M37.2525 26.4542C37.3243 26.5574 37.3642 26.6795 37.367 26.8052C37.3629 26.8495 37.3504 26.8927 37.3303 26.9324C37.0213 26.388 36.6998 25.8111 36.6483 25.2038C36.7849 25.6378 37.0255 26.0549 37.2525 26.4542Z" fill="#103B66"/>
<path id="Vector_112" opacity="0.1" d="M34.3943 30.5418C34.7043 30.8119 35.1929 30.8928 35.3747 31.2616L35.0742 31.4108C34.8717 31.3156 34.6791 31.2005 34.4994 31.0672C34.3854 30.9657 34.2965 30.8391 34.2396 30.6974C34.1827 30.5558 34.1594 30.4029 34.1715 30.2507C34.2251 30.362 34.3009 30.461 34.3943 30.5418Z" fill="#103B66"/>
<path id="Vector_113" opacity="0.1" d="M44.5581 30.9611C45.1035 30.6606 45.7792 30.3159 46.3036 30.6522C46.5705 30.8235 46.7302 31.145 47.0244 31.2648C47.2132 31.3264 47.415 31.3359 47.6087 31.2921C48.5901 31.1339 49.4952 30.6659 50.1917 29.9565C50.3956 29.7464 50.5921 29.5099 50.8674 29.4112C51.4159 29.2147 51.975 29.6413 52.5487 29.7579C53.5113 29.9544 54.4108 29.2588 55.116 28.5737C55.5993 28.104 56.0806 27.5912 56.2803 26.947C56.5619 26.0402 56.2887 24.8979 56.976 24.2433C57.7609 23.4962 59.2531 23.9711 59.9656 23.1557C60.3534 22.7102 60.345 22.0912 60.6434 21.6068C60.8956 21.198 61.5492 20.908 61.6417 20.4152C61.714 20.5438 61.754 20.688 61.7584 20.8355C61.7468 21.3924 61.0228 21.694 60.7485 22.1312C60.4501 22.6156 60.4585 23.2345 60.0707 23.6801C59.3582 24.4955 57.8639 24.0205 57.081 24.7676C56.3938 25.4223 56.667 26.5645 56.3854 27.4714C56.1857 28.1155 55.7044 28.6273 55.221 29.098C54.5159 29.7832 53.6164 30.4788 52.6538 30.2823C52.0822 30.1656 51.5231 29.739 50.9725 29.9355C50.6971 30.0343 50.5006 30.2718 50.2968 30.4809C49.6003 31.1902 48.6952 31.6582 47.7138 31.8165C47.5201 31.8602 47.3182 31.8508 47.1295 31.7891C46.8353 31.6694 46.6756 31.3478 46.4086 31.1765C45.8832 30.8403 45.2086 31.1849 44.6632 31.4855C43.1379 32.3113 41.4542 32.8028 39.7242 32.9273C37.9942 33.0518 36.2575 32.8063 34.6297 32.2074L35.2171 31.9163C36.7603 32.3799 38.3799 32.5342 39.9829 32.3702C41.5859 32.2063 43.1407 31.7275 44.5581 30.9611Z" fill="#103B66"/>
</g>
</g>
</svg>
