<svg width="138" height="84" viewBox="0 0 138 84" fill="none" xmlns="http://www.w3.org/2000/svg">
<g id="undraw_website_setup_5hr2 1" clip-path="url(#clip0_1_3189)">
<path id="Vector" opacity="0.6" d="M6.46258 37.0918C6.95275 36.9227 7.47377 36.7619 7.98622 36.8499C8.84316 36.9971 9.44473 37.7991 9.7001 38.6231C9.95547 39.4471 9.9469 40.3151 10.1097 41.1611C10.2725 42.0071 10.6616 42.8818 11.4294 43.2862C12.1972 43.6906 13.1039 43.5316 13.9557 43.4334C15.0729 43.3062 16.2006 43.296 17.32 43.403C18.2592 43.4927 19.363 43.8057 19.6389 44.6973C19.8651 45.4249 19.4161 46.1677 19.1247 46.8699C18.566 48.1829 18.5214 49.7344 19.1607 51.0102C19.8 52.2859 21.0957 53.2368 21.6373 54.5837C21.7942 54.9205 21.8398 55.2976 21.7675 55.6615C21.6874 55.9162 21.5556 56.1523 21.3802 56.3552C20.9552 56.8949 20.4478 57.3704 20.0605 57.9389C19.2533 59.1233 19.0322 60.5953 18.9396 62.0183C18.8473 63.4175 18.8553 64.8214 18.9636 66.2195C17.9113 65.8811 16.7493 66.1823 15.6644 65.9606C13.3558 65.4902 11.9144 62.7932 9.56299 62.6291C8.45068 62.5512 7.25439 63.069 6.26206 62.5665C5.78798 62.2968 5.41697 61.8806 5.20631 61.3821C4.78689 60.4997 4.69116 59.5008 4.93551 58.5565C5.1069 57.9033 5.44968 57.2638 5.38284 56.5921C5.32628 56.0168 4.97665 55.5092 4.5756 55.0879C3.43244 53.8899 1.7734 53.1573 0.952455 51.7242C0.579075 51.0434 0.423276 50.267 0.505572 49.4972C0.587867 48.7273 0.904397 48.0001 1.41349 47.4113C1.70649 47.1289 1.98397 46.8313 2.24472 46.5196C2.63891 45.9714 2.75888 45.2794 2.81202 44.6077C2.92513 42.9986 2.64063 41.2948 3.17364 39.7314C3.65182 38.3168 5.11204 37.5656 6.46258 37.0918Z" fill="#21B8F9"/>
<path id="Vector_2" opacity="0.6" d="M6.48651 37.1391C6.48651 37.1391 11.1671 62.8015 17.2445 65.8623" stroke="#535461" stroke-miterlimit="10"/>
<path id="Vector_3" opacity="0.6" d="M13.1226 60.3484C13.1226 60.3484 9.18071 59.6716 5.54214 61.9642" stroke="#535461" stroke-miterlimit="10"/>
<path id="Vector_4" opacity="0.6" d="M21.7161 54.6038C21.7161 54.6038 14.6754 55.1943 12.0686 57.8626" stroke="#535461" stroke-miterlimit="10"/>
<path id="Vector_5" opacity="0.6" d="M19.5085 44.2423C19.5085 44.2423 14.4954 44.9191 9.48746 50.0035" stroke="#535461" stroke-miterlimit="10"/>
<path id="Vector_6" opacity="0.6" d="M10.3685 52.9847C10.3685 52.9847 6.51051 49.2623 0.482788 49.8934" stroke="#535461" stroke-miterlimit="10"/>
<path id="Vector_7" d="M13.3129 0V4.22829V83.7874H137.9V4.22829V0H13.3129Z" fill="#F4F4F4"/>
<path id="Vector_8" d="M136.58 3.80182H15.1605V82.2713H136.58V3.80182Z" fill="white"/>
<path id="Vector_9" opacity="0.5" d="M51.0063 33.7009H32.6678V35.5621H51.0063V33.7009Z" fill="#21B8F9"/>
<path id="Vector_10" opacity="0.5" d="M43.6365 29.9785H19.8136V31.8397H43.6365V29.9785Z" fill="#21B8F9"/>
<path id="Vector_11" opacity="0.5" d="M124.36 28.1174H71.0587V58.4041H124.36V28.1174Z" fill="#21B8F9"/>
<path id="Vector_12" d="M130.702 30.9938H77.4V61.2804H130.702V30.9938Z" fill="#EEEEEE"/>
<path id="Vector_13" d="M107.222 61.2804H77.4V55.7324C84.6857 52.3704 95.8962 50.4821 107.222 61.2804Z" fill="#21B8F9"/>
<path id="Vector_14" opacity="0.1" d="M130.359 60.4871V61.2806H93.1677V61.1114C93.1677 61.1114 111.469 43.5198 130.359 60.4871Z" fill="#103B66"/>
<path id="Vector_15" d="M130.702 60.4871V61.2806H93.5105V61.1114C93.5105 61.1114 111.811 43.5198 130.702 60.4871Z" fill="#21B8F9"/>
<path id="Vector_16" d="M121.102 57.1809H121.713C121.713 57.1809 121.903 50.5974 121.102 48.5653H120.95C120.95 48.5653 121.483 56.0185 121.102 57.1809Z" fill="#21B8F9"/>
<path id="Vector_17" d="M98.8219 49.7361L98.6933 49.0593C98.6932 49.0095 98.6827 48.9603 98.6627 48.9146C98.6427 48.869 98.6134 48.8278 98.5768 48.7936L97.9821 48.506C97.9383 48.4552 97.9024 48.3981 97.8758 48.3368L97.8861 48.3216C97.9188 48.2814 97.9423 48.2346 97.9547 48.1845C97.9558 48.1716 97.9558 48.1585 97.9547 48.1456H97.9632C98.0181 48.1528 98.0738 48.1394 98.1191 48.1081C98.1645 48.0768 98.1963 48.0298 98.2083 47.9764V47.9612C98.1977 48.0069 98.1725 48.048 98.1364 48.0785C98.1003 48.109 98.0552 48.1272 98.0078 48.1304C98.0906 48.0756 98.1584 48.0016 98.2053 47.9149C98.2523 47.8281 98.2768 47.7313 98.2769 47.6329C98.2769 47.6329 98.2769 47.616 98.2769 47.6075C98.3031 47.5916 98.3257 47.5705 98.3431 47.5454C98.3605 47.5203 98.3724 47.4919 98.378 47.462V47.4468C98.3707 47.4752 98.3577 47.5018 98.3398 47.525C98.3218 47.5483 98.2992 47.5677 98.2734 47.5822C98.2693 47.5242 98.2566 47.4672 98.2357 47.413H98.2512C98.3098 47.413 98.366 47.39 98.4075 47.349C98.449 47.3081 98.4722 47.2526 98.4722 47.1947C98.4722 47.1947 98.4722 47.1845 98.4722 47.1795C98.4684 47.2344 98.4436 47.2858 98.4029 47.3235C98.3622 47.3611 98.3086 47.3822 98.2529 47.3825H98.2254V47.3723C98.2912 47.3529 98.3499 47.3153 98.3949 47.2641C98.4398 47.2128 98.469 47.15 98.4791 47.083C98.4791 47.083 98.4791 47.0729 98.4791 47.0678C98.4762 47.1102 98.4607 47.1508 98.4345 47.1845C98.4375 47.1303 98.4198 47.077 98.385 47.0349C98.3503 46.9929 98.3009 46.9651 98.2465 46.9571C98.1921 46.9491 98.1366 46.9613 98.0909 46.9915C98.0452 47.0217 98.0125 47.0676 97.9992 47.1202L97.9598 47.0982C97.9721 47.0547 97.9979 47.0159 98.0335 46.9874C98.0691 46.9589 98.1129 46.9421 98.1586 46.9392H98.1432C98.0969 46.9388 98.0516 46.9528 98.0138 46.9793C97.9759 47.0057 97.9475 47.0431 97.9324 47.0864C97.7999 47.0256 97.6496 47.014 97.5092 47.0538C97.3688 47.0936 97.2476 47.1821 97.168 47.303C97.1217 47.3368 97.0617 47.3859 97.0634 47.4282C97.0436 47.4478 97.0258 47.4693 97.0103 47.4925C96.9451 47.6338 96.9213 47.7903 96.9418 47.9442C96.9512 48.0208 96.9418 48.0984 96.9144 48.1706C96.8869 48.2428 96.8422 48.3073 96.7841 48.3588C96.8096 48.3693 96.837 48.3747 96.8646 48.3747C96.8923 48.3747 96.9197 48.3693 96.9452 48.3588C96.9961 48.3375 97.044 48.3096 97.0874 48.2759C97.128 48.2515 97.1625 48.2186 97.1886 48.1794V48.171C97.2171 48.1898 97.2475 48.2057 97.2794 48.2183C97.2914 48.3199 97.2948 48.4366 97.2485 48.4755L97.2571 48.4569C97.1466 48.539 97.0092 48.5776 96.8715 48.5652C96.7884 48.5698 96.7079 48.5956 96.6379 48.6401C96.5679 48.6846 96.5108 48.7462 96.4721 48.819L96.2853 49.5889V49.6024V49.6159C96.2882 49.6263 96.2938 49.6357 96.3017 49.6432C96.3095 49.6506 96.3193 49.6558 96.3299 49.6582L96.3882 49.6735C96.397 49.805 96.3836 49.9371 96.3488 50.0643C96.3096 50.2538 96.2873 50.4463 96.2819 50.6396C96.2956 50.736 96.3196 51.2386 96.3316 51.4771C96.3108 51.5586 96.2942 51.641 96.2819 51.7242L96.006 53.3586C96.006 53.3586 95.8003 54.6665 95.8106 55.0625L95.7746 55.2909C95.7746 55.2909 95.2142 55.9846 95.3787 56.0827C95.5432 56.1809 95.7969 56.2232 96.0385 55.8543C96.0713 55.7674 96.1241 55.6892 96.1928 55.6259C96.2202 55.6025 96.2416 55.5729 96.255 55.5396C96.2684 55.5063 96.2735 55.4703 96.2699 55.4347L96.2528 55.2655L96.2819 55.2756H96.299C96.299 55.2756 96.575 54.3806 96.5441 53.7529C96.5441 53.7529 97.0583 51.956 97.4439 51.6734V51.6615L97.4799 51.6446L97.5622 53.3857L97.4782 55.3044L97.4593 55.4195C97.4593 55.4195 96.8989 56.1132 97.0634 56.2113C97.228 56.3095 97.4816 56.3518 97.7233 55.9829C97.756 55.896 97.8089 55.8178 97.8775 55.7545C97.905 55.7311 97.9263 55.7015 97.9397 55.6682C97.9532 55.6349 97.9583 55.5989 97.9547 55.5633L97.9289 55.3095C98.0249 54.9863 98.2717 54.0557 98.1706 53.516L98.342 52.3688C98.5134 52.1776 98.4911 51.692 98.4911 51.692C98.6265 51.4128 98.6625 50.3181 98.6625 50.3181L98.6968 49.7767C98.7224 49.7745 98.7482 49.7745 98.7739 49.7767H98.791H98.8013V49.7665C98.8063 49.7622 98.8103 49.7571 98.8133 49.7513H98.8236V49.7378L98.8219 49.7361ZM98.342 50.8359C98.3266 50.7986 98.3094 50.7614 98.2906 50.7242H98.2769V50.7106C98.2764 50.7061 98.2764 50.7016 98.2769 50.6971V50.6836C98.2849 50.6654 98.2918 50.6468 98.2974 50.6277C98.3196 50.5928 98.3309 50.5522 98.33 50.511C98.3502 50.6181 98.3542 50.7276 98.342 50.8359ZM98.2906 50.3723L98.2563 50.0102L98.2666 49.9814L98.3129 50.4416L98.2906 50.3723ZM96.6658 50.4213C96.654 50.4346 96.6452 50.4503 96.6399 50.4672C96.6346 50.4841 96.6329 50.5019 96.635 50.5195C96.635 50.5195 96.635 50.5195 96.635 50.5313C96.6352 50.5679 96.6404 50.6043 96.6504 50.6396L96.5973 50.8663V50.4332C96.6325 50.3875 96.6634 50.3388 96.6898 50.2877C96.6952 50.3336 96.6869 50.38 96.6658 50.4213Z" fill="#F4F4F4"/>
<path id="Vector_18" d="M97.5038 54.9524L97.4507 55.2908C97.4507 55.2908 96.9108 55.9676 97.0702 56.0539C97.2296 56.1402 97.473 56.1893 97.7061 55.834C97.7373 55.7504 97.7877 55.6751 97.8534 55.614C97.8798 55.5914 97.9003 55.5628 97.9131 55.5307C97.926 55.4986 97.9308 55.4639 97.9271 55.4296L97.874 54.9135L97.5038 54.9524Z" fill="#333333"/>
<path id="Vector_19" d="M95.8791 54.8189L95.826 55.1573C95.826 55.1573 95.2861 55.8341 95.4455 55.9204C95.6049 56.0067 95.8483 56.0557 96.0814 55.7004C96.1126 55.6168 96.163 55.5415 96.2287 55.4805C96.2551 55.4578 96.2756 55.4292 96.2884 55.3971C96.3013 55.365 96.3061 55.3304 96.3024 55.296L96.2493 54.78L95.8791 54.8189Z" fill="#333333"/>
<path id="Vector_20" d="M96.6624 50.9069C96.6624 50.9069 96.4088 51.0879 96.3196 51.7174L96.054 53.2926C96.054 53.2926 95.8295 54.7206 95.8706 54.9948L96.3196 55.147C96.3196 55.147 96.5853 54.2841 96.5562 53.6835C96.5562 53.6835 97.096 51.785 97.4748 51.6531L97.5554 53.3298L97.4697 55.2164L97.8536 55.2925C97.8536 55.2925 98.2426 54.0912 98.1192 53.455L98.3198 52.1014C98.3198 52.1014 98.5494 51.379 98.2306 50.7478L96.6624 50.9069Z" fill="#4D8AF0"/>
<g id="Group" opacity="0.1">
<path id="Vector_21" opacity="0.1" d="M97.4353 51.6786V51.6499C97.0565 51.7835 96.5166 53.6803 96.5166 53.6803C96.5075 54.1713 96.4296 54.6587 96.2853 55.1286L96.3333 55.1455C96.3333 55.1455 96.5989 54.2826 96.5698 53.682C96.5681 53.6836 97.0617 51.9578 97.4353 51.6786Z" fill="#103B66"/>
<path id="Vector_22" opacity="0.1" d="M98.246 50.7564H98.1946C98.3788 51.1806 98.4091 51.6545 98.2802 52.0982L98.0797 53.4518C98.198 54.0541 97.8535 55.1624 97.8175 55.2791L97.8672 55.2893C97.8672 55.2893 98.2563 54.088 98.1329 53.4518L98.3334 52.0982C98.3334 52.0982 98.5648 51.3791 98.246 50.7564Z" fill="#103B66"/>
</g>
<path id="Vector_23" d="M97.5845 54.1775H97.7833L97.9547 54.1944H97.8947L97.5845 54.1775Z" fill="#F0E4E4"/>
<path id="Vector_24" d="M97.5845 54.137H97.7833L97.9547 54.1539H97.8947L97.5845 54.137Z" fill="#F0E4E4"/>
<path id="Vector_25" d="M97.5845 54.0964H97.7833L97.9547 54.1133H97.8947L97.5845 54.0964Z" fill="#F0E4E4"/>
<path id="Vector_26" d="M97.5845 54.054H97.7833L97.9547 54.0709H97.8947L97.5845 54.054Z" fill="#F0E4E4"/>
<path id="Vector_27" d="M96.5732 52.5735H96.431C96.3675 52.5735 96.3161 52.6242 96.3161 52.6868C96.3161 52.7494 96.3675 52.8002 96.431 52.8002H96.5732C96.6366 52.8002 96.688 52.7494 96.688 52.6868C96.688 52.6242 96.6366 52.5735 96.5732 52.5735Z" fill="#FDB797"/>
<path id="Vector_28" d="M96.3179 52.7919H96.5167L96.6881 52.8122H96.6282L96.3179 52.7919Z" fill="#F0E4E4"/>
<path id="Vector_29" d="M96.3179 52.7714H96.5167L96.6881 52.7918H96.6282L96.3179 52.7714Z" fill="#F0E4E4"/>
<path id="Vector_30" d="M96.3179 52.7513H96.5167L96.6881 52.7716H96.6282L96.3179 52.7513Z" fill="#F0E4E4"/>
<path id="Vector_31" d="M96.3179 52.7309H96.5167L96.6881 52.7512H96.6282L96.3179 52.7309Z" fill="#F0E4E4"/>
<path id="Vector_32" d="M96.3179 52.6346L96.5167 52.6261L96.6881 52.6532H96.6282L96.3179 52.6346Z" fill="#F0E4E4"/>
<path id="Vector_33" d="M96.3179 52.6039L96.5167 52.5955L96.6881 52.6226H96.6282L96.3179 52.6039Z" fill="#F0E4E4"/>
<path id="Vector_34" d="M96.3179 52.5684L96.5167 52.5599L96.6881 52.587H96.6282L96.3179 52.5684Z" fill="#F0E4E4"/>
<path id="Vector_35" d="M98.1722 50.0592C98.3308 49.9481 98.5143 49.8767 98.707 49.8511C98.7202 49.8511 98.7328 49.8459 98.7421 49.8367C98.7514 49.8275 98.7567 49.815 98.7567 49.802C98.7567 49.802 98.3076 49.6278 98.1722 50.0592Z" fill="#F55F44"/>
<path id="Vector_36" opacity="0.1" d="M98.7567 49.8003C98.7567 49.8003 98.3076 49.6311 98.1722 50.0575C98.1722 50.0575 98.503 49.8071 98.7327 49.8477" fill="#103B66"/>
<path id="Vector_37" opacity="0.1" d="M98.6419 49.6245L98.5939 50.3774C98.5939 50.3774 98.5648 51.4332 98.4345 51.7005C98.4345 51.7005 98.4705 52.4416 98.1209 52.423C97.7712 52.4044 98.1792 51.6126 98.1792 51.6126C98.1792 51.6126 98.366 50.7886 98.27 50.528L98.1792 49.6245H98.6419Z" fill="#103B66"/>
<path id="Vector_38" d="M98.647 49.6245L98.599 50.3774C98.599 50.3774 98.5699 51.4332 98.4396 51.7005C98.4396 51.7005 98.4756 52.4416 98.126 52.423C97.7764 52.4044 98.1843 51.6126 98.1843 51.6126C98.1843 51.6126 98.3711 50.7886 98.2751 50.528L98.1843 49.6245H98.647Z" fill="#FDB797"/>
<path id="Vector_39" d="M97.6581 51.8087H97.8569L98.0283 51.8257H97.9683L97.6581 51.8087Z" fill="#F0E4E4"/>
<path id="Vector_40" d="M97.6702 51.8087H97.869L98.0404 51.8257H97.9838L97.6702 51.8087Z" fill="#F0E4E4"/>
<path id="Vector_41" d="M97.6581 51.7682H97.8569L98.0283 51.7851H97.9683L97.6581 51.7682Z" fill="#F0E4E4"/>
<path id="Vector_42" d="M97.6702 51.7682H97.869L98.0404 51.7851H97.9838L97.6702 51.7682Z" fill="#F0E4E4"/>
<path id="Vector_43" d="M97.6581 51.7258H97.8569L98.0283 51.7427H97.9683L97.6581 51.7258Z" fill="#F0E4E4"/>
<path id="Vector_44" d="M97.6702 51.7258H97.869L98.0404 51.7427H97.9838L97.6702 51.7258Z" fill="#F0E4E4"/>
<path id="Vector_45" d="M97.6581 51.6852H97.8569L98.0283 51.7021H97.9683L97.6581 51.6852Z" fill="#F0E4E4"/>
<path id="Vector_46" d="M97.6702 51.6852H97.869L98.0404 51.7021H97.9838L97.6702 51.6852Z" fill="#F0E4E4"/>
<path id="Vector_47" d="M96.3179 49.6734C96.3176 49.6863 96.3219 49.699 96.33 49.7092C96.3381 49.7194 96.3496 49.7265 96.3624 49.7292C96.4878 49.7603 96.6048 49.818 96.7052 49.8984C96.8938 50.0439 96.5047 49.6074 96.5047 49.6074L96.3744 49.6361L96.3213 49.6835L96.3179 49.6734Z" fill="#F55F44"/>
<path id="Vector_48" opacity="0.1" d="M96.3179 49.6734C96.3176 49.6863 96.3219 49.699 96.33 49.7092C96.3381 49.7194 96.3496 49.7265 96.3624 49.7292C96.4878 49.7603 96.6048 49.818 96.7052 49.8984C96.8938 50.0439 96.5047 49.6074 96.5047 49.6074L96.3744 49.6361L96.3213 49.6835L96.3179 49.6734Z" fill="#103B66"/>
<path id="Vector_49" opacity="0.1" d="M96.4207 49.5721C96.4329 49.7556 96.4208 49.9399 96.3847 50.1203C96.3468 50.3025 96.325 50.4876 96.3196 50.6735C96.3367 50.7954 96.3727 51.6007 96.3727 51.6007C96.3727 51.6007 96.3076 52.3063 96.6555 52.242C97.0034 52.1777 96.6024 51.4366 96.6024 51.4366L96.6195 50.4739C96.7139 50.3473 96.773 50.1986 96.7909 50.0424C96.8166 49.8106 96.4207 49.5721 96.4207 49.5721Z" fill="#103B66"/>
<path id="Vector_50" d="M96.4156 49.5721C96.4278 49.7556 96.4157 49.9399 96.3796 50.1203C96.3417 50.3025 96.3199 50.4876 96.3145 50.6735C96.3316 50.7954 96.3676 51.6007 96.3676 51.6007C96.3676 51.6007 96.3024 52.3063 96.6504 52.242C96.9983 52.1777 96.5972 51.4366 96.5972 51.4366L96.6144 50.4739C96.7088 50.3473 96.7678 50.1986 96.7858 50.0424C96.8098 49.8106 96.4156 49.5721 96.4156 49.5721Z" fill="#FDB797"/>
<path id="Vector_51" d="M97.0119 47.6261C96.9489 47.762 96.9257 47.9127 96.9451 48.061C96.9541 48.1347 96.9449 48.2096 96.9183 48.2791C96.8918 48.3486 96.8486 48.4107 96.7926 48.4603C96.8173 48.4705 96.8438 48.4757 96.8706 48.4757C96.8973 48.4757 96.9238 48.4705 96.9485 48.4603C96.9976 48.4399 97.0437 48.4132 97.0856 48.3808C97.1248 48.3573 97.1582 48.3255 97.1833 48.2877C97.207 48.2292 97.2147 48.1656 97.2056 48.1033C97.2059 47.9927 97.2156 47.8823 97.2347 47.7733C97.245 47.7057 97.3101 47.5212 97.2347 47.4857C97.1593 47.4502 97.0445 47.5754 97.0119 47.6261Z" fill="#72351C"/>
<path id="Vector_52" d="M97.6512 48.3385C97.974 48.3385 98.2357 48.0802 98.2357 47.7615C98.2357 47.4429 97.974 47.1845 97.6512 47.1845C97.3285 47.1845 97.0668 47.4429 97.0668 47.7615C97.0668 48.0802 97.3285 48.3385 97.6512 48.3385Z" fill="#72351C"/>
<path id="Vector_53" d="M97.2485 48.166C97.2485 48.166 97.3307 48.5044 97.2485 48.5737C97.1662 48.6431 96.9999 48.7717 97.1251 48.8715C97.2502 48.9713 97.6975 49.1405 97.8466 49.0576C97.9957 48.9747 98.1654 49.0001 98.1243 48.8309C98.0831 48.6617 97.7575 48.6972 97.7523 47.8563L97.2485 48.166Z" fill="#FDB797"/>
<path id="Vector_54" opacity="0.1" d="M97.5141 48.8952C97.5141 48.8952 97.7969 49.0238 97.9511 48.6414L98.5253 48.9189C98.5606 48.952 98.5887 48.9919 98.6078 49.0361C98.627 49.0804 98.6368 49.128 98.6367 49.1761L98.7601 49.8292C98.7601 49.8292 98.3402 49.6887 98.2099 50.0745L98.2459 50.4417C98.273 50.5323 98.2663 50.6296 98.227 50.7158C98.2236 50.7235 98.2218 50.7319 98.2218 50.7403C98.2218 50.7488 98.2236 50.7571 98.227 50.7649C98.2356 50.7916 98.2377 50.8199 98.2332 50.8476C98.2287 50.8753 98.2176 50.9015 98.201 50.9242C98.1843 50.9469 98.1625 50.9655 98.1372 50.9784C98.112 50.9912 98.0841 50.9981 98.0557 50.9983C97.9014 51.0001 97.7473 51.012 97.5946 51.0339C97.4712 51.0694 97.0976 50.9645 96.9742 51.0339C96.8508 51.1033 96.5903 50.9814 96.5903 50.9814L96.6606 50.6836C96.6606 50.6836 96.6126 50.5381 96.6726 50.4857C96.7326 50.4332 96.6966 49.9781 96.6434 49.8495C96.6434 49.8495 96.4309 49.6515 96.3007 49.6803L96.472 48.9273C96.509 48.8571 96.5639 48.7976 96.6312 48.7546C96.6985 48.7116 96.7759 48.6866 96.856 48.682C96.9888 48.6938 97.1214 48.6564 97.2279 48.5771C97.2279 48.5771 97.0993 48.8546 97.5141 48.8952Z" fill="#103B66"/>
<path id="Vector_55" opacity="0.1" d="M97.5432 48.8816C97.6203 48.9019 97.826 48.9239 97.9494 48.6177L98.5236 48.8952C98.5589 48.9283 98.587 48.9682 98.6061 49.0124C98.6253 49.0566 98.6351 49.1043 98.635 49.1523L98.7584 49.8055C98.7584 49.8055 98.3385 49.665 98.2082 50.0508L98.2442 50.418L98.2682 50.4907C98.2785 50.5218 98.2812 50.5549 98.2762 50.5872C98.2711 50.6196 98.2584 50.6503 98.2391 50.6768C98.2309 50.6859 98.2255 50.6971 98.2234 50.709C98.2213 50.721 98.2226 50.7332 98.2271 50.7445C98.2356 50.7712 98.2377 50.7996 98.2332 50.8273C98.2287 50.855 98.2176 50.8812 98.201 50.9039C98.1843 50.9266 98.1625 50.9451 98.1372 50.958C98.112 50.9709 98.0841 50.9777 98.0557 50.978C97.9014 50.9798 97.7473 50.9916 97.5946 51.0135C97.4712 51.0491 97.0976 50.9442 96.9742 51.0135C96.8508 51.0829 96.5903 50.9611 96.5903 50.9611L96.6606 50.6633C96.6606 50.6633 96.6126 50.5178 96.6726 50.4653C96.7326 50.4129 96.6966 49.9577 96.6434 49.8291C96.6434 49.8291 96.4309 49.6312 96.3007 49.6599L96.472 48.907C96.509 48.8368 96.5639 48.7773 96.6312 48.7342C96.6985 48.6912 96.7759 48.6662 96.856 48.6617C96.9888 48.6734 97.1214 48.636 97.2279 48.5568C97.2279 48.5568 97.089 48.8072 97.4541 48.8613L97.5432 48.8816Z" fill="#103B66"/>
<path id="Vector_56" d="M97.5433 48.8935C97.6204 48.9138 97.8261 48.9358 97.9495 48.6296L98.5236 48.9071C98.5589 48.9402 98.587 48.9801 98.6062 49.0243C98.6253 49.0685 98.6352 49.1162 98.635 49.1643L98.7584 49.8174C98.7584 49.8174 98.3385 49.6769 98.2083 50.0627L98.2443 50.4299C98.2713 50.5205 98.2646 50.6178 98.2254 50.704C98.222 50.7117 98.2202 50.7201 98.2202 50.7285C98.2202 50.7369 98.222 50.7453 98.2254 50.753C98.234 50.7798 98.2361 50.8081 98.2316 50.8358C98.227 50.8635 98.216 50.8897 98.1993 50.9124C98.1827 50.9351 98.1608 50.9537 98.1356 50.9665C98.1104 50.9794 98.0824 50.9863 98.054 50.9865C97.8997 50.9883 97.7457 51.0002 97.593 51.0221C97.4696 51.0576 97.096 50.9527 96.9726 51.0221C96.8492 51.0914 96.5887 50.9696 96.5887 50.9696L96.6589 50.6718C96.6589 50.6718 96.6109 50.5263 96.6709 50.4739C96.7309 50.4214 96.6949 49.9663 96.6418 49.8377C96.6418 49.8377 96.4293 49.6397 96.299 49.6685L96.4704 48.9155C96.5074 48.8453 96.5622 48.7858 96.6295 48.7428C96.6968 48.6998 96.7743 48.6748 96.8543 48.6702C96.9872 48.6819 97.1197 48.6446 97.2262 48.5653C97.2262 48.5653 97.0874 48.8157 97.4525 48.8698L97.5433 48.8935Z" fill="#F55F44"/>
<path id="Vector_57" opacity="0.1" d="M96.6829 50.4721C96.7288 50.4884 96.7791 50.4884 96.8251 50.4721C96.881 50.4554 96.9406 50.4554 96.9965 50.4721" fill="#103B66"/>
<path id="Vector_58" opacity="0.1" d="M96.7549 50.0591C96.9218 50.067 97.0886 50.0411 97.2451 49.983C97.2451 49.983 97.8484 50.1285 98.0197 50.0236" fill="#103B66"/>
<path id="Vector_59" opacity="0.1" d="M96.6949 49.347C96.7172 49.4508 96.7172 49.558 96.6949 49.6617C96.6949 49.6617 96.6658 49.9358 96.712 49.9832" fill="#103B66"/>
<path id="Vector_60" opacity="0.1" d="M98.1312 49.2826C98.1535 49.3863 98.1535 49.4936 98.1312 49.5973C98.1312 49.5973 98.102 49.8714 98.1483 49.9188" fill="#103B66"/>
<path id="Vector_61" opacity="0.1" d="M97.761 47.8867L97.2588 48.1963C97.2716 48.2522 97.2813 48.3087 97.288 48.3655C97.3452 48.388 97.4063 48.3995 97.4679 48.3994C97.5906 48.3909 97.7061 48.3393 97.7936 48.2539C97.7709 48.1328 97.7599 48.0098 97.761 47.8867Z" fill="#103B66"/>
<path id="Vector_62" d="M97.4576 48.3623C97.7254 48.3623 97.9426 48.148 97.9426 47.8835C97.9426 47.619 97.7254 47.4047 97.4576 47.4047C97.1897 47.4047 96.9725 47.619 96.9725 47.8835C96.9725 48.148 97.1897 48.3623 97.4576 48.3623Z" fill="#FDB797"/>
<path id="Vector_63" d="M97.9272 48.2353C97.8745 48.2254 97.8275 48.1962 97.7957 48.1535C97.7639 48.1108 97.7497 48.0579 97.7558 48.0052V48.0188C97.7456 48.0735 97.7578 48.13 97.7898 48.1759C97.8218 48.2217 97.8709 48.2532 97.9263 48.2632C97.9818 48.2733 98.039 48.2613 98.0855 48.2297C98.1319 48.1981 98.1638 48.1496 98.174 48.0949V48.0797C98.1609 48.1319 98.128 48.1772 98.0821 48.2062C98.0362 48.2351 97.9807 48.2456 97.9272 48.2353Z" fill="#72351C"/>
<path id="Vector_64" d="M98.1722 47.5162C98.2896 47.5162 98.3848 47.4223 98.3848 47.3064C98.3848 47.1906 98.2896 47.0966 98.1722 47.0966C98.0549 47.0966 97.9597 47.1906 97.9597 47.3064C97.9597 47.4223 98.0549 47.5162 98.1722 47.5162Z" fill="#72351C"/>
<path id="Vector_65" d="M98.2134 47.5281C98.1596 47.5282 98.1077 47.5082 98.0683 47.4721C98.0289 47.436 98.0048 47.3865 98.0009 47.3335C98.0009 47.3335 98.0009 47.3437 98.0009 47.3488C98.0009 47.4044 98.0233 47.4578 98.0631 47.4971C98.103 47.5365 98.157 47.5586 98.2134 47.5586C98.2697 47.5586 98.3238 47.5365 98.3637 47.4971C98.4035 47.4578 98.4259 47.4044 98.4259 47.3488C98.4259 47.3488 98.4259 47.3386 98.4259 47.3335C98.422 47.3865 98.3979 47.436 98.3585 47.4721C98.319 47.5082 98.2672 47.5282 98.2134 47.5281Z" fill="#72351C"/>
<path id="Vector_66" d="M98.0918 47.7277C98.0391 47.7178 97.9921 47.6885 97.9603 47.6459C97.9285 47.6032 97.9143 47.5502 97.9204 47.4976V47.5111C97.9102 47.5659 97.9224 47.6224 97.9544 47.6682C97.9864 47.7141 98.0355 47.7455 98.0909 47.7556C98.1464 47.7657 98.2036 47.7536 98.2501 47.7221C98.2965 47.6905 98.3284 47.642 98.3386 47.5873V47.572C98.3255 47.6243 98.2926 47.6695 98.2467 47.6985C98.2007 47.7275 98.1453 47.7379 98.0918 47.7277Z" fill="#72351C"/>
<path id="Vector_67" d="M98.2134 47.4164C98.1593 47.4165 98.1072 47.3962 98.0678 47.3598C98.0283 47.3233 98.0043 47.2734 98.0009 47.2201C98.0009 47.2201 98.0009 47.2302 98.0009 47.2353C98.0009 47.291 98.0233 47.3443 98.0631 47.3837C98.103 47.423 98.157 47.4451 98.2134 47.4451C98.2697 47.4451 98.3238 47.423 98.3637 47.3837C98.4035 47.3443 98.4259 47.291 98.4259 47.2353C98.4259 47.2353 98.4259 47.2252 98.4259 47.2201C98.4224 47.2734 98.3985 47.3233 98.359 47.3598C98.3195 47.3962 98.2675 47.4165 98.2134 47.4164Z" fill="#72351C"/>
<path id="Vector_68" d="M97.9169 47.3031C97.9172 47.2497 97.9381 47.1985 97.9754 47.1598C98.0126 47.1211 98.0634 47.098 98.1174 47.0949H98.102C98.0456 47.0949 97.9915 47.117 97.9517 47.1564C97.9118 47.1957 97.8894 47.2491 97.8894 47.3047C97.8894 47.3604 97.9118 47.4138 97.9517 47.4531C97.9915 47.4924 98.0456 47.5145 98.102 47.5145H98.1174C98.0628 47.5115 98.0116 47.4878 97.9742 47.4485C97.9369 47.4091 97.9163 47.357 97.9169 47.3031Z" fill="#72351C"/>
<path id="Vector_69" opacity="0.1" d="M97.5398 47.5769C97.5208 47.7558 97.5443 47.9365 97.6083 48.1049C97.6401 48.1866 97.6543 48.2739 97.6498 48.3613C97.6454 48.4487 97.6225 48.5343 97.5826 48.6125C97.609 48.6184 97.6364 48.6182 97.6626 48.6117C97.6888 48.6052 97.7131 48.5927 97.7335 48.5752C97.776 48.5384 97.813 48.4957 97.8431 48.4483C97.875 48.4097 97.8978 48.3647 97.91 48.3164C97.9152 48.2403 97.9035 48.1641 97.8757 48.093C97.8425 47.9634 97.8184 47.8317 97.8037 47.6988C97.7934 47.6176 97.8037 47.3841 97.7112 47.3604C97.6186 47.3367 97.5569 47.5093 97.5398 47.5769Z" fill="#103B66"/>
<path id="Vector_70" d="M97.5518 47.5721C97.5328 47.751 97.5563 47.9317 97.6204 48.1C97.6522 48.1817 97.6663 48.2691 97.6619 48.3565C97.6574 48.4439 97.6345 48.5295 97.5947 48.6076C97.621 48.6136 97.6484 48.6133 97.6746 48.6069C97.7008 48.6004 97.7251 48.5879 97.7455 48.5704C97.7881 48.5336 97.825 48.4908 97.8552 48.4435C97.887 48.4049 97.9098 48.3598 97.922 48.3115C97.9272 48.2355 97.9155 48.1593 97.8877 48.0882C97.8545 47.9586 97.8304 47.8269 97.8157 47.694C97.8055 47.6127 97.8157 47.3792 97.7232 47.3556C97.6306 47.3319 97.5689 47.5028 97.5518 47.5721Z" fill="#72351C"/>
<path id="Vector_71" opacity="0.1" d="M97.3427 47.6973C97.3839 47.7396 97.3924 47.8022 97.4267 47.8496C97.4572 47.8818 97.4945 47.9071 97.5359 47.9234C97.5774 47.9398 97.6221 47.947 97.6667 47.9443C97.691 47.9431 97.7153 47.9483 97.7369 47.9596C97.7746 47.9832 97.7763 48.0374 97.8003 48.0746C97.8132 48.0882 97.8287 48.099 97.8459 48.1064C97.8632 48.1138 97.8818 48.1176 97.9006 48.1176C97.9194 48.1176 97.938 48.1138 97.9553 48.1064C97.9725 48.099 97.988 48.0882 98.0009 48.0746C98.0504 48.0162 98.0776 47.9426 98.078 47.8665C98.0862 47.7827 98.0862 47.6982 98.078 47.6144C98.0757 47.5184 98.0372 47.4267 97.97 47.3572C97.9138 47.3161 97.8487 47.2883 97.7798 47.276C97.6858 47.2432 97.5846 47.2356 97.4867 47.254C97.4392 47.2696 97.3942 47.2918 97.353 47.32C97.2947 47.3572 97.2376 47.395 97.1816 47.4333C97.1182 47.4773 96.9982 47.5653 97.1148 47.6127C97.1885 47.6465 97.281 47.6313 97.3427 47.6973Z" fill="#103B66"/>
<path id="Vector_72" d="M97.3548 47.6905C97.3959 47.7328 97.4045 47.7954 97.4388 47.8427C97.4692 47.875 97.5065 47.9002 97.548 47.9166C97.5895 47.933 97.6341 47.9401 97.6787 47.9375C97.7031 47.9362 97.7274 47.9415 97.749 47.9527C97.7867 47.9764 97.7884 48.0305 97.8124 48.0678C97.8252 48.0813 97.8407 48.0922 97.858 48.0996C97.8752 48.107 97.8938 48.1108 97.9126 48.1108C97.9314 48.1108 97.95 48.107 97.9673 48.0996C97.9845 48.0922 98.0001 48.0813 98.0129 48.0678C98.0624 48.0094 98.0897 47.9358 98.09 47.8597C98.0983 47.7758 98.0983 47.6914 98.09 47.6075C98.0877 47.5115 98.0492 47.4198 97.982 47.3504C97.9258 47.3092 97.8607 47.2814 97.7918 47.2691C97.6978 47.2364 97.5967 47.2288 97.4987 47.2471C97.4512 47.2628 97.4062 47.285 97.3651 47.3131C97.3068 47.3504 97.2497 47.3881 97.1937 47.4265C97.1303 47.4705 97.0103 47.5585 97.1268 47.6058C97.2005 47.6397 97.2982 47.6262 97.3548 47.6905Z" fill="#72351C"/>
<path id="Vector_73" d="M109.323 59.2587H110.307C110.307 59.2587 110.615 48.6279 109.323 45.3472H109.076C109.076 45.3472 109.94 57.3722 109.323 59.2587Z" fill="#21B8F9"/>
<path id="Vector_74" d="M121.522 48.2267C121.522 48.2267 122.018 49.5803 121.79 50.1826C121.79 50.1826 121.447 48.9407 121.046 48.7529C120.645 48.5651 120.227 50.1826 120.227 50.1826C120.227 50.1826 119.999 49.1674 120.417 48.3383C119.88 48.6516 119.444 49.1078 119.159 49.6547C119.159 49.6547 119.083 49.0896 120.074 47.9238C119.542 48.0699 119.049 48.3266 118.626 48.6767C118.626 48.6767 118.436 48.2622 119.616 47.5854C119.616 47.5854 119.464 47.0964 118.549 47.3214C118.549 47.3214 118.549 46.6819 119.997 46.7952C119.997 46.7952 119.997 46.3807 119.044 46.4568C119.044 46.4568 119.044 45.9306 120.149 46.1184C120.047 45.9599 119.919 45.8197 119.769 45.7039C119.959 45.6866 120.15 45.7404 120.302 45.8545C120.302 45.8545 120.264 45.1777 120.835 44.9137L120.91 45.8545C120.91 45.8545 121.551 45.11 121.406 45.2521C121.314 45.4788 121.275 45.7227 121.291 45.9662C121.503 45.8138 121.759 45.7348 122.021 45.7416C122.283 45.7483 122.536 45.8403 122.739 46.0034C122.739 46.0034 121.748 46.0778 121.596 46.4179C121.596 46.4179 122.434 46.2673 122.624 46.3807C122.624 46.3807 121.976 46.6057 122.014 46.7563C122.014 46.7563 123.157 46.7563 123.31 47.1709C123.31 47.1709 122.129 47.3214 122.052 47.4348C122.052 47.4348 123.423 48.4128 123.5 48.6767C123.5 48.6767 122.09 47.8493 121.862 47.8493C121.634 47.8493 122.89 49.054 122.814 49.3535C122.818 49.3552 121.788 48.1505 121.522 48.2267Z" fill="#21B8F9"/>
<path id="Vector_75" d="M99.8691 42.3777C99.8005 42.3777 99.7251 42.3777 99.6737 42.3777C99.6503 42.3789 99.6272 42.3834 99.6052 42.3913L99.2624 42.5148C99.5452 42.5148 99.8383 42.5148 100.128 42.5148L101.749 42.5029C101.921 42.5029 102.092 42.5029 102.226 42.4911C102.318 42.4911 102.387 42.4742 102.471 42.4674C102.778 42.4403 103.225 42.4454 103.626 42.4471C103.969 42.4585 104.313 42.4421 104.654 42.398H103.797C103.705 42.398 103.607 42.398 103.527 42.398C103.446 42.398 103.372 42.3828 103.288 42.3743C103.149 42.3625 102.958 42.3608 102.774 42.3608C101.797 42.3608 100.831 42.3828 99.8691 42.3777Z" fill="#F4F4F4"/>
<path id="Vector_76" d="M93.4266 59.7797H92.1377C92.1377 59.7797 91.735 45.8648 93.4266 41.5705H93.7488C93.7488 41.5705 92.621 57.3145 93.4266 59.7797Z" fill="#21B8F9"/>
<path id="Vector_77" d="M110 44.8004C110 44.8004 110.8 46.9882 110.43 47.9594C110.43 47.9594 109.876 45.9544 109.23 45.6515C108.584 45.3486 107.907 47.9594 107.907 47.9594C107.907 47.9594 107.539 46.3198 108.216 44.9832C107.349 45.4893 106.645 46.2265 106.185 47.11C106.185 47.11 106.061 46.198 107.662 44.3148C107.662 44.3148 106.246 44.6786 105.324 45.5297C105.324 45.5297 105.016 44.8613 106.925 43.7683C106.925 43.7683 106.678 42.9782 105.203 43.3436C105.203 43.3436 105.203 42.3115 107.54 42.4976C107.54 42.4976 107.54 41.8293 105.998 41.9511C105.998 41.9511 105.998 41.1051 107.782 41.4046C107.782 41.4046 107.413 40.8581 107.167 40.7363C107.473 40.7095 107.779 40.7964 108.024 40.9799C108.024 40.9799 107.962 39.8869 108.881 39.4571L109.004 40.9799C109.004 40.9799 110.032 39.7769 109.804 40.0087C109.657 40.3751 109.594 40.7692 109.619 41.1627C109.619 41.1627 110.665 40.3167 111.957 41.2236C111.957 41.2236 110.356 41.3454 110.111 41.8919C110.111 41.8919 111.465 41.6483 111.772 41.831C111.772 41.831 110.726 42.1948 110.788 42.4384C110.788 42.4384 112.634 42.4384 112.881 43.1068C112.881 43.1068 110.973 43.3504 110.85 43.5314C110.85 43.5314 113.066 45.1118 113.188 45.5364C113.188 45.5364 110.912 44.1998 110.541 44.1998C110.171 44.1998 112.202 46.1439 112.084 46.6295C112.092 46.6227 110.432 44.682 110 44.8004Z" fill="#21B8F9"/>
<path id="Vector_78" d="M111.352 37.64C111.283 37.64 111.208 37.64 111.157 37.64C111.133 37.6412 111.11 37.6457 111.088 37.6535L110.745 37.7771C111.028 37.7771 111.321 37.7771 111.611 37.7771L113.232 37.7652C113.404 37.7652 113.575 37.7652 113.709 37.7534C113.801 37.7534 113.87 37.7365 113.954 37.7297C114.26 37.7026 114.708 37.7077 115.109 37.7094C115.452 37.7208 115.796 37.7044 116.137 37.6603H115.28C115.188 37.6603 115.09 37.6603 115.009 37.6603C114.929 37.6603 114.855 37.6451 114.771 37.6366C114.632 37.6248 114.44 37.6231 114.257 37.6231C113.28 37.6231 112.313 37.6451 111.352 37.64Z" fill="#F4F4F4"/>
<path id="Vector_79" d="M106.917 34.361C106.603 34.361 106.253 34.361 106.015 34.3796C105.909 34.3854 105.803 34.4065 105.703 34.4422L104.09 35.0141C105.393 35.0462 106.752 35.0361 108.087 35.0259L115.573 34.9684C116.338 34.9684 117.14 34.9549 117.776 34.9109C118.202 34.8804 118.516 34.8364 118.91 34.8026C120.328 34.6774 122.393 34.7011 124.239 34.7078C126.085 34.7146 128.313 34.6672 128.962 34.4845H125C124.573 34.4845 124.124 34.4845 123.747 34.4642C123.306 34.4388 123.037 34.3915 122.65 34.3576C122.009 34.3035 121.125 34.2967 120.302 34.2933C115.786 34.2747 111.326 34.3796 106.917 34.361Z" fill="#F4F4F4"/>
<path id="Vector_80" d="M92.5405 40.8548C92.5405 40.8548 91.4933 43.7176 91.9766 44.99C91.9766 44.99 92.7016 42.3657 93.5465 41.9681C94.3915 41.5705 95.2776 44.99 95.2776 44.99C95.2776 44.99 95.7609 42.8429 94.8748 41.0984C94.8748 41.0984 96.6469 42.0527 97.533 43.8817C97.533 43.8817 97.6941 42.6974 95.5998 40.2237C95.5998 40.2237 97.4525 40.7008 98.6608 41.8141C98.6608 41.8141 99.0635 40.9394 96.5664 39.508C96.5664 39.508 96.8886 38.4741 98.8219 38.9513C98.8219 38.9513 98.8219 37.5977 95.7609 37.838C95.7609 37.838 95.7609 36.9632 97.7747 37.1222C97.7747 37.1222 97.7747 36.0089 95.4387 36.4065C95.4387 36.4065 95.922 35.6908 96.2442 35.5318C95.8412 35.495 95.4389 35.6085 95.1165 35.8499C95.1165 35.8499 95.197 34.4184 93.9887 33.8618L93.8276 35.8499C93.8276 35.8499 92.4736 34.2746 92.7804 34.5775C92.861 34.657 93.1026 35.6113 93.0221 36.0884C93.0221 36.0884 91.651 34.9751 89.9611 36.168C89.9611 36.168 92.0555 36.327 92.3777 37.0427C92.3777 37.0427 90.6055 36.7246 90.2027 36.9632C90.2027 36.9632 91.5739 37.4403 91.4916 37.7584C91.4916 37.7584 89.075 37.7584 88.7494 38.6332C88.7494 38.6332 91.2465 38.9513 91.4076 39.1899C91.4076 39.1899 88.5077 41.2575 88.3466 41.8141C88.3466 41.8141 91.3271 40.0646 91.8104 40.0646C92.2937 40.0646 89.6355 42.6026 89.7966 43.2456C89.8034 43.2405 91.9852 40.6957 92.5405 40.8548Z" fill="#21B8F9"/>
<path id="Vector_81" d="M83.57 39.1153C85.0845 39.1153 86.3122 37.9033 86.3122 36.4081C86.3122 34.913 85.0845 33.7009 83.57 33.7009C82.0555 33.7009 80.8278 34.913 80.8278 36.4081C80.8278 37.9033 82.0555 39.1153 83.57 39.1153Z" fill="#21B8F9"/>
<path id="Vector_82" opacity="0.5" d="M65.0601 26.2563H35.41V28.1175H65.0601V26.2563Z" fill="#21B8F9"/>
<path id="Vector_83" opacity="0.5" d="M65.06 22.5339H19.8136V24.3951H65.06V22.5339Z" fill="#21B8F9"/>
<path id="Vector_84" opacity="0.5" d="M65.06 18.8115H19.8136V20.6727H65.06V18.8115Z" fill="#21B8F9"/>
<path id="Vector_85" opacity="0.5" d="M65.06 15.0891H19.8136V16.9503H65.06V15.0891Z" fill="#21B8F9"/>
<path id="Vector_86" d="M136.58 0.0692749H15.1605V5.84235H136.58V0.0692749Z" fill="#EEEEEE"/>
<path id="Vector_87" d="M27.5793 4.2672C28.3621 4.2672 28.9967 3.64072 28.9967 2.86792C28.9967 2.09512 28.3621 1.46864 27.5793 1.46864C26.7965 1.46864 26.1619 2.09512 26.1619 2.86792C26.1619 3.64072 26.7965 4.2672 27.5793 4.2672Z" fill="#69F0AE"/>
<path id="Vector_88" d="M23.6802 4.2672C24.463 4.2672 25.0976 3.64072 25.0976 2.86792C25.0976 2.09512 24.463 1.46864 23.6802 1.46864C22.8974 1.46864 22.2628 2.09512 22.2628 2.86792C22.2628 3.64072 22.8974 4.2672 23.6802 4.2672Z" fill="#FFFF00"/>
<path id="Vector_89" d="M19.7811 4.2672C20.5639 4.2672 21.1985 3.64072 21.1985 2.86792C21.1985 2.09512 20.5639 1.46864 19.7811 1.46864C18.9983 1.46864 18.3637 2.09512 18.3637 2.86792C18.3637 3.64072 18.9983 4.2672 19.7811 4.2672Z" fill="#FF5252"/>
</g>
<defs>
<clipPath id="clip0_1_3189">
<rect width="138" height="84" fill="white"/>
</clipPath>
</defs>
</svg>
